<svg id="Layer_1" data-name="Layer 1" xmlns="http://www.w3.org/2000/svg" viewBox="0 0 504.83997 284.64001"><title>Anaheim Ducks</title><path d="M306,0C170.16,0,62.04,74.4,62.04,74.4S195.36,63.6,195.36,91.2c0,24.24-105.6,63.6-105.6,63.6s83.28,2.28,83.28,22.32C173.04,211.08,0,256.8,0,256.8s60.6,27.84,155.28,27.84c169.68,0,349.56-96.24,349.56-171.12C504.84,44.52,403.68,0,306,0Z" fill="#a4a9ad"/><path d="M306,6C207.96,6,123.72,45.96,86.28,66.84c0,0,115.08-8.16,115.08,24.36,0,20.28-49.44,44.64-84,59.16,28.32,2.76,61.8,9.6,61.8,26.76,0,31.68-106.08,65.52-159.48,80.52,24.12,8.04,72.24,20.88,135.6,20.88,170.52,0,343.56-96,343.56-165C498.84,47.16,398.76,6,306,6Z" fill="#111"/><path d="M123.6,256.31995l-20.04,5.28s17.88,2.04,46.08,2.04c202.2,0,336.36-123,336.36-142.56a13.96506,13.96506,0,0,0-.6-3.96C413.76,202.31995,271.44,261.12,123.6,256.31995Z" fill="#f95602"/><path d="M308.52,22.67993c-75.6,0-157.8,29.28-157.8,29.28s84.6-4.2,84.6,31.2c0,33-59.76,57.24-59.76,57.24s36.24,8.4,36.24,29.4c0,47.64-117.6,77.28-117.6,77.28,246.84,12,387.84-120,387.84-144.36C482.04,79.92,413.4,22.67993,308.52,22.67993Z" fill="#fff"/><path d="M308.52,27.6c-47.4,0-97.8,11.76-128.16,20.28,0,0,59.88,2.4,59.88,35.28,0,26.64-33.48,47.16-51.6,56.4,11.88,4.8,28.08,14.28,28.08,30.24,0,35.52-56.52,60.72-92.52,73.2,223.92,0,353.04-119.04,353.04-140.28C477.24,83.4,410.88,27.6,308.52,27.6Z" fill="#b5985a"/><path d="M267.12,63.24s66.12,14.88,95.76,34.68l-129,33.36,122.28-3.96c-27.24,19.92-126.6,67.56-126.6,67.56s122.16-18.12,199.32-88.68C360.24,44.52,267.12,63.24,267.12,63.24Z" fill="#fff"/><path d="M295.44,65.64s51.12,13.08,79.08,34.32l-96.96,25.08,94.2-3.12c-26.4,22.2-103.92,59.52-103.92,59.52,40.8-10.8,105.24-33.24,153.36-75.12C378.36,70.44,326.52,64.92,295.44,65.64Z" fill="#111"/></svg>