<svg id="Layer_1" data-name="Layer 1" xmlns="http://www.w3.org/2000/svg" viewBox="0 0 594.95996 616.18225"><title>Arizona Coyotes</title><path d="M571.08,285.94223s7.56-33.48-28.92-60.84c.36,29.04-12.24,41.04-12.24,41.04l-3.72-1.8-8.16-21.96,35.4-74.04c1.8,6.48,3.84,14.28,3.84,14.28l10.2-20.16a80.85549,80.85549,0,0,0,7.8-39.6l8.64-18.12-5.04-73.32c-3.6-14.28-14.64-24.72-28.92-29.28-13.68-4.32-27.24-2.04-37.44,6.24005L357.24,128.50229c-79.08,2.87994-140.64,37.92-178.8,101.15994L0,373.30224c9.48,21,54,76.92,123,63.96l35.76-6.48s29.28,159.96,168.36,185.4c0,0-47.04-76.44-35.64-139.56,0,0,32.04,92.4,93.84,79.44-49.8-60.96-22.56-121.68-22.56-121.68s25.2,41.04,82.08,36c0,0-38.76-41.04-25.68-96.24l93.6,3.48,48.96-20.52,33.24-60.24Z" fill="#fff"/><path d="M549.36,243.46225c-1.56006,17.28-17.16,33.48-17.16,33.48l-12.96-6.36-10.68-28.56,46.2-96.48a63.05766,63.05766,0,0,1,5.04,12.96c6.72-13.2,7.68005-26.64,6.72-37.44l8.64-18-4.8-70.2c-2.4-9.48-11.52-18.84-23.04-22.44-10.8-3.48-21.84-1.56-29.64,4.92L360.36,136.90225c-79.92,2.28-138.96,37.2-175.2,98.52l-174.24,140.16s32.28,61.08,106.44,53.76l47.88-8.52c5.16,22.2,33.84,150.6,144.96,181.68-18.84-36.24-43.2-100.56-19.32-153.36,31.8,102,78.48,99.24,78.48,99.24-45.12-64.08-8.4-132-8.4-132,18.36,31.32,44.88,45.36,66.48,45.36,0,0-31.68-41.88-15-96.6l98.76,3.6,44.4-18.6,27.12-49.44-21.24-9.72C568.08,260.86227,549.36,243.46225,549.36,243.46225Z" fill="#111"/><path d="M552.6,293.62228h.12c.84-3.6,4.92-22.08-.72-34.8-4.8,14.88-13.56,23.04-17.4,26.04l-21.84-10.56.12.12,44.64,28.92-27.24,6.36h-.12l-24.36-9h.12l-.24-.12c1.44-7.32,3.72-23.52-1.44-35.28-5.04,15.24-13.56,24.12-18.24,28.08l-23.64-8.76-19.8-51.72,71.88-116.16a62.6904,62.6904,0,0,1,12.12,17.75995c3.6-11.4.12-26.04-2.16-33.72l8.76-14.16,20.4-14.75995,3.84,19.2-34.08,94.55994,27-58.31995c1.2.96,3.72,2.88,9.24,14.4,2.88-9.12-1.44-29.4-1.44-29.4l7.92-15.12006-3.72-58.8c-3.12,5.04-6.36,15.84-7.8,20.04-6.6-45.24005-24.12-11.64-28.44-38.64l-14.52,11.28c-1.2,5.64-3,17.16-3.36,34.43994,0,0-10.2-10.68-13.44-20.88a222.74408,222.74408,0,0,0-3.6,37.8s-11.4-12-14.88-23.4c-1.44,7.08-3.48,20.76-3.96,41.28,0,0-12.24-12.96-16.2-25.31995-1.56,7.92-3.72,22.92-4.32,45.24,0,0-14.28-15.12-18.12-29.04l-72.24,55.8c-4.8,5.76-27.48,28.68-35.64,63.24,0,0-.12-24.36,1.8-31.92-6.36,4.56-30.12,23.28-43.2,36.84,0,0,1.56-24.6,11.64-38.52-21.36,15.48-53.88,48.48-53.88,48.48,27-46.44,48.48-60.36,59.28-69.36-54.36,17.28-101.52,55.31995-122.16,119.75995a174.0488,174.0488,0,0,1,2.4-23.52l-154.2,121.92s23.76,43.68,90.6,42l87.24-13.8s-8.64-23.28-7.8-39.72c10.56,36.72,28.92,50.28,28.92,50.28l-48.96,6.48c8.88,32.16,28.32,122.76,117,165.24-20.64-39.84-24.24-77.64-20.88-109.32,5.64-37.68,24.84-60.72,24.84-60.72,3.12,44.4,24.24,77.88,37.92,95.28a81.51518,81.51518,0,0,0,12,13.56s-17.88-32.28-4.8-90.12c1.2-3.36,11.04-31.08,21.24-41.28,13.2,37.32,45.36,51.6,45.36,51.6-22.92-47.52-3-93-3-93s103.44,3.84,104.16,3.84l38.88-16.32,20.04-36.24Z" fill="#8c2633"/><path d="M169.56,280.4223c-6.48,5.52-23.88,19.56-43.32,35.16q-38.52,30.78-77.04,61.44c11.04,19.92,37.2,25.44,52.44,26.88a100.24587,100.24587,0,0,0,11.64.6l74.28-13.2S80.28,366.94229,169.56,280.4223Zm242.76-70.56,108.96-123.6-114.48,117.36s-28.56,4.8-69.84,37.32c20.64,39.72-78,163.56-119.76,130.68,8.52,25.2,39.6,14.88,39.6,14.88-4.08,9.72-44.64,79.2,8.64,161.76-86.88-140.52,116.28-278.4,127.44-282.84-2.64-19.08-31.08-24.48-31.08-24.48C375.24,223.54229,416.52,208.90231,412.32,209.86227Z" fill="#111"/><polygon points="488.16 236.382 504.24 259.422 495.12 236.622 504.24 213.222 488.16 236.382" fill="#8c2633"/><path d="M334.08,166.78232c1.56-4.92-8.28-3.96-8.28-3.96a81.04672,81.04672,0,0,1,17.28-8.28c2.52-3,4.56-5.52,5.64-6.6-4.92.36-17.52,3.12-42.36,20.76A118.75369,118.75369,0,0,1,334.08,166.78232ZM49.2,377.02231c11.04,19.92,37.2,25.44,52.44,26.88-4.44-4.32-19.2-19.68-14.64-31.08,0,0,12.48,9.84,29.28,11.52,0,0-13.92-38.76,9.96-68.76Q87.72,346.36229,49.2,377.02231Zm503.4-83.4h.12c.84-3.6,4.92-22.08-.72-34.8-4.8,14.88-13.56,23.04-17.4,26.04l-21.84-10.56.12.12,44.64,28.92-27.24,6.36h-.12l-24.36-9h.12l-.24-.12c1.44-7.32,3.72-23.52-1.44-35.28-5.04,15.24-13.56,24.12-18.24,28.08l-23.64-8.76-19.8-51.72,71.88-116.16a62.6904,62.6904,0,0,1,12.12,17.75995c3.6-11.4.12-26.04-2.16-33.72l8.76-14.16,20.4-14.75995,3.84,19.2-34.08,94.55994,27-58.31995c1.2.96,3.72,2.88,9.24,14.4,2.88-9.12-1.44-29.4-1.44-29.4l7.92-15.12006L554.28,68.02231l-33.12,18.24-108.84,123.6c4.2-.96-37.08,13.68-50.64,30.96,0,0,28.44,5.52,31.08,24.6-11.04,4.32-214.32,142.2-127.44,282.84a226.61748,226.61748,0,0,0,29.04,36.12c-20.64-39.84-24.24-77.64-20.76-109.32,5.76-52.68,31.44-88.44,31.44-88.44s-.84,78.24,31.2,123a81.5138,81.5138,0,0,0,12,13.56s-17.88-32.28-4.8-90.12c4.68-20.64,13.08-44.4,27.72-71.16-9,42.72,29.52,73.08,38.88,81.6-22.92-47.52-3-93.12-3-93.12s103.44,3.84,104.28,3.96l36-35.4,2.76,19.08,20.04-36.36Z" fill="#e2d6b5"/><polygon points="460.2 191.382 426.96 231.702 455.88 284.982 436.32 231.702 460.2 191.382" fill="#111"/></svg>