<svg id="Layer_1" data-name="Layer 1" xmlns="http://www.w3.org/2000/svg" viewBox="0 0 594.96002 594.96002"><title>Boston Bruins</title><path d="M297.48,594.96c164.28,0,297.48-133.2,297.48-297.48S461.76,0,297.48,0,0,133.20007,0,297.48,133.2,594.96,297.48,594.96Z" fill="#fcb514"/><path d="M297.48,583.92c158.16,0,286.44-128.28,286.44-286.44,0-158.28-128.28-286.44-286.44-286.44C139.2,11.04,11.04,139.2,11.04,297.48,11.04,455.64,139.2,583.92,297.48,583.92Z" fill="#111"/><path d="M281.28,540.72c5.4.36,10.68.6,16.2.6,5.4,0,10.8-.24,16.08-.6V462.36H281.28ZM408.48,431.4l49.56,49.56a228.38333,228.38333,0,0,0,22.8-22.92l-49.2-49.2Zm9-133.92,16.68,16.08H540.72c.36-5.28.72-10.68.72-16.08,0-5.52-.36-10.92-.6-16.2H434.16ZM181.2,281.28H54.12c-.36,5.28-.6,10.68-.6,16.2,0,5.4.24,10.8.6,16.08H181.2ZM136.92,480.96l23.76-23.88V411.36L114,458.04A229.5834,229.5834,0,0,0,136.92,480.96Zm23.76-343.2L136.8,114A240.52571,240.52571,0,0,0,114,136.8L160.68,183.48ZM313.56,54.12c-5.28-.36-10.68-.6-16.08-.6-5.52,0-10.8.24-16.2.6v78.36h32.28V54.12h0Zm167.4,82.68A241.8315,241.8315,0,0,0,458.04,114l-49.56,49.56,23.16,22.56Z" fill="#fcb514"/><polygon points="193.68 385.2 173.16 405.12 173.16 449.88 371.52 449.88 421.8 401.04 421.8 318.96 399.6 297.48 421.8 275.88 421.8 193.92 371.52 144.96 173.16 144.96 173.16 189.72 193.68 209.76 193.68 385.2" fill="#fcb514"/><path d="M434.28,267.96H539.52a242.45807,242.45807,0,0,0-50.04-120.84l-55.2,55.2ZM267.96,132.48V55.44a242.45858,242.45858,0,0,0-120.84,50.04l27.12,27.12h93.72Zm166.32,194.4v65.76l55.2,55.08a241.55957,241.55957,0,0,0,50.04-120.84Zm-35.4-172.56,48.84-48.84A242.45847,242.45847,0,0,0,326.88,55.44V132.6h49.68ZM181.2,222.84l-75.72-75.72A243.33533,243.33533,0,0,0,55.32,267.96H181.2Zm0,149.16V326.88H55.32a242.78461,242.78461,0,0,0,50.16,120.84Zm195.36,90.36H326.88v77.16a242.41835,242.41835,0,0,0,120.96-50.04L399,440.64Zm-108.6,0H174.24l-27.12,27.12a242.08554,242.08554,0,0,0,120.84,50.04Z" fill="#fff"/><polygon points="183.48 409.56 183.48 439.56 367.44 439.56 411.48 396.6 411.48 323.4 384.84 297.48 411.48 271.56 411.48 198.24 367.32 155.4 183.48 155.4 183.48 185.28 204.12 205.32 204.12 389.52 183.48 409.56" fill="#111"/><path d="M364.2,256.32v-38.4l-20.16-19.68h-96V276h95.88Zm0,120.72V338.52l-20.16-19.68h-96V396.6h95.88Z" fill="#fcb514"/><path d="M353.88,342.96l-14.04-13.68H258.48v57h81.36l14.04-13.68Zm0-120.72-14.04-13.68H258.48v57.12h81.36L353.88,252Z" fill="#111"/><path d="M341.4,367.32v-19.2l-6.72-6.36H270.96V373.8h63.72Zm0-120.6v-19.2l-6.72-6.48H270.96V253.2h63.72Z" fill="#fff"/></svg>