<svg id="Layer_1" data-name="Layer 1" xmlns="http://www.w3.org/2000/svg" viewBox="0 0 594.96002 594.96002"><title>Buffalo Sabres Logo</title><path d="M594.96,297.48C594.96,133.44006,461.52,0,297.48,0S0,133.44006,0,297.48,133.44,594.96,297.48,594.96,594.96,461.52,594.96,297.48Z" fill="#adafaa"/><path d="M297.48,3.6C135.48,3.6,3.6,135.48,3.6,297.48S135.48,591.24,297.48,591.24,591.24,459.48,591.24,297.48,459.48,3.6,297.48,3.6Z" fill="#002654"/><path d="M297.48,32.04c-146.4,0-265.44,119.04-265.44,265.44,0,146.28,119.04,265.44,265.44,265.44,146.28,0,265.44-119.16,265.44-265.44C562.92,151.08008,443.76,32.04,297.48,32.04Z" fill="#adafaa"/><path d="M411.24,493.32s-3.6.24005-6.6-4.56c0,0-3.36.48-6.48-4.44,0,0-3.48.24005-6.48-4.56,0,0-3.6.36-6.48-4.44,0,0-3.48.36-6.6-4.56,0,0-3.48.36-6.48-4.44,0,0-3.36.36-6.48-4.43994h-.48a2.2246,2.2246,0,0,1-.84-.24005c-.48,12.72,3.36,25.32,20.16,36,15.48,9.72,26.04,7.68,34.56,2.04-.48-.6-.96-1.2-1.44-1.92C417.72,497.76,414.24,498.12,411.24,493.32ZM534.48,186.48a39.68329,39.68329,0,0,1-11.28,26.64c-.96,1.08-85.2,94.08-200.16,181.92,6.84,4.92,13.56,9.84009,20.4,14.76007a5.43587,5.43587,0,0,1,.96-2.64c2.64-4.2,9.84-5.76,16.32-1.56,10.2,6.36,10.56,15.96,8.52,27a2.3394,2.3394,0,0,1,.96.12c2.64.36,4.68,2.16,6.12,4.56,0,0,3.36-.36,6.48,4.44,0,0,3.6-.24,6.48,4.56,0,0,3.36-.48,6.48,4.44,0,0,3.6-.24,6.48,4.56,0,0,3.6-.36,6.6,4.44,0,0,3.48-.36,6.48,4.56,0,0,3.48-.36,6.48,4.44,0,0,3.36-.36,6.48,4.56.12,0,.36-.12.48-.12,4.44.84,7.32,4.8,8.04,10.2,5.88-5.4,11.76-8.4,19.2-3.72,5.28,3.36,9.96,11.4,6.24,21,59.16-48.12,96.96-121.32,96.96-203.16A260.1963,260.1963,0,0,0,534.48,186.48ZM318.36,286.68c78.24-28.8,108.12-44.4,112.08-33.48,3.96,10.68-37.68,33-102,56.76-38.52,14.16-45.36,6.48-47.28.96C278.64,304.08,280.8,300.6,318.36,286.68Zm-20.88,89.28A1945.815,1945.815,0,0,0,481.56,217.08h-1.32c-22.44,0-27.6-25.68-34.56-25.68-2.88.24-13.44,3.6-19.8,6.36,4.2,1.56,8.16,0,13.08,3.24,6.47995-.6,11.28,2.52,11.28,10.44s-1.68,18.48-16.8,18.48c-20.64,0-21.12-20.28-35.28-20.28-4.2,0-19.08,6.48-31.56,6.48-15.84,0-25.92-11.52-39.36-11.52-5.16,0-6.6,4.56-6.6,6.84,0,6.12,7.44,8.16,7.44,14.76a6.77294,6.77294,0,0,1-3.48,6c1.8,1.32,3.48,3,3.48,5.88a8.46293,8.46293,0,0,1-.72,3c2.88-2.28,5.4-3.96,8.4-3.96,9.36,0,13.56,16.08,13.56,22.08,0,9.96-9.36,10.92-17.64,10.92-7.68,0-24.6,7.08-31.56,7.08s-17.28-5.88-18.48-13.31995c-2.76,3.6-8.04,6-14.64,6-7.32,0-21.36-8.04-29.52-8.04-6.24.6-17.64-.24-17.64-15.12a7.2161,7.2161,0,0,1,.36-2.4c-9.24,4.8-21.96.72-21.96.72-15.72,7.8-18-.84-17.88-4.2-3.36,2.52-7.44,7.32-12.96,7.32-9.12,0-11.4-9-16.68-14.04-2.16-2.16-7.8-4.32-10.68-7.56-5.04-5.04-9.84-13.44-26.76-27-4.8-3.84-8.76-17.28-8.76-29.4,0-22.56,3.36-45.48,44.4-55.92C190.68,103.68,182.76,50.16,260.88,50.16c21.96,0,40.08,4.2,58.32,10.8-5.04-2.52-7.2-5.28-6.24-8.88.96-3.36,3.72-9.84,67.8,7.8C419.4,70.56,449.88,80.76,447,90.96c-3.36,12.12-26.28-1.32-73.32-14.16-18.84-5.16-34.08-8.64-44.52-12C361.8,78,397.2,97.92,457.8,115.32c21.24,5.4,34.8,5.88,34.8,17.04a6.816,6.816,0,0,1-2.28,5.28c12.12-.84,16.44,15-9.6,15-14.88,0-25.56-5.76-25.56-13.56a8.64442,8.64442,0,0,1,4.8-8.04,101.98878,101.98878,0,0,0-20.04-3.84,41.9511,41.9511,0,0,1,2.16,12.6c0,10.08-2.4,14.75995-3.24,20.52,4.44-.84,9-3,12.48-3,15,0,6.48,21.96,24.96,24.24,7.08,1.32,6.96,6.48,6.96,6.48,6.96-1.32,11.64-.72,11.64,13.2v2.64c17.04-17.4,26.4-27.6,26.76-27.96a7.34211,7.34211,0,0,1,6.11993-2.64C483.48,91.44006,396.84,35.76,297.48,35.76c-99.48,0-186,55.68005-230.4,137.4a8.00559,8.00559,0,0,1,6.12,2.76C74.16,176.88,160.2,271.92,297.48,375.96Z" fill="#002654"/><path d="M222.72,466.32c-3,4.8-6.48,4.44-6.48,4.44-3,4.8-6.48,4.44-6.48,4.44-3,4.92-6.6,4.56-6.6,4.56-2.88,4.8-6.48,4.44-6.48,4.44-3,4.92-6.48,4.56-6.48,4.56-2.88,4.8-6.48,4.44-6.48,4.44-3.12,4.92-6.48,4.56-6.48,4.56a10.53153,10.53153,0,0,1-1.44,1.8c8.52,5.64,19.08,7.68,34.56-2.04,16.8-10.68,20.76-23.28,20.28-36a2.82431,2.82431,0,0,1-.96.24h-.48C226.08,466.68,222.72,466.32,222.72,466.32Zm-83.88,13.32c7.56-4.8,13.44-1.68,19.32,3.72.6-5.4,3.48-9.48,7.92-10.2.24,0,.36.12.48.12,3.12-4.92,6.48-4.56,6.48-4.56,3-4.8,6.6-4.44,6.6-4.44,3-4.92,6.48-4.56,6.48-4.56,2.88-4.92,6.48-4.44,6.48-4.44,3-4.8,6.48-4.56,6.48-4.56,3.12-4.92,6.6-4.44,6.6-4.44,2.88-4.92,6.48-4.56,6.48-4.56,3-4.8,6.48-4.44,6.48-4.44,1.44-2.4,3.48-4.2,6-4.56a2.64235,2.64235,0,0,1,.96-.12c-1.92-11.04-1.56-20.64,8.52-27,6.6-4.2,13.68-2.64,16.32,1.44a6.45683,6.45683,0,0,1,.96,2.64c6.84-4.8,13.68-9.72,20.4-14.64C156.84,307.2,72.6,214.32,71.64,213.12A39.64151,39.64151,0,0,1,60.36,186.6,261.734,261.734,0,0,0,132.6,500.64C129,491.04,133.56,483,138.84,479.64ZM270.12,225.96c-8.64,0-12.12,6.84-12.24,8.28,0,1.44,1.32,3.36,1.56,5.52,0,0,3.36-3.48,7.32-3.48,7.56,0,14.04,12.24,16.2,18.96a55.4708,55.4708,0,0,0,1.44-12.72C284.4,232.2,277.08,225.96,270.12,225.96Z" fill="#002654"/><path d="M220.68,211.92c-4.8,0-6.36,4.68-6.36,6.12,0,11.04,8.4,6.6,13.44,13.32,1.8-4.56-2.76-6.48-2.76-11.52,0-1.44.6-2.64.6-3.72C225.6,213.48,223.2,211.92,220.68,211.92Zm150.6,302.16c-30.84-19.44-30.84-46.56-27.36-67.56-14.52-9.72-33.6-22.92-46.44-32.28-12.96,9.36-32.04,22.56-46.56,32.28,3.48,21,3.48,48.12-27.24,67.56-37.8,23.88-60.84.84-68.4-5.4a19.55641,19.55641,0,0,1-7.68,3.24,261.55744,261.55744,0,0,0,299.64,0,19.55631,19.55631,0,0,1-7.68-3.24C432,514.92,409.08,537.96,371.28,514.08Z" fill="#002654"/><path d="M233.04,456.48c1.56,15.12-.96,30.72-21.24,43.44C192.72,512.04,180.48,507.36,171,499.44c2.04-.48,3.6-2.16,4.56-4.55994,0,0,4.2,1.55994,6.6-4.56006,0,0,4.32,1.44,6.48-4.43994,0,0,4.32,1.31995,6.48-4.56006,0,0,4.2,1.56006,6.48-4.43994,0,0,4.44,1.31995,6.6-4.56006,0,0,4.2,1.44,6.48-4.43994,0,0,4.32,1.31995,6.48-4.56006,0,0,4.2,1.56006,6.48-4.43994A3.45567,3.45567,0,0,0,229.2,459,5.52407,5.52407,0,0,0,233.04,456.48ZM222.12,511.8c49.8-31.56,15.6-86.16,22.08-94.44006,1.68-2.16,6-5.16,3.84-8.64-1.8-2.88-7.44-3.84-12.48-.72-9.6,6.12-8.64,16.44-6.24,28.44a5.85063,5.85063,0,0,0-4.2-.84c-2.28.36-3.96,2.04-4.92,4.68,0,0-4.32-1.68-6.6,4.44,0,0-4.32-1.44-6.48,4.56,0,0-4.32-1.44-6.48,4.44,0,0-4.2-1.56-6.48,4.56,0,0-4.44-1.44-6.6,4.44,0,0-4.2-1.44-6.48,4.56,0,0-4.32-1.44-6.48,4.44,0,0-4.2-1.44-6.48,4.44a6.84616,6.84616,0,0,0-1.56-.12006c-4.32.72-6.72,6.36-5.52,13.08a3.50411,3.50411,0,0,0,.24,1.08c-7.08-7.31995-13.08-13.08-21-8.04-6.72,4.2-8.04,13.56-3.12,21.36,6.24,9.84,14.28,4.68,18.12,1.68C163.44,511.2,184.08,535.68,222.12,511.8Zm201.84-12.36c-9.48,7.92-21.72,12.6-40.92.48-20.16-12.72-22.8-28.32-21.24-43.44a5.52407,5.52407,0,0,0,3.84,2.52,3.32377,3.32377,0,0,0,1.56-.11993c2.28,6,6.48,4.43994,6.48,4.43994,2.16,6,6.48,4.56006,6.48,4.56006,2.4,5.87994,6.6,4.43994,6.6,4.43994,2.04,6,6.48,4.56006,6.48,4.56006,2.4,6,6.48,4.43994,6.48,4.43994,2.16,6,6.48,4.56006,6.48,4.56006,2.16,5.87994,6.6,4.43994,6.6,4.43994,2.28,6.12,6.48,4.56006,6.48,4.56006C420.24,497.28,421.8,498.96,423.96,499.44Zm30.6-17.4c-7.92-5.04-14.04.84009-21,8.04.12-.36.12-.72.24-1.08,1.2-6.72-1.2-12.36-5.52-13.08a6.84245,6.84245,0,0,0-1.56.11993C424.44,470.16,420.24,471.6,420.24,471.6c-2.16-5.88-6.48-4.44-6.48-4.44-2.28-6-6.6-4.56-6.6-4.56-2.04-5.88-6.48-4.44-6.48-4.44-2.4-6-6.48-4.56-6.48-4.56-2.16-5.88-6.48-4.44-6.48-4.44-2.16-5.88-6.48-4.56-6.48-4.56-2.4-6.12-6.6-4.44-6.6-4.44-.96-2.64-2.64-4.32-4.92-4.68a5.93122,5.93122,0,0,0-4.2.96c2.4-12.12,3.36-22.44-6.24-28.55994-5.04-3.12006-10.56-2.16-12.36.72-2.28,3.48,2.04,6.6,3.72,8.75995,6.48,8.16-27.72,62.88007,22.08,94.32,38.04,24,58.8-.6,66.72-6.6,3.84,3,11.88,8.16,18.24-1.8C462.6,495.6,461.28,486.36,454.56,482.04ZM327.24,201.84c14.28,0,24.36,11.52,39.36,11.52,12.72,0,26.52-6.48,31.56-6.48,16.08,0,15.84,20.28,35.28,20.28,9.96,0,14.04-4.56,14.04-15.6,0-7.43994-4.44-7.68-8.52-7.68-1.44,0-3.48-2.4-8.04-2.4-5.28,0-9.72-2.28-10.92-3.6,3.84-3,22.2-9.24,25.56-9.24,10.32,0,12.72,25.68,34.68,25.68,5.88,0,12-1.56,12-13.08,0-8.76-1.68-11.52-6.12-10.92-3.36.72-6.36,1.08-6.36,1.08,1.68-3.24,1.08-6-3.84-7.08-20.64-3.12-12.48-24.12-24.6-24.12-4.08,0-15.36,5.64-15.36,1.68,0-4.32,3.36-11.04,3.36-22.08,0-7.32-2.88-15.72-2.88-15.72,10.44.12,25.44,3.96,32.28,6.84-4.32.84-10.68,2.4-10.68,8.04,0,6.12,9.96,10.8,22.68,10.8,20.76,0,18.48-9.24,10.92-9.24-7.8,0-10.68-.72-11.88-1.32,3.72-1.32,10.08-1.44,10.08-6.84,0-9.12-12-8.64-32.76-14.4-92.64-25.44-132.72-64.92-196.2-64.92-77.04,0-67.2,52.8-111.24,63.96-39.12,9.96-42.36,30.84-42.36,53.16,0,12,4.08,24.24,7.68,27.12,9.12,7.8,15.48,12.96,27.12,27.24,2.04,2.4,8.04,5.04,10.68,7.56,5.28,5.28,7.44,13.2,14.64,13.2,6.48,0,11.04-9,19.68-11.4-2.04,1.92-3.96,4.32-3.96,7.08,0,6.48,7.32,4.8,14.88,1.2,16.92,4.44,23.04-.36,27.6-5.88a2.79218,2.79218,0,0,0-.36-3.72c-5.4-5.04-13.68-2.16-13.68-14.52,0-2.4,2.16-9,9.24-9,3.96,0,9.12,3.24,7.32,9.36-1.2,3.96,2.88,6.72,2.88,9.6,0,11.04-8.28,11.76-8.28,18.72,0,12.6,9.24,12.84,14.64,12.36,8.64,0,23.28,8.04,29.52,8.04,7.92,0,13.92-3.6,13.92-8.52,0-3.84-7.68-19.56-14.04-19.56-3.6,0-6.24,4.44-8.28,4.44a3.7815,3.7815,0,0,1-2.4-.72c2.04-3.12-.96-5.04-.96-8.64,0-2.52,4.68-11.04,15-11.04,8.28,0,17.16,7.44,17.16,19.32,0,10.56-3.12,17.64-3.12,20.16,0,6.36,9.96,11.88,15.96,11.88,6.48,0,22.8-7.08,31.56-7.08,9.24,0,14.76-1.44,14.76-8.04,0-5.88-4.08-19.32-10.8-19.32-5.88,0-14.52,13.32-25.68,13.32a16.91469,16.91469,0,0,1,3.36-4.8c7.08-3.48,11.88-6.36,11.88-10.44,0-3.48-4.68-4.68-7.32-6.84,4.8-.48,7.32-1.56,7.32-5.04,0-5.04-7.32-7.2-7.32-14.76C317.88,206.76,321,201.84,327.24,201.84Z" fill="#002654"/><path d="M276.48,395.16c-10.8,7.92-21.72,15.72-32.64,23.4l4.8,25.92c16.56-10.92,32.76-22.08,48.84-33.72,14.64,10.68,33.36,23.64,48.72,33.72l4.92-25.92c-11.04-7.68-21.84-15.48-32.76-23.4,116.4-88.44,201.84-182.76,202.8-183.84a37.33674,37.33674,0,0,0,10.08-31.44c-.36-3.6-4.32-5.4-7.44-2.16-.96,1.08-87.96,97.08-226.32,201.84C159,274.8,72.12,178.8,71.16,177.72c-3.24-3.24-7.08-1.43994-7.56,2.16a37.79479,37.79479,0,0,0,10.08,31.44C74.76,212.40005,160.2,306.72006,276.48,395.16Z" fill="#002654"/><path d="M444.36,90.12006c1.92-6.96-29.76-18-64.32-27.48-47.28-12.96-64.44-11.87994-64.32-9.72.12,6.72,18.12,9.96,58.8,21.12C418.68,86.16,442.2,98.16,444.36,90.12006ZM327.48,307.32c49.2-18.24,103.44-44.64,100.32-53.16-2.52-6.96-41.16,10.32-108.36,35.16-31.44,11.64-37.68,15.24-35.64,20.64C285.12,313.8,291.12,320.76,327.48,307.32Z" fill="#002654"/><path d="M297.48,566.64c-148.68,0-269.16-120.48-269.16-269.16S148.8,28.32,297.48,28.32,566.64,148.8,566.64,297.48,446.16,566.64,297.48,566.64Zm0-559.2C137.28,7.44,7.32,137.28,7.32,297.48S137.28,587.52,297.48,587.52,587.52,457.68,587.52,297.48,457.68,7.44,297.48,7.44Z" fill="#fcb514"/><path d="M170.16,496.8c1.92-.36,3.12-2.64,3.48-5.76,1.44,1.8,5.64,2.76,6.48-4.56,1.44,1.8,5.64,2.88,6.48-4.44,1.56,1.8,5.76,2.76,6.48-4.56,1.56,1.8,5.76,2.88,6.6-4.44,1.44,1.8,5.64,2.76,6.48-4.56,1.44,1.8,5.64,2.88,6.48-4.44,1.44,1.8,5.64,2.76,6.48-4.56,1.56,1.8,5.76,2.88,6.6-4.44a3.30307,3.30307,0,0,0,3,1.2c2.64-.36,4.08-4.8,3.24-9.72-.84-5.04-3.72-8.64-6.36-8.28-1.8.36-3.12,2.64-3.36,5.76-1.44-1.8-5.64-2.76-6.48,4.56-1.56-1.8-5.76-2.88-6.48,4.44-1.56-1.8-5.76-2.76-6.6,4.56-1.44-1.8-5.64-2.88-6.48,4.44-1.44-1.68-5.64-2.76-6.48,4.56-1.44-1.8-5.64-2.88-6.48,4.44-1.56-1.68-5.76-2.76-6.6,4.56-1.44-1.8-5.64-2.88-6.48,4.44a3.4063,3.4063,0,0,0-3.12-1.2c-2.64.48-3.96,4.8-3.12,9.84C164.76,493.56,167.52,497.16,170.16,496.8Zm195.96-40.44a3.85315,3.85315,0,0,0,3.12-1.32c.84,7.32,5.04,6.24,6.48,4.44.84,7.44,5.04,6.36,6.6,4.56.84,7.32,4.92,6.24,6.48,4.44.84,7.32,5.04,6.36,6.48,4.56.84,7.32,5.04,6.24,6.48,4.44.84,7.32,5.04,6.36,6.48,4.56.84,7.32,5.04,6.24,6.6,4.44.84,7.32,5.04,6.24,6.48,4.56.24,3.12,1.56,5.4,3.36,5.76,2.64.48,5.52-3.24,6.36-8.16.84-5.04-.6-9.36-3.24-9.84a3.40628,3.40628,0,0,0-3.12,1.2c-.84-7.32-4.92-6.24-6.48-4.44-.84-7.32-5.04-6.24-6.48-4.56-.84-7.32-5.04-6.24-6.48-4.44-.84-7.32-5.04-6.24-6.6-4.56-.72-7.32-4.92-6.24-6.48-4.44-.84-7.32-5.04-6.36-6.48-4.56-.84-7.32-5.04-6.24-6.48-4.44-.84-7.32-5.04-6.36-6.48-4.56-.36-3.12-1.56-5.4-3.48-5.76-2.64-.36-5.4,3.24-6.24,8.16C362.16,451.44,363.6,455.76,366.12,456.36Z" fill="#fcb514"/><path d="M242.04,415.56c1.92-2.4,4.44-4.08,3.6-5.4s-4.56-2.28-8.52.24c-22.8,14.4,24.84,61.32-23.76,91.92-44.04,27.84-55.08-28.2-71.52-17.88-3.84,2.52-7.32,9.36-2.28,17.4,5.76,9,12.6,1.92,15.36.12,3.48-2.16,23.88,33.72,65.76,7.32,48.84-30.84,12.84-82.92,21.36-93.6ZM453,484.44c-16.32-10.32-27.36,45.72-71.4,17.88-48.6-30.6-.96-77.52-23.88-91.92-3.84-2.52-7.68-1.56-8.52-.24-.72,1.32,1.68,3,3.72,5.52,8.4,10.68-27.6,62.76,21.36,93.6,41.88,26.52,62.28-9.48,65.76-7.32,2.76,1.8,9.6,9,15.24-.12C460.32,493.8,456.96,486.96,453,484.44Z" fill="#fcb514"/><path d="M528.48,180.36c-.48-2.87994-2.64-.72-2.64-.72S438.6,276.6,297.48,383.04C156.24,276.6,69,179.64,69,179.64s-2.16-2.16-2.52.72a34.67279,34.67279,0,0,0,9.36,29.04s86.52,96.12,205.32,185.76c-11.28,8.4-22.68,16.56-34.2,24.72l3.72,19.92c15.84-10.44,31.44-21.36,46.8-32.52,15.12,11.04,30.72,21.96,46.68,32.52l3.72-19.92c-11.4-8.16-22.92-16.32-34.2-24.72,118.8-89.64,205.44-185.76,205.44-185.76A35.144,35.144,0,0,0,528.48,180.36Z" fill="#fff"/><path d="M375.24,71.28c41.4,11.4,65.4,21.96,66.36,18.12,1.08-3.84-31.8-15.72-62.28-24.12C348.84,57,317.28,52.8,318.24,53.76,321.48,56.88,333.72,59.88,375.24,71.28ZM320.4,291.96c-25.2,9.36-35.4,13.2-33.96,17.04.72,2.16,6,8.28,40.08-4.32,33.96-12.6,100.92-43.32,98.64-49.56C423.96,252.12,376.68,271.2,320.4,291.96ZM142.92,134.28c14.64,0,22.2,8.64,22.2,18.12a16.48664,16.48664,0,0,1-16.68,16.32,7.04933,7.04933,0,0,1-7.32-7.08c0-3.24,4.8-6.12,4.8-9.96,0-4.8-5.76-8.16-11.64-8.16-9.96,0-16.68,8.52-16.68,4.32C117.6,142.8,127.56,134.28,142.92,134.28Zm29.76,38.4c0,2.52-5.16,8.64-8.52,8.64-2.4,0-6.48-9.72-6.48-10.56s1.2-2.52,4.8-2.52C166.2,168.36,172.68,170.16,172.68,172.68Zm-5.04,66.12s-3-2.16-3-3.84c0-3.6,6.12-4.68,6.12-3.48C170.76,234.48,167.64,238.8,167.64,238.8ZM151.8,214.56c-4.08,0-3-2.88-3-2.88,5.28-7.2,2.64-24.36,9.24-24.36,3.72,0-1.68,3.84-1.68,8.28,0,4.92,7.32,3.48,7.32,9.36C163.68,208.68,157.68,214.56,151.8,214.56Zm-35.04-19.43994C134.52,209.4,139.92,218.4,144,222.6c3.48,3.36,6.96,3.72,10.68,7.56,5.64,5.64,7.44,12.36,12.72,12.36,5.52,0,11.52-12,23.4-12,8.04,0-4.8,5.28-4.8,10.56,0,4.32,9.72-1.68,11.76-1.68,3.6,0,17.4,6.12,25.56-4.8-3.72-3.6-14.52-2.16-14.52-16.56,0-3.96,3.36-11.76,12-11.76,6.96,0,12.12,6.12,9.96,13.08-.72,2.16,3,4.68,3,8.64,0,12.12-8.28,13.44-8.28,18.72,0,10.68,7.56,9.84,11.64,9.6,9.72,0,24.72,8.04,29.76,8.04,6.24,0,11.16-2.64,11.16-5.76s-7.32-16.68-11.28-16.68c-2.4,0-4.8,4.32-8.28,4.32-3.84,0-6.12-2.4-4.68-4.8.72-1.44-1.56-3.6-1.56-7.2,0-4.44,6.12-13.92,17.88-13.92,9.72,0,19.92,8.52,19.92,22.08,0,11.4-3,17.88-3,20.16,0,4.2,7.92,9.12,13.08,9.12,5.04,0,24.12-7.2,30.24-7.2s13.32.48,13.32-5.16-3.96-16.56-8.04-16.56c-4.2,0-13.56,13.32-25.68,13.32-1.44,0-3.12-.24-3.12-2.28s3.24-6.6,4.92-7.68c1.68-.96,10.56-4.8,10.56-8.04,0-1.8-8.16-4.08-8.16-7.56,0-3.72,8.16-.84,8.16-4.32,0-3.24-7.32-6.12-7.32-14.76,0-6.12,4.2-12.48,12.12-12.48,15.36,0,24.96,11.52,39.36,11.52,12.24,0,25.68-6.48,31.68-6.48,17.88,0,17.4,20.28,35.16,20.28,8.28,0,11.16-3.12,11.16-12.84,0-5.28-2.52-4.8-5.64-4.8-3,0-3.48-2.4-8.16-2.4-6.72,0-14.16-3.48-14.16-6.84,0-3.6,25.2-11.64,28.8-11.64,12.96,0,14.16,25.68,34.8,25.68,5.28,0,9.12-1.08,9.12-10.2s-1.44-8.28-3.12-8.04-9.96,2.52-9.96-.12,3.96-5.28-.84-6c-21.96-3.6-15.6-24.24-24.12-24.24-4.08,0-18.24,7.8-18.24-1.08,0-4.92,3.36-11.52,3.36-22.08,0-11.64-6.6-18.48-.24-18.48,14.04,0,38.4,7.08,38.4,10.56,0,2.4-13.68.96-13.68,7.2,0,3.6,7.8,8.04,19.92,8.04,12,0,16.8-3.72,10.8-3.72s-15.12-.24-15.12-4.32c0-4.2,10.56-2.4,10.56-6.72,0-6.48-10.8-5.88-30.72-11.64C357.36,92.52,322.92,55.8,260.88,55.8c-76.44,0-64.2,52.08-110.64,63.84-36.72,9.36-40.08,28.2-40.08,50.52C110.16,182.64,114.36,193.32,116.76,195.12006Z" fill="#fff"/><path d="M156.6,203.28c-1.08,0-1.92,1.68005-1.92,2.28s1.56,2.76,2.76,2.76c.6,0,1.44-.36,1.44-.96C158.88,204.96008,158.76,203.28,156.6,203.28Z" fill="#cf0a2c"/></svg>