<svg id="Layer_1" data-name="Layer 1" xmlns="http://www.w3.org/2000/svg" viewBox="0 0 595.0282 357.76086"><title>Carolina Hurricanes</title><path d="M593.61408,104.509c-8.16-56.88-57.84-74.52-87.6-80.04l25.44-16.8s-133.44-28.92-306,25.56006c-157.68,49.8-237.24,127.92-224.03995,219.96,8.16,56.88,57.84,74.52,87.71994,80.04l-25.56,16.8s133.44,29.04,306-25.44C527.25409,274.66905,606.81409,196.66905,593.61408,104.509Z" fill="#a4a9ad"/><path d="M585.694,107.029c-10.8-75.12-103.56-76.44-103.56-76.44l26.76-17.64s-126.6-20.52-282.24,28.56c-137.4,43.44-230.88,114.84-217.32,209.16,10.8,75.12,103.56,76.44,103.56,76.44l-26.76,17.64s126.6,20.52,282.24-28.56C505.77405,272.749,599.254,201.349,585.694,107.029Z" fill="#fff"/><path d="M571.294,111.589c-13.8-96-162.36-75.59995-239.16-51.36-41.04,12.96-67.92,26.16-67.92,26.16,139.2-49.8,236.88-14.28,236.88-14.28-46.32-3.24-89.64,11.76-89.64,11.76s46.68,9.36,52.8,52.68c8.16,57.12-40.44,122.64-190.56,170.04-81.72,25.8-150.6,29.88-150.6,29.88s97.08,14.28,243.6-31.92C502.294,261.70906,582.934,192.589,571.294,111.589Z" fill="#ce1126"/><path d="M297.694,234.589c41.64-13.2,77.04-32.76,96-51.48,10.56-10.32,16.08-20.4,14.88-29.04a15.5172,15.5172,0,0,0-4.2-8.52c-14.52-15.72-63.24-15.6-119.16,2.04-64.56,20.52-114.24,56.52-110.76,80.4C177.814,252.10905,233.014,254.86906,297.694,234.589Z" fill="#ce1126"/><path d="M292.05405,208.429c27-8.52,47.88-22.92,46.56-32.28-1.32-9.24-24.36-9.72-51.36-1.32-26.88,8.64-47.76,22.92-46.44,32.28C242.13405,216.349,265.174,216.949,292.05405,208.429Z" fill="#111"/><path d="M94.05406,285.58906c46.2,3.24,89.64-11.64,89.64-11.64s-46.68-9.48-52.92-52.8c-8.16-57.12,40.56-122.64,190.56-170.04,81.84-25.8,150.6-29.88,150.6-29.88s-97.08-14.28-243.6,31.92c-135.6,42.96-216.12,111.96-204.6,192.96,13.8,96,162.36,75.6,239.16,51.36,41.04-12.96,68.04-26.16,68.04-26.16C191.614,321.22908,94.05406,285.58906,94.05406,285.58906Z" fill="#111"/><path d="M276.45408,111.709c-51.48,16.2-78.36,36.84-87.72,58.44l-18.72,43.32s22.8-40.68,114.72-69.72c69.24-21.96,111.6-16.32,119.64,1.8a16.73142,16.73142,0,0,1,4.2,8.64c1.2,8.52-4.32,18.6-14.88,28.92-17.4,24.36-50.52,50.64-79.56,68.4,23.16-7.32,127.56-56.76,120-109.56C427.05405,92.869,366.09406,83.38905,276.45408,111.709Z" fill="#111"/></svg>