<svg id="Layer_1" data-name="Layer 1" xmlns="http://www.w3.org/2000/svg" xmlns:xlink="http://www.w3.org/1999/xlink" viewBox="0 0 594.96002 486.11998"><defs><clipPath id="clip-path"><rect width="595.08002" height="487.31998" fill="none"/></clipPath></defs><title>Colorado Avalanche logo</title><g clip-path="url(#clip-path)"><path d="M594.72,396.6l-12.48,22.56c-29.28,45-75.36,64.68-119.28,66.36-43.8,1.68-56.16-16.8-66.84-24.72-10.8-7.92-25.92-44.4-25.92-44.4l.24-9.96c-8.4,3.36-16.92,6.6-25.56,9.6a493.362,493.362,0,0,1-113.64,25.2l-9,22.92S62.4,473.76,0,486.12l49.8-82.56c-15.84-12.6-27.6-28.08-33.84-46.2-28.92-83.76,66.48-192.96,214.2-246.84L297.6,0l30.36,47.28c43.32,7.8,50.64,33.48,50.64,33.48,93.72-3,168.48,27.72,188.52,85.68,12.6,36.6,1.44,78.12-27.48,117.84,0,0,53.88,33,55.32,111Z" fill="#236192"/></g><path d="M456.12,250.31995l-76.2-121.56c3.72-6.72,3.72-19.8,3.72-19.8,82.8,5.16,146.04,38.28,159,91.08,6,24.72.24,50.88-15,76.08C527.64,276.12,500.64,257.88,456.12,250.31995Z" fill="#fff"/><path d="M561.84,366.47992c-6.12006,8.52-12.6,16.32-12.6,16.32a128.70732,128.70732,0,0,1-8.64,9.6l-2.64,32.04-5.16-.72c-1.44-3.12-7.68-12.96-10.2-15.24-35.4,26.76-71.16,29.4-71.16,29.4-40.44,7.56-66.72-8.4-66.72-8.4,4.8,12,17.88,27.36,17.88,27.36,19.2,23.28,52.2,22.08,52.2,22.08,91.44-1.8,127.2-71.28,127.2-71.28l-6.12-.24C575.52,393.47992,563.64,369.83994,561.84,366.47992Z" fill="#111"/><path d="M483.96,449.16c-18,5.28-65.88,16.2-88.08-8.76,0,0,27.12,22.56,92.88.72Z" fill="#a2aaad"/><path d="M498.84,454.44c-65.88,21.84-93-.72-93-.72,27.72,31.08,95.04,6.48,95.04,6.48,10.32-3.12,20.76-9,26.64-12.72l3.48-8.88C522.24,446.4,498.84,454.44,498.84,454.44Z" fill="#a2aaad"/><path d="M195.72,150.72c-55.92,35.88-96.24,81-103.56,154.2a77.06572,77.06572,0,0,1,6-5.04c.24,20.28,12,68.04,69.48,70.32C225,372.48,250.92,355.08,270,351.6c19.2-3.36,57.48-7.8,88.92-3.36,31.56,4.56,88.56,17.16,108.96,70.44-12.72,4.44-39.12,8.4-53.88,6.72-14.52-1.8-32.64-8.52-34.8-25.44-1.2,19.2,14.04,28.68,30.96,30.48,16.92,1.68,36.48.12,63-6.48,5.64-7.68,5.64-18.84,5.88-24.24,5.88,4.2,10.44,12.12,11.52,15.96,5.04-7.8-1.32-25.32-4.8-32.64,7.68,5.16,17.4,21,18.12,24.84l4.08-5.04c-.48-9.6-17.16-33.84-20.64-38.28l-14.52,9.12c-17.76-24.96-44.16-39.48-69.48-46.8s-55.92-11.16-90.48-9c19.56-9,64.56-12.96,91.08-6.84,26.4,6.24,50.16,15.96,74.88,45.36l13.2-9c13.68,12,41.16,51.6,45.96,77.04l2.4-.36s1.2-49.92-.36-68.04c4.08,3.36,9.48,8.76,10.8,11.52,4.56-5.88,1.2-21.6-.24-27.96,8.28,8.64,27.36,37.32,31.32,67.8,3.11993-10.44,2.04-21.72,1.68-25.8s-2.64-14.64-9.36-31.92c-6.84-17.28-15.84-37.08-38.28-55.8-22.56-18.84-48.72-35.64-97.2-38.28-41.28-2.28-103.44,21-120,27.72s-61.2,26.28-91.56,30.72c-30.36,4.56-45.96,6.36-55.92-4.32l-3,4.68c-12.72-4.08-27.36-25.08-29.16-39-1.92-13.8-3.36-28.44,11.28-59.52C165,184.68,189.72,158.16,195.72,150.72Z" fill="#fff"/><path d="M134.16,221.75995c-11.16,19.56-27,62.76-12.36,92.04s58.92,33,87,27.36c28.2-5.64,61.92-18.36,76.2-24.36s42.72-19.2,73.32-24.24c30.72-5.04,54-4.2,78.48,7.32s39.24,19.32,59.76,40.8l8.28-4.32,17.04,17.88,3.6-27.12L535.8,311.4c-3.84-10.08-23.64-39.12-64.2-45.36,12.48,5.4,38.16,15.6,54.59995,45l-7.31995,12.72-.96,13.32-11.76-12.84-6.36,3.96c-9.24-11.76-30.24-29.76-60.24-38.4s-66.72-10.92-101.28-1.56a354.62851,354.62851,0,0,0-54.72,19.56c-8.28,3.72-22.92,10.92-42.36,16.56-19.56,5.52-39,9.72-62.64,6.36s-44.28-14.64-49.92-40.92S126.6,251.28,134.16,221.75995Z" fill="#236192"/><path d="M248.04,396.11993l-6.72,18c26.4,1.08,86.88-10.68,123.48-23.4C349.92,382.08,311.64,374.15994,248.04,396.11993Z" fill="#fff"/><path d="M152.04,253.55994l145.8-237.6L445.8,249.24c-9.24-1.08-25.44,0-33.24,1.32-7.92,1.32-25.56,5.04-30.36,6.36-4.92,1.32-30,8.52-38.52,11.28-8.4,2.76-32.4,11.28-39.96,14.04-7.44,2.88-26.28,10.68-33.36,13.2-7.08,2.4-20.76,7.08-34.68,9.84-13.92,2.88-27,5.52-40.68,4.2s-20.76-5.4-26.88-10.92A50.64046,50.64046,0,0,1,153.6,271.2C151.68,260.27994,151.92,256.08,152.04,253.55994Z" fill="#a2aaad"/><path d="M200.16,302.16c35.76,4.44,115.08-32.52,115.08-32.52,73.32-28.32,97.68-25.56,97.68-25.56-27-10.2-95.52,17.88-95.52,17.88l-18.48-59.28-29.76,79.2C217.32,300.84,200.16,302.16,200.16,302.16Zm97.8-270.48L435.48,248.76a164.57717,164.57717,0,0,0-22.92,1.8c-7.92,1.32-25.56,5.04-30.36,6.36-4.92,1.32-30,8.52-38.52,11.28-8.4,2.76-32.4,11.28-39.84,14.04-7.56,2.88-26.4,10.68-33.48,13.2-7.08,2.4-20.76,7.08-34.68,9.84-13.92,2.88-27,5.52-40.68,4.2s-20.76-5.28-26.88-10.92A51.4435,51.4435,0,0,1,153.6,271.2c-.24-1.08-.36-2.04-.48-3Z" fill="#6f263d"/><polygon points="279.6 277.08 309 264.96 297.72 229.2 279.6 277.08" fill="#236192"/><path d="M70.8,369.72c-14.88-13.08-25.2-28.8-29.64-46.68-16.2-66.36,52.32-141.96,159.12-183.72,0,0-82.92,37.56-118.2,119.28-16.56,38.4-8.28,78.84.36,92.64Z" fill="#fff"/><path d="M204.48,139.8l2.52-3.96c-19.68,8.52-46.44,27.36-55.2,34.32-8.64,7.08-25.56,21.36-37.32,35.4A218.3113,218.3113,0,0,0,84.6,252.6c-7.08,15.48-11.52,30.36-12.6,56.28-1.2,25.92,15.12,50.88,15.12,50.88L15.96,475.68s21.36-3.36,27.36-4.2c5.88-.84,29.16-3.6,39-4.8,9.96-1.08,42.48-4.2,55.2-5.04,12.6-.84,48.96-3.96,78.72-5.04l26.16-68.88c11.64-2.88,19.44-7.08,38.88-11.04s39.12-5.28,69.72-.24c30.72,5.04,60,22.8,66.48,28.68-7.32-12.72-22.8-24.48-47.52-32.64-24.84-8.16-51.84-8.16-66.48-7.56-14.64.48-38.28,5.88-51.12,9.48-12.96,3.72-25.68,9.6-41.4,12.96s-30.96,5.88-46.44,4.56c-15.48-1.44-38.52-3.12-59.64-23.64C83.76,347.64,78.72,323.16,81,294.84c2.16-28.44,22.2-67.56,45.84-94.2C150.36,173.88,187.8,147.96,204.48,139.8Z" fill="#a2aaad"/><path d="M233.28,389.87994l-22.2,58.56c-103.8,6.12-177.96,16.08-177.96,16.08L92.76,367.2c5.04,7.32,19.44,20.76,36,26.64s27.36,7.32,42.72,6.48C186.96,399.47995,206.28,397.2,233.28,389.87994Z" fill="#6f263d"/><path d="M373.8,116.87994C388.92,46.56,297.48,45.72,297.48,45.72l-4.2,20.04-14.04,4.32-8.64,31.44-11.28,9.24-16.56,27C242.64,137.75995,347.04,59.87994,373.8,116.87994Z" fill="#fff"/><path d="M284.16,91.68,285.6,85.92s53.76-17.64,76.44,3.96C362.04,89.88,338.28,71.52,284.16,91.68Z" fill="#236192"/><path d="M266.64,110.4s76.32-49.08,105.12-2.52c0,0-15.84-41.88-110.64,11.16Z" fill="#a2aaad"/></svg>