<svg id="Layer_1" data-name="Layer 1" xmlns="http://www.w3.org/2000/svg" viewBox="0 0 594.95996 514.55997"><title>Columbus Blue Jackets logo</title><path d="M479.16,369.96l115.8-266.4s-83.76,49.68-179.4,87.48L579.96,68.88,476.4,86.64C461.64,77.76,410.16,51.12,327,51.12c0,0-7.32.24-13.56.36-3-9-17.52-51.48-17.52-51.48L269.4,54.96C117.96,74.4,0,163.92,0,260.52c0,43.2,18.48,99.96,103.68,130.68L60.72,497.52l113.76-89.76a599.00253,599.00253,0,0,0,80.88,5.04,652.93006,652.93006,0,0,0,100.2-7.68L480,514.56,437.52,386.28S462.6,378.12,479.16,369.96Z" fill="#a4a9ad"/><path d="M573.6,127.67993s-97.56,56.76-206.28,94.32l-3.84-10.56L549.96,82.2,342.72,135.24l115.92-46.8S409.56,61.08,327,61.08c-6.84,0-13.8.12-20.64.48l-12-35.28-64.44,133.8-98.52,27.96,91.44-37.44,30-61.08,6.24-12.84,5.4-11.04c-137.52,19.68-254.52,101.64-254.52,194.88,0,52.32,28.8,100.2,107.52,124.8l-40.68,88.68,94.8-76.8c24.48,3.6,52.32,5.52,83.76,5.52a657.31037,657.31037,0,0,0,103.32-8.04l105.12,93.36L424.44,379.92c30.6-9,47.04-17.28,47.04-17.28Z" fill="#002654"/><path d="M313.08,337.07993c-44.52-8.4-71.16-17.04-71.16-17.04s20.52-7.92,50.88-21.84c27.12-12.48,62.04-29.64,97.2-50.28,28.2-16.44,56.52-35.04,81-55.2,0,0-142.44,77.76-260.64,77.76-79.44,0-116.16-36.96-116.16-61.56,0-73.68,129.6-111.72,158.64-119.4l6.24-12.84c-124.56,24.6-170.88,73.44-170.88,73.44s-41.64,25.2-57.48,72a115.58992,115.58992,0,0,0-5.88,36.12c0,56.28,36.84,129.96,225.96,129.96,134.28,0,205.68-35.64,205.68-35.64-21.84-.6-43.68-2.04-65.4-4.2C364.92,345.71994,338.88,341.87994,313.08,337.07993Zm111.6-249.48s-39-18.96-115.08-16.56l3.48,10.32C321.48,80.4,367.32,76.08,424.68,87.59991Z" fill="#ce1126"/><path d="M178.32,252.71994l8.04-17.76-47.52-13.08S125.28,245.99991,178.32,252.71994Z" fill="#a4a9ad"/><path d="M136.8,391.31992a12.50085,12.50085,0,0,0-3.36-.84c-.96-.12-1.92-.24-3-.36l-19.08,38.28,35.88-26.76C144.96,397.43991,142.32,393.23993,136.8,391.31992Zm272.52-2.04c-4.08,1.56-7.32,3-10.08,5.16a19.096,19.096,0,0,0-6,9.24c-.48,1.56-.84,3.36-1.32,5.16l35.16,27.84Zm59.64-268.68-151.56,36.72-26.64-83.4-42.24,100.92-115.08,28.8,80.52,19.68-15.48,30.84,4.32.12c1.92,0,3.84.12,6,.12,5.52,0,11.16-.24,16.8-.6a375.6969,375.6969,0,0,0,43.44-5.28c11.28-2.04,22.68-4.56,34.2-7.44,15.12-3.72,30.36-8.16,45.48-12.96l-8.76-23.16,129.12-84.36Z" fill="#a4a9ad"/><path d="M186.36,311.87994A432.00773,432.00773,0,0,0,292.8,298.2c27.12-12.48,62.04-29.64,97.2-50.16-29.52,11.16-122.76,44.4-188.88,44.4-100.2,0-131.64-58.08-131.64-90.84,0-29.28,18.84-51.48,18.84-51.48s-34.68,24.12-34.68,64.32C53.64,280.68,119.64,311.87994,186.36,311.87994Z" fill="#fff"/><path d="M459.36,263.27991c-6-12.72-23.64-15-39.48-4.92-15.72,9.96-23.64,28.32-17.64,41.04,6.12,12.72,23.64,14.88,39.48,4.92,15.84-10.08,23.64-28.32,17.76-41.04ZM225,342.8399c-186.36,0-194.64-99.24-194.28-120.72a115.59012,115.59012,0,0,0-5.88,36.12s1.92,109.8,214.8,109.8c69.24,0,131.64-14.64,151.44-19.68-26.16-2.64-52.2-6.48-78-11.28C298.32,339.35992,268.92,342.8399,225,342.8399Z" fill="#fff"/><path d="M444.36,133.43994l-175.32,53.28s64.44,14.04,66.36,14.28C337.44,201.24,444.36,133.43994,444.36,133.43994ZM290.76,88.08l-21.72,98.64,42.6-27.72Zm122.16,233.76-4.32,5.28-6.72.72,4.08,2.4-4.32,5.28,7.2-3.6,4.92,3.6-.72-5.76,6.6-3.6-6.72.48Zm79.44-79.2-.24-6.36-5.64,7.08-9,1.08,5.52,3.12-5.52,7.2,9.48-4.92,6.6,4.68-1.2-7.8,8.88-5.04Zm-14.76,41.64-.12-5.88-5.28,6.48-8.28,1.08,5.16,2.76-5.16,6.6,8.76-4.56,6.12,4.32-1.08-7.08,8.04-4.68Zm-17.16,42.24v-6.48l-5.88,7.08-9,.96,5.52,3.12-5.76,7.08,9.6-4.68,6.48,4.8-.84-7.8,8.88-4.92Zm57.84-133.44-10.92,1.2-.96-8.04-6.24,8.88-11.04,1.44,7.32,3.84-6.12,9.12,11.28-6.24,8.64,5.88-2.28-9.72Zm-73.8,38.04-4.32,7.8,8.88-6,7.92,4.08-2.88-7.56,8.16-5.88-9.12,1.8-1.68-6.36-4.44,7.68-9,1.92Zm-46.44,27.48-.12-5.28-4.68,5.88-7.44.96,4.56,2.52-4.56,5.88,7.8-4.08,5.52,3.96-.96-6.48,7.2-4.08-7.32.84Zm-28.08,63.84v-4.2l-3.84,4.56-5.88.72,3.6,2.04-3.72,4.56,6.36-3.12,4.08,3.24-.6-5.16,5.76-3.12Zm-34.08-4.68v-4.2l-3.72,4.56-5.88.6,3.6,2.04-3.72,4.56,6.24-3,4.2,3.12-.6-5.04,5.76-3.24Zm47.52-25.8-.12-4.2-3.72,4.56-5.88.84,3.6,1.92-3.6,4.68,6.12-3.24,4.32,3-.6-4.92,5.64-3.36Zm-34.44-3.72-.12-4.56-4.08,5.04-6.48.84,4.08,2.16-4.08,5.16,6.96-3.48,4.56,3.36-.72-5.64,6.24-3.6Zm-47.28,22.44-.12-4.56-3.96,4.92-6.12.84,3.84,2.04-3.84,5.04,6.6-3.48,4.44,3.24-.84-5.28,6.12-3.48Z" fill="#fff"/><path d="M202.8,254.28c1.92,0,3.84.12,5.88.12,5.52,0,11.28-.24,16.92-.6l43.44-67.2-50.88,37.56ZM303.24,241.2l-34.2-54.6v61.92C280.56,246.48,291.96,243.96,303.24,241.2Z" fill="#fff"/><path d="M118.92,419.03995l17.88-27.72a15.3137,15.3137,0,0,0-3.36-.84Zm274.32-15.36,23.4,18.48-17.4-27.72A19.69237,19.69237,0,0,0,393.24,403.67993Zm-142.56-227.04-94.56,25.44,112.92-15.48-18.36-10.08Z" fill="#fff"/><path d="M422.28,261.95993c-12.84,8.04-19.56,23.28-15,33.84,4.44,10.56,18.48,12.6,31.32,4.44,12.84-8.04,19.56-23.28,15-33.84S434.99994,253.92,422.28,261.95993Z" fill="#ce1126"/></svg>