<svg id="Layer_1" data-name="Layer 1" xmlns="http://www.w3.org/2000/svg" viewBox="0 0 594.95997 488.87997"><title>Dallas Stars logo (2013)</title><path d="M89.28,380.4H40.56l66.36-111.24L0,183H158.52l16.92-28.56h50.28L319.08,0l15.6,155.28c26.28,2.64,47.76,12.12,62.64,27.72H594.96L407.16,283.56c-2.16,4.56-4.56,9.12-7.08,13.44-12.36,21.48-27.48,38.04-45.96,50.88l13.2,131.04L244.44,379.8c-5.88.36-12,.6-18,.6L23.76,488.88Z" fill="#006847"/><path d="M107.4,370.08H58.56l61.8-103.32L29.04,193.2H164.28l17.04-28.44h50.16l80.4-133.2,13.44,133.32c29.64,1.32,52.92,11.04,67.44,28.32H554.04L399.12,276.12a163.5274,163.5274,0,0,1-8.04,15.84c-12.72,21.84-28.44,38.52-47.88,50.88l11.4,112.68L247.68,369.36c-7.68.48-15.72.72-24,.72L51.84,462.12Z" fill="#111"/><path d="M472.32,213.72H381.96c-9.6-17.76-31.68-28.44-63.24-28.44H306.84L297.72,94.8l-54.6,90.48H192.96l-17.04,28.44H87.12l60,48.24L94.8,349.56h85.8l-43.92,11.88L108,408.84l110.64-59.28h4.56c11.16,0,21.48-.48,31.08-1.2l75,60.48-6.6-63c-20.28,2.16-39.84.48-48.96.24,52.8-8.52,80.52-31.56,99.72-64.44,13.08-22.32,16.68-42.48,12.36-58.32a56.1179,56.1179,0,0,1,12.84,30.24Z" fill="#fff"/><path d="M392.64,233.64a53.64745,53.64745,0,0,1,6,19.92l73.68-39.84Zm-10.68-19.92-31.44,15.36c2.04,5.4,4.92,18.12-2.88,37.08-8.88,21.72-35.4,60-107.88,60H142.68L94.8,349.56h85.8l-11.04,3L108,408.72l110.64-59.16h4.56c11.16,0,21.48-.48,31.08-1.2l19.44-2.4c52.8-8.4,80.52-31.44,99.72-64.32,13.08-22.44,16.68-42.48,12.36-58.44A67.86323,67.86323,0,0,0,381.96,213.72Zm-174.12,15.6h74.28c21.36,0,34.2,3.96,37.44,14.88l30.96-15.12c-8.4-19.68-32.52-21.84-47.64-21.84H213.72l-.12-.12L142.68,326.16l48-23.52,35.76-58.44ZM162,237,87.12,213.72l60,48.24ZM297.72,94.8l-21.48,90.36h30.6Zm24.96,250.92,6.6,63L296.52,346.8A197.9452,197.9452,0,0,0,322.68,345.72Z" fill="#8f8f8c"/><path d="M282.12,229.31995H207.84l18.6,14.88-35.76,58.44h49.2c16.44,0,35.28-.6,51.12-9.84,19.8-11.76,31.68-32.28,28.92-46.68C317.64,233.64,304.68,229.31995,282.12,229.31995Z" fill="#111"/></svg>