<svg id="Layer_1" data-name="Layer 1" xmlns="http://www.w3.org/2000/svg" viewBox="0 0 594.95996 440.66265"><title>Detroit Red Wings logo</title><path d="M545.64,134.42263c25.08-21.36,49.31995-55.8,49.31995-95.28a5.50285,5.50285,0,0,0-9.84-3.48c-25.8,35.16-50.04,48.6-64.8,53.64,24.48-18.48,48.36-48.72,54.6-82.92a5.53388,5.53388,0,0,0-9.36-4.8c-29.88,29.88-71.04,61.8-181.68,61.8-26.64,0-57.24-.84-77.04-.84-89.76,0-122.76,55.56-130.2,71.03995a155.27164,155.27164,0,0,0-22.32-1.68c-85.2,0-154.32,69.24-154.32,154.32,0,85.2,69.12,154.44,154.32,154.44,62.64,0,117.96-37.08,142.2-94.56a37.57188,37.57188,0,0,0,5.04.48c19.56,0,23.64-5.64,23.64-10.56,0-2.52-2.52-5.64-3.84-7.44,28.68-.24,37.2-1.56,49.56-5.88a4.50147,4.50147,0,0,0,3.24-4.44c0-4.2-8.76-11.28-15-16.68,40.08-.72,69.72-7.92,69.72-17.28,0-1.8-.24-4.08-10.92-12.48,22.68-6.24,62.52-21.48,62.52-31.44,0-3.84-3.36-6.12-7.32-8.88,35.28-13.32,64.92-36.72,64.92-45.12,0-6.72-9.96-7.32-14.87994-7.68,17.52-11.28,42-30.48,42-38.76C565.2,131.42263,551.76,134.78264,545.64,134.42263Z" fill="#ce1126"/><path d="M535.32,136.58263c28.2-21,54.84-57.36,54.84-97.44a.71507.71507,0,0,0-1.2-.6c-43.44,59.28-82.92,58.68-82.92,58.68-1.68,0-2.04-2.4-.72-3.36,28.08-16.56006,58.08-50.52,64.8-88.32.12-.48-.6-1.08-1.08-.6-31.92,31.92-75.72,63.24-185.16,63.24-34.92,0-53.28-.72-77.04-.72-94.68,0-123.84,63-127.32,71.28a149.63059,149.63059,0,1,0,114,202.32,49.51672,49.51672,0,0,0,8.04.84c15.24,0,18.96-3.48,18.96-5.88,0-1.56-9.84-12.24-4.92-12.24,33.72,0,41.28-1.2,53.76-5.52-6-9.24-27.48-21.36-16.44-21.36,53.64,0,71.16-10.32,71.16-12.48,0-2.64-17.04-14.88-17.04-14.88,24.6-4.08,68.64-23.88,68.64-29.04,0-3.12-12.48-8.28-10.44-11.16,39-12.96,68.16-38.28,68.16-42.84,0-3.72-22.92-3.36-22.92-3.36v-2.4c19.8-10.32,50.04-35.28,50.04-40.68C560.52,136.46263,532.08,142.34264,535.32,136.58263Z" fill="#fff"/><path d="M85.8,241.94264l21.72,22.08a52.23363,52.23363,0,0,1,18.36-21.12l-24.72-18.47995a86.334,86.334,0,0,0-15.36,17.64Zm-12.24,33.12,31.44-4.56c.12-.48.36-.96.48-1.56l-22.2-22.68a79.35746,79.35746,0,0,0-9.72,28.92Zm-.84,11.16a89.46516,89.46516,0,0,0,1.8,17.16l30.96.24a53.57006,53.57006,0,0,1-3-17.4,51.69559,51.69559,0,0,1,1.08-10.56l-30.6,4.44C72.84,282.14263,72.72,284.18264,72.72,286.22261Zm121.56-71.04a81.86933,81.86933,0,0,0-28.8-9.72l4.56,31.44a5.94214,5.94214,0,0,1,1.56.48Zm24.24,121.32a147.0174,147.0174,0,0,1-25.2-16.08,51.78451,51.78451,0,0,1-10.68,9.11993l24.84,18.48A83.55645,83.55645,0,0,0,218.52,336.50264Zm-53.64-100.92-4.44-30.6a52.19357,52.19357,0,0,0-6.12-.24,80.8365,80.8365,0,0,0-17.16,1.8l-.24,30.84a57.60963,57.60963,0,0,1,17.4-3A50.8399,50.8399,0,0,1,164.88,235.58266Zm-34.32,4.68a8.065,8.065,0,0,1,1.44-.72l.36-31.8a79.51625,79.51625,0,0,0-27.24,13.56Zm69-15.48c0-2.16,0-4.2-.12-6.36a3.64593,3.64593,0,0,0-.84-.6l-22.08,21.6a54.0655,54.0655,0,0,1,16.92,12.84C196.8,243.26265,199.56,233.30263,199.56,224.78264Zm-55.8,112.2,4.44,30.6c2.04.12,4.08.24,6.12.24a79.71635,79.71635,0,0,0,17.04-1.8l.36-30.96a52.48353,52.48353,0,0,1-17.4,3A51.69387,51.69387,0,0,1,143.76,336.98262Zm-34.32-62.16a46.38231,46.38231,0,0,0,1.92,28.8l1.68.12,10.32-13.92c-.12-.96-.12-1.92-.24-2.88l-12.12-12.36Zm7.56-1.08,6.72,6.72a34.09311,34.09311,0,0,1,2.64-8.16Zm14.88-9,.12-17.28-1.44-1.08a46.72035,46.72035,0,0,0-18.96,21.84l1.2,1.2,17.04-2.52005C130.56,266.18264,131.16,265.34264,131.88,264.74266Zm.84,44.04-17.28-.12-.96,1.32a47.0105,47.0105,0,0,0,21.72,18.96l1.32-1.2L135,310.70262C134.16,310.10265,133.44,309.38262,132.72,308.78264Zm-4.2-4.92a38.282,38.282,0,0,1-3.84-7.68l-5.64,7.56Zm48.12,29.16-.36,31.8a82.86154,82.86154,0,0,0,27.24-13.56l-25.44-18.96Q177.36,332.66262,176.64,333.02266Zm-34.8-9.48,6.72-6.72a30.9523,30.9523,0,0,1-8.16-2.64Zm29.88,3.96-13.8-10.32a23.37809,23.37809,0,0,1-3,.24005l-12.24,12.11993.24,1.68a44.97528,44.97528,0,0,0,11.4,1.44006,45.86689,45.86689,0,0,0,17.4-3.36Zm-63.36-17.4c-.36-.6-.6-1.08-.84-1.56l-31.68-.24a80.59694,80.59694,0,0,0,13.56,27.24Zm28.32-49.56a28.77749,28.77749,0,0,1,7.68-3.84l-7.56-5.64Zm43.2,44.88-1.2.12a17.54663,17.54663,0,0,1-1.92,2.28l-.12,17.28,1.32.96a43.26037,43.26037,0,0,0,11.16-9.24C184.56,312.74269,181.2,308.78264,179.88,305.42266Zm-41.28,30.24c-.48-.24-1.08-.36-1.56-.6l-22.68,22.32a81.66517,81.66517,0,0,0,28.8,9.6ZM180,268.70262a28.38774,28.38774,0,0,1,3.12,5.64c.72-1.32,1.68-3.24,2.88-5.64Zm-69.96,86.04007,22.08-21.72a51.35526,51.35526,0,0,1-21.12-18.36l-18.48,24.72A85.66311,85.66311,0,0,0,110.04,354.74269Zm61.8-42.72a34.46777,34.46777,0,0,1-7.56,3.84l7.56,5.64Zm-5.04-63-6.72,6.6a36.29863,36.29863,0,0,1,8.16,2.76Zm-29.88-4.08,13.8,10.32a24.09449,24.09449,0,0,1,3-.12l12.24-12.12-.24-1.68a46.38147,46.38147,0,0,0-28.8,1.92Zm54.12,13.08a47.40983,47.40983,0,0,0-18.72-14.52l-1.2,1.2,2.52,17.16a17.54525,17.54525,0,0,1,2.28,1.92l12.48.12C189.24,261.98262,190.2,260.06261,191.04,258.02263Z" fill="#ce1126"/><path d="M171.12,286.22261a16.8,16.8,0,1,1-16.8-16.8A16.87514,16.87514,0,0,1,171.12,286.22261Z" fill="#ce1126"/><path d="M154.32,185.42263a100.86,100.86,0,1,0,82.32,159.12c-3.84-1.44-7.68-3-11.52-4.8a88.65871,88.65871,0,1,1-25.92-130.08,105.1921,105.1921,0,0,1,.24-13.68A100.0973,100.0973,0,0,0,154.32,185.42263Z" fill="#ce1126"/><path d="M323.4,90.86269h76.2c97.44,0,140.04-34.8,156.84-65.64.96-1.8-.24-2.28-2.04-.6-21.24005,19.08-52.8,52.31995-182.04,52.31995H317.88c-85.68,0-117.96,38.64-126.36,64.32a117.83544,117.83544,0,0,1,12.6,3.96C219.36,117.74269,248.4,90.86269,323.4,90.86269Zm-293.88,142.44c3.24,2.64.6,7.2,2.88,10.44a129.17983,129.17983,0,0,1,173.64-75.72c1.2-2.76,2.52-5.64,4.08-8.64a138.80565,138.80565,0,0,0-184.32,75.12C27,235.22264,28.2,232.10268,29.52,233.30266Zm236.88,115.08c-6.48,1.56-14.88.6-23.88-2.04a106.67487,106.67487,0,0,1-194.88-60c0-1.92,0-3.84.12-5.64-3.24,4.92-2.28,13.2-8.16,13.2-4.68,0-2.04-6.36-5.52-6.36-2.04,0-2.4,3-4.92,3-.36,0-.6-.12-.84-.12-.6,0-.84,1.2-1.92,1.2-1.32,0-2.28-1.68-3.36-1.68-1.2,0-1.68,2.4-3.24,2.4-1.68,0-3.24-2.76-3.96-4.08a138.54007,138.54007,0,0,0,266.88,50.16,188.03185,188.03185,0,0,1-30.36-12.6C253.2,335.06267,266.4,348.38265,266.4,348.38265Z" fill="#ce1126"/><path d="M321.72,110.54262c-76.32,0-120.24,52.44-115.2,102.48,3.72,37.32-17.16,67.56-17.16,67.56s29.16-13.2,29.16-66.24c0-50.4,50.04-87,92.28-87,40.8,0,88.08.24,111.6.24,124.44,0,154.56-57.48,158.88-68.76.72-1.68-.36-1.32-.72-.48-26.04,35.04-62.4,55.08-161.16,55.08-63.48,0-83.52-2.88-97.8-2.88Z" fill="#ce1126"/><path d="M217.32,260.18264c5.64,3,33.36-.96,47.76-9.96-14.76-12.6-38.52-17.04-38.52-17.04C223.32,242.06264,219.84,251.06264,217.32,260.18264Zm113.4-109.8c-1.68-6.6-9.72-7.92-15.24-11.04-2.16-1.32-4.68-.72-7.2.36-5.4,2.4-12.48-1.56-18,2.4-1.68,1.2-2.52,3.36-4.56,3.84a55.56515,55.56515,0,0,1-7.8,1.2c-.96.12-2.76.72-2.64,1.8.6,4.68-3.72,5.64-7.2,6.84-3.36,1.2-2.16,5.64-2.28,8.88C288.12,164.90264,311.16,161.78264,330.72,150.38265Zm-72.72,19.56c-1.08.12-1.8,1.8-2.64,3-1.92,2.76-8.04,2.16-8.04,5.28.12,5.64-6.24,6.72-7.32,10.8-.72,3.24-2.52,5.64-2.76,9.12,22.8.12,46.32-1.32,66.6-12.96C309.12,182.78264,276,167.30263,258,169.94264Zm-29.4,52.44c.36,2.88-.36,7.56.24,7.56a120.10412,120.10412,0,0,0,63.24-10.56c5.64-2.4-21.6-16.56-44.16-16.56a25.43852,25.43852,0,0,0-12.36,3.12c-1.32.72-2.28,3.72-3.84,5.88-1.08,1.68,1.08,4.2.24,5.28C230.28,219.14263,228.24,220.34264,228.6,222.38265Zm121.44-68.28c-20.52,0-22.56,5.76-22.56,5.76-.72.84-.36,2.76-1.8,3.24-4.68,1.8-9.96-2.04-13.92,3.24-2.52,3.12-8.4-.72-12.24,1.44-.84.48,0,2.76.6,3,1.8.84,4.8.6,6,1.44,1.2.96.96,2.4,2.16,3.24,1.32.96,3.84,1.44,5.04,3,.84,1.2,1.2,3.6,2.4,3.6,30.96,1.8,62.64,1.8,92.04-9.6C411,167.30263,378.96,154.10262,350.04,154.10262Z" fill="#ce1126"/><path d="M531.96,109.46266c-.84009.48-.6,3.48-2.4,4.32-3,1.44-6.6,1.44-9.84,2.4-1.2.36-1.2,2.04-2.28,2.76-1.68,1.08-4.08.12-5.28,1.08-7.92,5.76-17.4,3.24-26.16,4.68.12,6.6-10.32,2.52-14.64,5.4-4.68,3.24-3.96,2.28-11.04,2.4-2.04,0-.96,3.24-2.64,3.24-5.64.12-12.72-1.68-16.92-.48-.72.24-.96,3.72-2.4,4.08-3,.84-6.24,1.2-9.12,2.16-2.28.72.6,4.92-2.28,5.88-5.16,1.56-10.8.36-15.84006,3.36-2.04,1.08-5.04,0-7.56.48-2.28.48-3.12,2.76-1.32,3.84,1.68.84,4.44.6,6,1.44,3.84,1.92,6.84,4.56,10.92,4.8,66.24,4.08,151.8-42.96,165.24-99.96.48-2.28-.6-1.8-1.08-.6C569.04,94.94264,531.96,109.46266,531.96,109.46266Zm15.47992,36.72c-.6-.24-7.92-1.56-12-.6-.84.24-1.43994,1.56-2.28,1.8-5.16.84-8.88,3.36-14.28,3.48a18.43662,18.43662,0,0,0-4.92,1.44c-2.04.96-4.68005-1.32-6.24.36-.96,1.08.72,3.84-.96,4.68-4.68,2.16-10.2-1.8-14.76,1.2-1.32.84,1.44,3.72-.24,4.32-6.6,2.04-18-8.16-22.2,2.4-.72,1.68-2.76.96-4.08.6-1.2-.36-3-.96-3.72-.24-4.08,3.24-6.36,4.56-12,2.88-1.44-.36-1.56,3.96-4.32,3.24-3.12-.72-6.24-3.12-9.12-1.8-1.32.6-.36,4.2-2.28,4.32-7.92.84-16.08-.36-23.4,2.88-1.68.84-1.92,4.08-4.44,4.44-5.52.96-11.04.36-16.2,2.04-.84.24-.72,2.64.6,2.88,3.24.48,7.08,0,9.6,1.44,3.12,1.92,5.16,7.2,8.16,7.32,62.64,1.2,107.88-21.24,138.96-47.16C548.64,147.02263,548.04,146.66265,547.43994,146.18264ZM496.8,192.14263c-2.52.84-6-1.56-8.16,0-3.24,2.4-7.08,1.92-10.32,1.56-1.56-.12-4.08-.72-5.52.36-.84.72.48,1.92,1.31995,2.64-8.4,2.88-17.64.24-25.56,3.36-.6.36-.96,3.24-2.4,3.48-7.32,1.44-14.04-1.32-21.24,0-1.8.24-1.08,4.2-2.88,4.2a173.10822,173.10822,0,0,1-19.32-.48c-7.68-.36-14.76,2.52-21.96,4.68-2.16.72-2.88,4.08-5.16,4.44-6.24.96-12.6-.12-18.36,2.76-.36.12-.36,2.04,0,2.28,6.96,3.96,15,6.72,19.8,13.08,48.84-.48,101.28-6.84,141.84-40.2.84-.6-3.96-1.56-6.6-2.28-2.52-.48-4.56-.48-7.56-1.56C501.96,189.62264,499.44,191.18264,496.8,192.14263Zm-45.24,45.12c-4.08,1.92-8.76-.24-13.2.84-1.08.24-.24,1.92-1.44,2.16-4.32.6-8.88-.6-12.96,1.08-3.12,1.2-7.08-.24-10.56-.12-1.32,0-1.32,1.8-1.56,3.24a2.67636,2.67636,0,0,1-2.64,1.8c-4.32-1.32-8.52-1.68-12.84-2.4-11.16-1.56-22.2-5.16-32.64-2.04-3.36,1.08-7.92,1.92-10.44,4.56-1.08,1.08-2.04,3.12-3.48,3.6-6.36,2.28-13.32,2.76-19.68,5.04-1.92.6-5.52,3.36-4.2,3.72a168.56406,168.56406,0,0,0,41.04,5.64c41.28,0,72.72-10.08,95.76-22.68C461.28,240.02263,454.56,235.82265,451.56,237.26265Zm-54.36,39.84c-3.12.84-5.4-1.32-8.04-.36-.48.24-.96,1.2-1.44,1.2-4.8,0-7.92-5.04-12.84-4.68-1.2.12-1.2,2.16-2.16,2.4-3,.72-5.64-2.88-8.4-1.56a6.74513,6.74513,0,0,1-5.04.36c-2.4-.72-4.2-2.88-6.48-3.24-2.04-.36-4.08,1.68-6.36,1.08-5.76-1.8-10.2-7.2-16.32-5.88-3.12.6-5.64-1.44-7.8-.12-2.28,1.32-3,3-5.28,4.32-1.56.96-5.28.84-6.96,1.8-1.2.84-1.56,2.76-3,3.36-2.64,1.08-5.76.36-8.4,1.68-.24.24-.48,1.68.6,1.92,23.52,7.92,61.56,16.68,107.04,4.92,1.32-.48,1.68-1.2.48-2.52C404.28,278.90261,400.92,276.02263,397.2,277.10265Zm-58.08,26.52c-1.08-.12-2.88,1.44-3.96,1.2-3.12-.48-5.52-3.36-9.36-5.28-1.56-.84-2.28,2.88-3.48,2.76-6.24-.36-15.24-6.96-20.88-10.32-.96-.6-6.84.6-7.92.84-3.48.72-8.04-5.52-10.92-6.84-2.04-1.08-5.04-2.04-7.08-.6-2.76,2.04-6,.96-9,.96-1.2-.12-2.28,2.4-3.6,2.88-4.2,1.32-8.76-1.56-12.72.48a2.23836,2.23836,0,0,0-.6,1.2c.24,2.52005,3,2.88,4.92,4.08,28.8,18.24,73.32,24.12006,98.04,18.6.6-.12-.24-2.28-1.92-3.6s-4.2-1.8-5.28-2.52C342.72,305.66265,341.4,303.98262,339.12,303.62264Zm-37.08,22.68c-2.52-.72-4.68-2.16-7.08-3.12-1.44-.6-2.76,1.68-4.32.72-3.12-1.92-5.88-4.55994-8.4-6.47992-1.92-1.68-5.88-5.64-7.56-4.8-.72.36-1.68,3.96-3.24,2.76-3.96-2.88-6.48-6-10.08-9.24-1.68-1.44-3.24,3.36-5.4,2.28-4.8-2.28-6.84-7.56-10.56-11.28-4.32-4.32-8.52-9.48-14.52-11.04-1.08-.24-.48,1.2-1.44,1.92-4.56,3.6-9.6-2.52-14.04-4.56-4.08-1.92-7.68-4.92-12.36-5.28-.96,0-.84,1.44-.48,1.92,26.16,30.96,62.52,54.24,102.48,53.28.96,0,2.88.12,1.32-1.8C305.04,330.02266,303.6,326.66268,302.04,326.30263Zm-55.2,6.24c-.84-1.68-3.12-.72-4.8-1.79993-1.2-.6-1.68-3-2.88-3.96-.84-.72-2.88.84-4.08.24-1.56-.84-2.64-2.88-3.84-4.2-1.44-1.44-2.64-3.12-3.96-4.56a14.46642,14.46642,0,0,0-4.08-3.6c-.84-.48-2.52.6-3.48.36-1.92-.6-3-3.72-4.44-5.04-.84-.72-2.16-.84-2.88-1.56-.84-.72-.96-2.04-1.8-3-1.08-1.2-2.64-1.56-3.84-2.52005-1.56-1.31995-2.64-4.56-3.96-6.36-1.2-1.8-2.88-2.04-4.08-3.6-1.44-1.92-2.28-5.28-4.08-7.32-1.8-1.92-6.24,1.2-7.56,3.96-2.28,4.44-2.16,10.08,1.2,13.92,16.8,18.72,38.64,34.32,63.6,38.4C249.96,339.26265,248.04,334.58266,246.84,332.54262Zm169.92-194.64c.84-.6.12-3.36-.6-3.48-3.36-.48-7.2-1.92-10.92,1.44-1.2,1.08-3.6-1.32-5.28-.24-1.44.84-2.76,3.12-4.08,3.72-3.6,1.56-7.08-2.16-11.04-1.68-1.08.12-.84,2.64-1.92,2.88-3.48.84-6.36-2.88-8.28-1.56-3,1.8-5.4,4.2-8.88,2.64s-7.92-4.68-10.32-2.76c-3.96,3.6-8.88-1.56-12.48-.24-3,1.2-11.04,3.12-5.52,6.36C354.6,155.30266,390.36,153.26265,416.76,137.90264Zm-36.36,64.92c2.52-1.68,5.64-1.8,7.08-4.08,3.36-4.32-28.32-11.28-41.28-11.28-12.72,0-36.36,3.12-40.32,4.56-1.68.72-1.8,4.08-3.72,4.44-3.84.36-7.56.84-11.4,1.2-1.2.12-.96,2.04-.48,2.4a11.11271,11.11271,0,0,1,4.2,6.36c.12.24,2.76,0,3.24.47995,2.52,2.16,4.32,5.16,7.32,5.88,15,3.6,29.52,4.68,44.88,1.08,1.68-.36,2.88-1.68,4.32-1.92,5.4-.72,11.04-.96,15.12-4.92C372.36,204.14263,377.04,204.98262,380.4,202.82265Zm-34.68,39c6.12-3.12,13.32-3.36,17.76-9.36-27.12-14.28-58.68-12.72-62.52-10.56-1.08.6-2.16,2.52005-3.36,3.36-1.8,1.2-3.6.6-4.8,1.8-.72.72.12,2.76-.48,3.48-.6.96-2.16,1.08-3.12,1.56-.96.6-2.88-.24-4.44.36-1.44.6-1.56,2.04-2.52,2.52-3.72,1.8-8.88-.24-11.4-.24-1.32,0-.96,2.04-.6,2.4,1.68,1.68,6.36,2.16,6.12,4.56,0,.48-1.08,2.04-1.8,2.16,2.52,5.28,25.56,12.36,56.04,2.28C335.64,244.58266,340.92,244.34264,345.72,241.82265Zm-132.6,23.64c-2.64,1.44-5.76,5.52-3.36,7.2,4.44,2.88,11.76,9.6,45.24,9.6,32.76,0,45.24-10.08,51.36-16.32,0-4.08-28.68-12.36-32.64-10.08a2.62648,2.62648,0,0,0-1.44,2.28c-1.32.48-5.28.6-6.24,1.2-2.28,1.68-1.8,4.32-2.4,4.44-5.16,1.32-11.4-1.92-16.32.36-1.2.6-1.2,4.2-2.88,4.32-3.48.24-7.32-1.92-10.68-.84a20.062,20.062,0,0,0-3.48,1.2,20.991,20.991,0,0,0-5.28-1.68c-1.68-.48-3.48.72-5.64.36C217.32,267.14263,215.04,264.38262,213.12,265.46263Z" fill="#ce1126"/></svg>