<svg id="Layer_1" data-name="Layer 1" xmlns="http://www.w3.org/2000/svg" viewBox="0 0 354.84 396.59998"><title>Florida Panthers 2016 logo</title><path d="M349.8,117.36c0,20.04-2.88,72.6-29.28,129.84-32.4,70.2-80.04,111.12-143.04,143.76-63.6-33-111-74.04-143.16-143.76C7.92,189.96,5.04,137.4,5.04,117.36V44.28C58.68,16.32,119.88,5.04,177.48,5.04c58.08,0,119.04,11.4,172.32,39.24Zm2.28-77.52C302.04,13.8,241.68,0,177.48,0,113.16,0,52.8,13.8,2.76,39.84L0,41.16v76.2c0,20.28,3,73.8,29.76,131.88C59.88,314.4,103.32,358.2,175.08,395.4l2.4,1.2,2.28-1.2c71.76-37.2,115.2-81,145.32-146.16,26.88-58.08,29.76-111.6,29.76-131.88V41.16Z" fill="#fff"/><path d="M173.04,152.16a14.81591,14.81591,0,0,0-2.16.24A14.81591,14.81591,0,0,1,173.04,152.16Zm-35.28,8.04,1.08,2.16Zm31.92-7.68c-.96.12-2.04.36-3.24.6C167.64,152.88,168.72,152.64,169.68,152.52Z"/><path d="M340.44,117.36c0,19.32-2.76,70.32-28.32,125.88C282.24,307.92,237,349.56,177.48,380.52c-59.28-30.84-104.76-72.36-134.64-137.28C17.16,187.68,14.4,136.68,14.4,117.36V49.92c47.16-24.6,108.84-35.52,163.08-35.52,54,0,115.8,10.92,162.96,35.52ZM5.04,44.28v73.08c0,20.04,2.88,72.6,29.28,129.84,32.16,69.72,79.56,110.76,143.16,143.76,63-32.64,110.64-73.56,143.04-143.76,26.4-57.24,29.28-109.8,29.28-129.84V44.28C296.52,16.44,235.56,5.04,177.48,5.04,119.88,5.04,58.68,16.32007,5.04,44.28Zm146.52,127.2a18.13627,18.13627,0,0,1-15.12.72s.96-1.68,1.92-3.24c1.2,1.32,4.44,2.64,6.96,1.56,2.4-.96,3.36-3.48,3.72-4.68a64.28544,64.28544,0,0,1,8.76-1.2A11.74531,11.74531,0,0,1,151.56,171.48Zm31.8-15.24c-1.2-.48-2.52-.96-3.72-1.44-3.48-1.44-6.6-2.64-6.6-2.64a14.81815,14.81815,0,0,0-2.16.24c-.36,0-.84.12-1.2.12-.96.12-2.04.36-3.24.6-5.64,1.08-14.88,3.6-27.6,9.24l-1.08-2.16-1.44-3L121.8,177.12a78.93744,78.93744,0,0,0,14.76,1.2,104.14389,104.14389,0,0,0,18.6-1.68,142.77452,142.77452,0,0,0,13.44-12.96c1.08-1.2,2.04-2.28,2.76-3.12.96-1.08,1.56-1.8,1.8-2.04C176.52,157.56,179.16,157.08,183.36,156.24Zm-5.88,211.32c8.4-4.32,16.32-9,23.88-13.79993C193.8,358.56,185.88,363.24,177.48,367.56ZM73.2,201.24c.96,1.44,2.16,3.24,3.48,5.16a43.71951,43.71951,0,0,0,5.16,5.4l4.92,14.16c-3.48,3.36-8.28,10.8-8.28,10.8A156.90318,156.90318,0,0,1,68.16,214.08Zm20.16,5.4c1.32-.96,3-2.4,4.2-3.24,0,0,6.84-.96,14.28-1.44a97.091,97.091,0,0,1,11.04-.24l4.8,5.64A47.65818,47.65818,0,0,0,117,209.64s9.48,2.64,15.96,7.08l-.36,2.52a70.53428,70.53428,0,0,0-14.04.24,73.6649,73.6649,0,0,1,12.12,7.44c-.36.96-.72,1.92-1.08,2.76a64.5378,64.5378,0,0,0-12.48-1.08,72.523,72.523,0,0,1,9.72,7.44c-1.2,2.28-2.04,3.6-2.04,3.6-14.04-4.2-31.32-12.12-35.76-14.16l-.24-13.8A33.20445,33.20445,0,0,1,93.36,206.64ZM96.84,261a36.9051,36.9051,0,0,1-11.52-16.8,20.80162,20.80162,0,0,1,3.6-11.28c15.6,11.04,39.72,20.88,39.72,20.88A120.53707,120.53707,0,0,0,96.84,261ZM26.16,129.36c2.76,54.96,25.56,154.32,119.52,219.12,12.48-6.72,20.88-18,25.92-26.88,9.84,12,10.92,28.68,10.92,28.68,10.56-49.56-35.88-87.84-35.88-87.84s33.48,16.32,56.64,42.84a41.6721,41.6721,0,0,0-.72-11.76,79.10848,79.10848,0,0,0-4.2-14.4s24.12,19.56,37.2,48.72c.24-.24.6-.48.84-.72,33.12-34.32,34.08-85.68,34.08-85.68-7.2-29.88-19.92-40.32-19.92-40.32,2.52,13.68,4.08,28.8,4.08,28.8-8.04,17.76-22.44,29.64-22.44,29.64-12.96,1.44-23.28.12-41.4-5.88a122.55468,122.55468,0,0,1-27.24-13.56,85.95939,85.95939,0,0,0-12.72.36c-5.88.6-12.84,2.16-12.84,2.16,7.8-13.68,12.36-27.72,13.2-33.96a122.59335,122.59335,0,0,0-16.8-15.12c-12.96.6-23.16,1.32-23.16,1.32l4.32-17.52s-2.88,2.4-6.24,5.76c-3.48,3.48-7.44,7.92-7.44,7.92-7.68,3.12-18.48,4.8-18.48,4.8a42.304,42.304,0,0,1-10.92-5.04c13.08-19.32,34.2-27,34.2-27-3.84-4.56-3.6-8.16-3.6-8.16,5.4-3.6,10.32-6.48,14.76-8.88a21.51344,21.51344,0,0,0-1.32,4.8,129.86462,129.86462,0,0,1,12-8.64c5.04-3.12,9.96-5.64,9.96-5.64,3.24-10.56,8.88-19.08,10.32-20.28a25.15334,25.15334,0,0,1,4.44-.36c.36,3.48,4.2,9,5.88,11.04a62.83978,62.83978,0,0,0-15.24,8.04s17.88-4.8,33.84-5.28c21.48-.72,34.8,4.08,34.8,4.08a112.74573,112.74573,0,0,1-7.68,9.6c35.64-12.12,39.36-21.36,58.68-25.44a81.49834,81.49834,0,0,1,13.44,3.36,22.80279,22.80279,0,0,1,5.64,9.84c-2.64,20.52-10.92,43.68-10.92,43.68-6.48,7.92-17.76,15.12-17.76,15.12,11.28-1.44,27.84-6.48,27.84-6.48,10.32,7.44,23.88,23.88,29.52,30.96a302.11132,302.11132,0,0,0,17.4-85.8c-4.68-2.4-63.12-30.96-151.2-30.96C89.28,98.4,30.84,126.96,26.16,129.36Zm221.52,57.36c7.68-4.32,18.12-14.04,18.12-14.04,5.52-16.32,10.2-38.28,10.2-38.28,0-2.16-2.52-5.64-2.52-5.64-2.64-1.32-8.76-2.28-8.76-2.28-8.88,1.44-20.52,10.2-29.76,17.52a97.09532,97.09532,0,0,0,13.2-1.56c-1.68,4.32-7.68,15.6-7.68,15.6,3.84.24,11.28-1.44,11.28-1.44a169.12124,169.12124,0,0,1-8.4,19.8Z" fill="#041e42"/><path d="M168.6,163.68a142.77133,142.77133,0,0,1-13.44,12.96,104.14332,104.14332,0,0,1-18.6,1.68,104.14332,104.14332,0,0,0,18.6-1.68A142.77133,142.77133,0,0,0,168.6,163.68Z" fill="#b99758"/><path d="M329.04,56.88007v60.24c-45.48-20.76-101.76-30.12-151.56-30.12-50.04,0-106.2,9.36-151.68,30.12v-60.24S85.56,25.8,177.48,25.8,329.04,56.88007,329.04,56.88007Zm-137.28,116.52c.72-3,.24-12.24.24-12.24s5.28,1.8,13.44,8.28c0,0-1.08,6-2.64,12.12l-28.44,12.96A259.69511,259.69511,0,0,0,191.76,173.40005Zm-18.6-14.88a33.70348,33.70348,0,0,1,0,3.84c-3.72,6.24-10.56,13.68-14.88,17.88a93.593,93.593,0,0,1-25.8,1.92l-10.68-5.04,14.52-19.92s19.92-7.92,36.72-4.92c0,0,3.12,1.08,6.6,2.52,1.2.48,2.52.96,3.72,1.44-4.2.84-6.84,1.32-10.2,2.28-.24.24-.84.96-1.8,2.04C172.32,159.48007,172.92,158.76,173.16,158.52005Zm67.32-.48s6-11.28,7.68-15.6a97.09642,97.09642,0,0,1-13.2,1.56c9.24-7.32,20.88-16.08,29.76-17.52,0,0,6.12.96,8.76,2.28,0,0,2.52,3.48,2.52,5.64,0,0-4.68,21.96-10.2,38.28,0,0-10.44,9.72-18.12,14.04l-4.32-10.44a163.1327,163.1327,0,0,0,8.4-19.68S244.32,158.28006,240.48,158.04007Zm70.8,57.12c-5.64-7.08-19.2-23.52-29.52-30.96,0,0-16.56,5.04-27.84,6.48,0,0,11.28-7.2,17.76-15.12,0,0,8.28-23.16,10.92-43.8a22.77211,22.77211,0,0,0-5.64-9.72,81.49841,81.49841,0,0,0-13.44-3.36c-19.32,4.08-23.04,13.32-58.68,25.44a112.74413,112.74413,0,0,0,7.68-9.6s-13.32-4.92-34.8-4.2c-15.96.6-33.84,5.4-33.84,5.4a62.84049,62.84049,0,0,1,15.24-8.04c-1.68-2.04-5.52-7.56-5.88-11.04a25.153,25.153,0,0,0-4.44.36c-1.44,1.2-7.08,9.72-10.32,20.28,0,0-4.92,2.52-9.96,5.64a129.86886,129.86886,0,0,0-12,8.64,25.16111,25.16111,0,0,1,1.2-4.8c-4.32,2.4-9.24,5.28-14.64,8.88,0,0-.24,3.6,3.6,8.16,0,0-21.12,7.68-34.2,27a42.30312,42.30312,0,0,0,10.92,5.04s10.8-1.68,18.48-4.8c0,0,3.96-4.44,7.44-7.92,3.36-3.36,6.24-5.88,6.24-5.88l-4.32,17.64s10.2-.72,23.04-1.32a116.72015,116.72015,0,0,1,16.92,15.12c-.84,6.24-5.52,20.28-13.2,33.96,0,0,6.96-1.56,12.84-2.16a85.953,85.953,0,0,1,12.72-.36,122.554,122.554,0,0,0,27.24,13.56c18.12,6,28.44,7.32,41.4,5.88,0,0,14.4-11.88,22.44-29.76,0,0-1.56-15-4.08-28.68,0,0,12.72,10.44,19.92,40.32,0,0-.96,51.36-34.08,85.68-.24.24-.6.48-.84.72a286.80563,286.80563,0,0,1-34.2,25.92c-7.56,4.8-15.48,9.48-23.88,13.8,0,0,4.32-9.12,5.04-17.28,0,0-1.08-16.68-10.92-28.68-5.04,8.88-13.44,20.16-25.92,26.88-93.96-64.92-116.76-164.16-119.52-219.12,4.68-2.4,63.24-30.96,151.32-30.96s146.52,28.56,151.2,30.96A302.1115,302.1115,0,0,1,311.28,215.16006ZM14.4,49.92v67.44c0,19.32,2.76,70.32,28.44,125.88,29.88,64.92,75.36,106.44,134.64,137.28,59.52-30.96,104.76-72.6,134.64-137.28,25.56-55.56,28.32-106.56,28.32-125.88V49.92c-47.16-24.6-108.96-35.52-162.96-35.52C123.24,14.40009,61.56,25.32007,14.4,49.92Z" fill="#b99758"/><path d="M142.8,46.20007c-3,.24-5.88.6-8.76.96v23.4c2.88-.36,5.76-.6,8.76-.84Zm156.6,18.36c-2.88-.96-5.64-1.8-8.52-2.76v7.8c2.88.84,5.64,1.8,8.52,2.76ZM47.76,59.28c6.72-2.4,13.56-4.56,20.4-6.6V60.6q-6.3,1.8-12.6,3.96v7.8q4.5-1.62,9-2.88V77.4c-3,.84-6,1.92-9,2.88v15.72c-2.64.84-5.16,1.68-7.8,2.64Zm38.76-11.64q3.96-.90005,7.92-1.8V77.16c4.32-.96,8.52-1.8,12.84-2.64v8.04c-6.96,1.2-13.8,2.76-20.76,4.44ZM126,46.92c1.2-2.4,2.52-4.8,3.72-7.2,5.76-.72,11.52-1.32,17.4-1.8,1.2,2.16,2.4,4.32,3.72,6.48v25.8c-1.32,2.28-2.52,4.68-3.72,7.08-5.88.48-11.64.96-17.4,1.8-1.2-2.16-2.52-4.32-3.72-6.36Zm43.68-10.08c7.08-.24,14.04-.12,21.12.12,1.32,2.28,2.52,4.56,3.72,6.96v9.96c-1.2,2.28-2.4,4.44-3.72,6.72a18.5802,18.5802,0,0,0-2.64-.12c2.16,5.28,4.32,10.56,6.36,15.96-2.76-.12-5.64-.24-8.52-.36-2.16-5.28-4.2-10.44-6.36-15.72h-1.92v15.72h-8.04Zm43.68,1.56c2.76.24005,5.4.48,8.04.84V78.6c-2.64-.36-5.28-.6-8.04-.84Zm26.76,3.48c6.96,1.2,13.92,2.52,20.88,4.08,1.2,2.52,2.52,5.04,3.72,7.56v25.8c-1.2,1.92-2.52,3.96-3.72,6-6.96-1.56-13.92-3-20.88-4.08Zm42.96,16.44c1.2-1.92,2.4-3.72,3.6-5.64,5.64,1.68,11.28,3.48,16.8,5.4,1.2,2.64,2.4,5.4,3.6,8.04v32.52c-2.52-.96-5.16-1.8-7.68-2.64V80.28c-2.88-.96-5.64-1.92-8.52-2.76v15.72c-2.52-.84-5.16-1.56-7.8-2.28ZM25.8,117.12c45.48-20.76,101.64-30.12,151.68-30.12,49.8,0,106.08,9.36,151.56,30.12v-60.24S269.4,25.8,177.48,25.8s-151.68,31.08-151.68,31.08ZM248.16,74.64008q4.32.9,8.64,1.8V52.92c-2.88-.6-5.76-1.2-8.64-1.68Zm-61.68-29.88c-2.88-.12-5.88-.12-8.76-.12v7.8c2.88,0,5.88,0,8.76.12ZM145.32,170.52c-2.52,1.08-5.76-.24-6.96-1.56-.96,1.56-1.92,3.24-1.92,3.24a18.13633,18.13633,0,0,0,15.12-.72,11.7451,11.7451,0,0,0,6.24-6.84,64.29033,64.29033,0,0,0-8.76,1.2C148.68,167.04,147.72,169.56,145.32,170.52Z" fill="#c8102e"/><path d="M124.8,239.64s.84-1.44,1.92-3.6a67.50948,67.50948,0,0,0-9.6-7.44,64.5378,64.5378,0,0,1,12.48,1.08c.36-.84.72-1.8,1.08-2.76a73.6649,73.6649,0,0,0-12.12-7.44,62.21444,62.21444,0,0,1,14.04-.24l.36-2.52c-6.48-4.44-15.96-7.08-15.96-7.08a47.65818,47.65818,0,0,1,10.68-2.28l-4.8-5.64a97.091,97.091,0,0,0-11.04.24c-7.44.48-14.28,1.44-14.28,1.44-1.2.84-2.88,2.28-4.2,3.24a33.20445,33.20445,0,0,0-4.56,5.04l.24,13.8C93.48,227.52,110.76,235.44,124.8,239.64Zm30.36-63a104.14389,104.14389,0,0,1-18.6,1.68,78.93744,78.93744,0,0,1-14.76-1.2l10.68,5.04a89.53569,89.53569,0,0,0,25.8-2.04c4.32-4.08,11.16-11.52,14.88-17.76a33.70351,33.70351,0,0,0,0-3.84c-.24.24-.84.96-1.8,2.04-.72.84-1.68,1.92-2.76,3A128.84829,128.84829,0,0,1,155.16,176.64ZM85.32,244.2A36.9051,36.9051,0,0,0,96.84,261a120.53707,120.53707,0,0,1,31.8-7.2s-24.12-9.84-39.72-20.88A20.80162,20.80162,0,0,0,85.32,244.2Zm-6.72-7.44s4.68-7.44,8.16-10.8L81.84,211.8a35.42643,35.42643,0,0,1-5.04-5.4c-1.44-1.92-2.64-3.72-3.6-5.16l-5.04,12.84S72.72,226.92,78.6,236.76ZM256.8,76.44q-4.32-.9-8.64-1.8v-23.4c2.88.48,5.76,1.08,8.64,1.68Zm7.92,2.88007V53.52c-1.2-2.52-2.52-5.04-3.72-7.56-6.96-1.56-13.92-2.88-20.88-4.08v39.36c6.96,1.08,13.92,2.52,20.88,4.08C262.2,83.28,263.52,81.24005,264.72,79.32007Zm-43.32-40.08c-2.64-.36-5.28-.6-8.04-.84V77.76c2.76.24005,5.4.48,8.04.84Zm-87.36,7.92c2.88-.36,5.76-.72,8.76-.96V69.72c-3,.24-5.88.48-8.76.84Zm13.08,30.12c1.2-2.4,2.4-4.8,3.72-7.08V44.4c-1.32-2.16-2.52-4.32-3.72-6.48-5.88.48-11.64,1.08-17.4,1.8-1.2,2.4-2.52,4.8-3.72,7.2v25.8c1.2,2.04,2.52,4.2,3.72,6.24C135.48,78.24005,141.24,77.64,147.12,77.28ZM290.88,61.8c2.88.96,5.64,1.8,8.52,2.75995v7.8c-2.88-.96-5.64-1.92-8.52-2.76Zm0,15.72c2.88.96,5.64,1.8,8.52,2.76v15.72c2.52.84,5.16,1.68,7.68,2.64v-32.52c-1.2-2.64-2.4-5.4-3.6-8.04-5.52-1.92-11.16-3.72-16.8-5.4-1.2,1.92-2.4,3.72-3.6,5.64V90.96c2.64.72,5.16,1.44,7.8,2.28ZM55.56,80.28c3-.96,6-2.04,9-2.88V69.48q-4.5,1.26-9,2.88v-7.8q6.3-2.15991,12.6-3.96v-7.92c-6.84,2.04-13.68,4.2-20.4,6.6V98.64c2.64-.96,5.16-1.8,7.8-2.64ZM177.72,44.64c2.88,0,5.88,0,8.76.12v7.8c-2.88-.12-5.88-.12-8.76-.12Zm0,15.72h1.92c2.16,5.28,4.2,10.44,6.36,15.72,2.88.12,5.76.24005,8.52.36-2.04-5.4-4.2-10.68-6.36-15.96a18.5802,18.5802,0,0,1,2.64.12c1.32-2.28,2.52-4.44,3.72-6.72V43.92c-1.2-2.4-2.4-4.68-3.72-6.96-7.08-.24-14.04-.36-21.12-.24V76.08h8.04ZM107.28,74.52c-4.32.84-8.52,1.68-12.84,2.64V45.84q-3.96.9-7.92,1.8v39.36c6.96-1.68,13.8-3.24005,20.76-4.44006Z" fill="#fff"/><path d="M205.44,169.44c-8.16-6.48-13.44-8.28-13.44-8.28s.48,9.24-.24,12.24a259.6941,259.6941,0,0,1-17.4,21.12l28.44-12.96C204.36,175.44,205.44,169.44,205.44,169.44Z" fill="#041e42"/><path d="M138.84,162.36c12.72-5.64,21.96-8.16,27.6-9.24,1.2-.24,2.28-.48,3.24-.6.36,0,.84-.12,1.2-.12a14.81591,14.81591,0,0,1,2.16-.24c-16.8-2.88-36.72,5.04-36.72,5.04l1.44,3Zm59.52,116.76a79.10937,79.10937,0,0,1,4.2,14.4,41.671,41.671,0,0,1,.72,11.76c-23.16-26.52-56.64-42.84-56.64-42.84s46.44,38.28,35.88,87.84c-.72,8.16-5.04,17.28-5.04,17.28,8.4-4.32,16.32-9,23.88-13.8a274.59577,274.59577,0,0,0,34.2-25.92C222.48,298.68,198.36,279.12,198.36,279.12Z" fill="#fff"/></svg>