<svg id="Layer_1" data-name="Layer 1" xmlns="http://www.w3.org/2000/svg" viewBox="0 0 594.96002 383.88136"><title>Minnesota Wild</title><path d="M555.48,79.20137c.24,0,20.64-16.08,20.64-16.08s-81.48-22.08-178.68-16.32c0,0-13.8-46.32-79.2-46.8-48.6-.24-76.56,30-85.32,53.64-91.8,19.92-161.88,66.24-161.88,66.24l16.8,12.84c-43.32,22.68-87.84,58.92-87.84,58.92s4.08,21.84,30.36,56.88c0,0,17.64,13.68,64.2,31.56,0,0,9-2.16,13.44-4.32a156.80153,156.80153,0,0,0,19.56,5.28c-.36,5.88-2.16,14.28,8.64,24.24l-7.92,4.2s9.6,24.24,63.24,37.32c20.64-4.8,114-21.84,145.8,37.08l163.56-158.52-34.68-.24,128.76-135A328.56187,328.56187,0,0,0,555.48,79.20137Z" fill="#e2d6b5"/><path d="M563.76007,96.60133c-19.68005-7.56-45.96-13.31995-45.96-13.31995l16.44-12.48c-88.56-18.48-149.4-13.2-149.4-13.2s-11.88-46.31995-70.92-46.68c-57.12-.36-74.64,50.52-74.64,50.52-78.36,14.88-152.28,59.28-152.28,59.28l17.88,13.68c-46.31995,22.44-94.44,60.72-94.44,60.72,6.6,21.12,26.28,46.92,26.28,46.92,18.24,12.84,58.44,28.8,58.44,28.8a56.43613,56.43613,0,0,0,12.12-4.8s19.92,8.16,41.4,8.28c7.8.12,16.44-.84,16.56-3.84,0-5.28-15.96-6.96-15.96-12.84,0-4.44,9.72-10.32,46.32-10.08,21.84.12,46.68,1.8,46.68,1.8-18-.12-53.52,4.32-53.52,12.6-.12,6.6,24,7.08,24,15.84-.12,12.72-18.96,16.92-40.92,16.8-19.68-.12-29.04-5.76-33.48-5.88-1.68,0-2.76.84-2.76,2.04,0,4.56,8.64,13.8,15.72,16.44l-9.6,5.4c10.56,14.16,50.04,24.96,50.04,24.96,113.16-23.88,147.6,32.76,147.6,32.76l133.32-136.2-31.08-.24Z" fill="#024930"/><path d="M257.88007,85.20143a42.19928,42.19928,0,0,1,.48-6.72c-51.12,7.44-98.88,21.72-137.76,42.48,0,0,59.88-20.52,137.76-28.31995A50.55039,50.55039,0,0,1,257.88007,85.20143Zm108.48-12.24005a52.06257,52.06257,0,0,1,1.44,13.08,39.26946,39.26946,0,0,1-.48,6.48,355.54716,355.54716,0,0,1,70.56,15.12c-25.8.72-52.2,3-77.76,6a54.66737,54.66737,0,0,1-47.64,26.88,54.03863,54.03863,0,0,1-36-13.68c-53.16,10.32-90.48,20.64-90.48,20.64,26.28,1.44,41.04,7.56,41.04,7.56-67.92,13.32-131.28,39-151.92,47.88,4.92,7.8,11.16,16.92,11.16,16.92l-10.2,12.48c18.12,3.48,40.56,1.68,40.56,1.68l33.84-20.4,26.4,8.16,8.04-10.92h-8.64l17.64-27.96,14.4,28.2h-6.6l4.44,9.6,18.24-3.12,7.8-9.84h-6.96l10.56-15.96h-7.8l16.56-27.72,13.92,28.8h-6.24l9.24,16.8-7.44-.12,15.12,27.84,15.36-21.24H274.08l15.84-23.52-10.08-.12,22.92-38.64,19.32,39.48h-8.16l13.32,23.16-9.48-.12,12.72,28.92,22.32-35.88-12.12-.12,18.12-29.04-11.04-.12,24.36-48.72,24.84,51.36h-8.88l16.2,27-11.16-.12,12.24,26.76,20.52-30.84-10.92-.12,23.88-33.84h-12.72l38.16-51.96,19.68,36,42.72-51.84C477.96005,85.32143,422.40005,75.12141,366.36008,72.96138Z" fill="#af1e24"/><path d="M313.20007,30.6014a55.01851,55.01851,0,0,0-54.84,47.88s27.72-12.24,102.72-19.2A55.2561,55.2561,0,0,0,313.20007,30.6014Zm-.72,109.92a54.52334,54.52334,0,0,0,47.64-26.88c-29.88,3.72-58.44,8.4-83.52,13.2A54.1458,54.1458,0,0,0,312.48007,140.52141Zm53.88-67.56a596.7873,596.7873,0,0,0-108,5.52,61.05539,61.05539,0,0,0-.48,6.72c0,2.52.24,5.04.48,7.44,34.08-3.36,71.52-4.32,108.96-.12a39.26946,39.26946,0,0,0,.48-6.48A58.26512,58.26512,0,0,0,366.36008,72.96138Z" fill="#edaa00"/><path d="M319.08008,105.48137c-71.76,1.92-136.44,19.32-136.44,19.32-.48-3.24-.96-6.36-1.44-9.48-2.28,3.72-4.32,7.32-6.6,10.92,0,0-32.52,11.76-54,22.8,27.48-9.24,49.8-14.88,49.8-14.88-2.28,4.68-4.44,9.24-6.72,14.04,4.08-3.72,8.04-7.2,12.24-10.8l8.64,4.68c-.36-3.48-.72-6.84-1.08-10.44C183.48007,131.64137,255.96007,111.96138,319.08008,105.48137Z" fill="#fff"/></svg>