<svg id="Layer_1" data-name="Layer 1" xmlns="http://www.w3.org/2000/svg" viewBox="0 0 594.97276 348.64989"><title>Nashville Predators Logo (2011)</title><path d="M6.6342,102.35575l18.24-24a7.75994,7.75994,0,0,1,4.32-2.64l172.44-34.44c-2.4-2.52-2.4-10.2,4.68-11.28a297.19614,297.19614,0,0,1,60-1.68l115.2-23.04a7.5846,7.5846,0,0,1,4.32.48l84.6,36.84a6.80937,6.80937,0,0,1,2.16,1.44l13.56,13.68,21.6,12.24a7.15025,7.15025,0,0,1,3.48,4.68l4.56,20.4,13.8,17.16,9.48,7.32,30.72,14.88a6.83479,6.83479,0,0,1,3.6,3.72l15.96,39a7.177,7.177,0,0,1-1.68,7.8c-.12006.12-11.16,11.28-21.48,32.28a7.36547,7.36547,0,0,1-6.84,3.96c-.12,0-14.16-.48-34.92,11.16a7.24763,7.24763,0,0,1-3.6.84h-21.24c-52.92,65.4-128.88,101.52-232.2,110.4-7.8.6-11.04-10.44-3.48-13.8l10.68-4.8c-2.4-1.56-3.36-8.88,2.4-11.4,1.08-.48,98.88-44.04,127.56-127.2-18.84,3.84-56.4,11.88-85.2,21.48-18.72,6.12-30.36,15.84-37.44,24,2.88-1.2,6.6-3,9.96-3a12.87047,12.87047,0,0,1,11.28,6.12,13.52606,13.52606,0,0,1,2.16-.36c6.48,0,13.44,5.16,13.44,12.96,0,12.48-19.2,27.96-34.56,34.44-1.92,9.6-10.68,21.24-41.64,21.24a81.21915,81.21915,0,0,1-49.32-16.8l-70.44-12.72a7.23682,7.23682,0,0,1-4.68-11.28c.24-.36,19.32-27.72,19.32-55.56,0-75.72-124.68-92.76-126-92.88A7.32912,7.32912,0,0,1,6.6342,102.35575Zm4.08,16.56c1.2.24,121.56,17.04,121.56,87.84,0,26.04-18.24,52.32-18.36,52.56-4.68,6.72-1.8,17.52,7.92,19.32l69.24,12.48a85.03159,85.03159,0,0,0,51.48,17.16c31.68,0,42.6-11.88,45.96-22.8,15.48-7.2,35.4-22.8,35.4-38.04,0-10.8-9.6-18-18.6-18.12a19.80254,19.80254,0,0,0-7.68-4.8,83.68311,83.68311,0,0,1,23.28-11.88c24.36-8.16,54.84-15.12,75.36-19.44-31.44,75.48-120.48,115.08-121.44,115.56-9,3.96-7.08,13.56-7.08,13.56l-6,2.64c-12.72,5.76-7.92,24.84,6,23.64,103.8-8.88,180.36-44.88,234.12-110.28h18.96a13.53166,13.53166,0,0,0,6-1.56c19.2-10.8,32.16-10.56,32.28-10.56a12.20141,12.20141,0,0,0,11.64-6.84c9.84-19.92,20.4-30.72,20.52-30.84a12.1656,12.1656,0,0,0,2.76-13.44l-15.96-39a11.94351,11.94351,0,0,0-6-6.36l-30.24-14.64-8.64-6.6-12.6-15.72-4.32-19.2a12.20852,12.20852,0,0,0-5.88-8.04l-21-12-13.08-13.08a13.71639,13.71639,0,0,0-3.84-2.64l-84.6-36.72a11.76891,11.76891,0,0,0-7.32-.84l-114.6,22.92a316.54632,316.54632,0,0,0-60.36,1.68c-9.36,1.56-10.92,10.08-10.44,12.48-10.44,2.04-166.92,33.36-166.92,33.36a12.14667,12.14667,0,0,0-7.44,4.56l-18.24,24A12.30565,12.30565,0,0,0,10.7142,118.91574Z" fill="#fff"/><path d="M536.55416,148.07575s19.08,12.12,27.72-3.36l-29.16-13.8a64.30887,64.30887,0,0,1-23.64,8.28A184.5189,184.5189,0,0,1,536.55416,148.07575Zm-346.08-57.72a92.75806,92.75806,0,0,0-38.28,32.64c7.8-2.16,15.6-4.08,23.4-5.88A139.8272,139.8272,0,0,1,190.4742,90.35575Z" fill="#fff"/><path d="M494.91418,87.95575l-3.96,15.48c0-11.76-6.96-18.48-27.48-30.6Zm-161.28-2.76a70.44282,70.44282,0,0,0-40.44,14.52c13.68-.84,27.36-1.32,41.16-1.2,6.84-9.12,10.92-19.08,10.92-29.52,0-18-9.24-28.56-9.24-28.56l44.64-9.96,13.92,6.84s-32.76,12.6-32.76,48.12a49.15087,49.15087,0,0,0,1.92,13.8,579.52034,579.52034,0,0,1,72.72,8.28s8.04,19.44,30.12,19.44a35.48429,35.48429,0,0,0,18.84-5.88c23.88,18,45.84,8.04,45.84,8.04l-8.28-6.72-7.8,4.08,4.92-7.32-3-3.36-10.56,5.52,6.6-10.08-2.28-2.64-9,3.84,5.16-8.64-3.6-5.52c-3.36,14.76-16.44,16.44-27.72,15.6l-.6-6.48a16.272,16.272,0,0,1-16.2.36,16.00807,16.00807,0,0,1-8.28-13.92c0-5.04-24.84-27.24-24.84-27.24l32.16,9.84c27,8.4,25.8,21.72,26.16,28.92,4.44,2.04,14.76,3.48,19.32-7.08l-3.36-17.76-21.48-10.31995-14.64-13.8-82.32-33.24-81.12,17.88a133.83162,133.83162,0,0,1,34.92,14.64A36.76911,36.76911,0,0,1,333.63418,85.19577Zm98.16,56.16c-8.76,4.32-16.2,10.32-24.72,17.52l9.84-18.36s-25.92-1.08-50.64-.6l-16.08,17.76a67.99947,67.99947,0,0,0-18.96-3c-.36-9,3.12-19.2,11.04-29.04-10.44,7.92-16.8,18-18.12,29.16a71.65,71.65,0,0,0-13.44,2.4c-2.28-7.44-2.04-16.68,1.44-26.64-6.12,9.24-8.64,19.08-7.32,28.56a74.04052,74.04052,0,0,0-12.36,6.12c-3.84-5.76-6.24-13.56-6.36-22.8-2.28,9.48-1.56,18.24,1.8,25.92a69.51139,69.51139,0,0,0-20.04,22.68c-43.92-7.92-70.44,28.8-71.4,54.6-2.76-17.88,3-49.44,38.28-64.56l11.76-27.36a17.85,17.85,0,0,1,2.76-4.68c-39.36,7.32-63.72,22.92-63.72,22.92s-10.68,19.08-6.12,38.4c0,0-6.96-9.36-11.04-25.44-1.44,1.44-3,3-4.44,4.56a70.84361,70.84361,0,0,1,2.28,17.52c0,28.68-12,46.8-12,46.8l40.2,8.16s15.12,22.08,47.76,22.08c10.32,0,23.88-1.2,23.88-7.68,0-5.04-12.24-11.76-12.24-26.16,0-23.4,29.4-47.64,60.84-57.96,36.84-12.24,93.12-26.28,121.32-26.28,80.27994,0,77.64,52.92,77.64,52.92l3.84-.12c17.87994-10.08,33.72-12,38.28-12.36C563.55416,177.59577,548.79421,151.67575,431.79418,141.35575Zm-315.96-51.72,103.68-23.16s4.08,13.32,21.72,24l-.24,3.24c-8.28,1.68-21.12,6.96-33.36,16.56,20.16-3.72,40.56-6.6,61.08-8.64l5.28-12.24c-32.52,4.8-47.16-22.92-47.16-22.92l-2.52-8.4-188.64,42.24c20.4,1.32,42.84,7.8,63.24,18.24C103.8342,102.35575,115.8342,89.63574,115.8342,89.63574Z" fill="#fff"/><path d="M470.07418,182.03574c-36.84,0-36.24,78.12-165.96,144.24,110.4-15.96,193.8-91.08,193.8-121.8C497.91418,192.95575,478.95419,182.03574,470.07418,182.03574Zm-209.76,70.8c2.64,11.76,10.44,15,11.16,19.44a59.48207,59.48207,0,0,0,33.84-24.24C279.03417,261.23575,260.31417,252.83573,260.31417,252.83573Zm-27.72-189s11.88,20.16,33,20.16l21.84-1.56,18-18.84,24.6-3.72a117.1222,117.1222,0,0,0-29.88-12.36l-20.52,28.68,13.08-30.48c-3.72-.84-7.56-1.56-11.4-2.04l-17.64,24.6,10.92-25.56c-4.68-.6-9.12-.96-13.44-1.32l-13.56,18.96,8.16-19.2a235.278,235.278,0,0,0-33,.72l4.68,4.08Zm-122.76,60.84q5.94,3.6,11.52,7.56c3.36-1.08,7.32-2.4,11.88-3.72a128.41684,128.41684,0,0,1,21.24-44.4C124.8342,95.15573,112.35419,119.39572,109.8342,124.67572Z" fill="#fff"/><path d="M559.71419,213.95575s-15.6-.96-38.88,12h-19.56l-3.48-1.92c-52.68,67.92-127.8,103.44-231,112.2,0,0,35.04-15.36,54-25.32l-40.92,9.12s110.88-48.12,135.12-143.16c0,0-57.24,10.56-97.92,24-40.32,13.44-51.36,42.72-51.36,42.72,14.4-1.32,21.84-7.56,26.16-7.56a6.22693,6.22693,0,0,1,5.88,8.4c2.4-.96,5.28-2.76,7.56-2.76,2.52,0,6.24,2.28,6.24,5.76,0,8.76-19.56,24.72-33.96,29.4,0,5.28-2.16,19.08-35.04,19.08-28.2,0-46.2-16.44-46.2-16.44l-72.36-12.96s20.64-29.16,20.64-59.76c0-82.92-132.24-100.08-132.24-100.08l18.24-24,186.48-37.2-9.84-8.4a299.87759,299.87759,0,0,1,59.52-1.56l116.16-23.16,84.6,36.72,14.28,14.4,22.44,12.72,4.92,22.08,15.36,19.08,10.68,8.28,31.44,15.12,15.96,39S570.75417,191.39575,559.71419,213.95575Zm29.64-36.96-15.96-38.88a7.4827,7.4827,0,0,0-3.6-3.84l-30.72-14.76-9.48-7.32-13.8-17.16-4.56-20.4a7.1503,7.1503,0,0,0-3.48-4.68l-21.6-12.24-13.56-13.68a5.27274,5.27274,0,0,0-2.16-1.44l-84.6-36.84a7.58463,7.58463,0,0,0-4.32-.48l-115.2,23.04a287.36835,287.36835,0,0,0-60,1.68c-7.08,1.08-7.08,8.76-4.68,11.28l-172.44,34.44a7.7598,7.7598,0,0,0-4.32,2.64l-18.24,24a7.21486,7.21486,0,0,0,4.8,11.52c1.2.24,126,17.28,126,92.88,0,27.84-19.08,55.32-19.32,55.56a7.22481,7.22481,0,0,0,4.56,11.28l70.44,12.72a81.68152,81.68152,0,0,0,49.44,16.8c30.84,0,39.6-11.64,41.64-21.24,15.24-6.48,34.56-21.96,34.56-34.44,0-7.68-6.96-12.96-13.56-12.96-.72,0-1.44.36-2.16.36a12.80955,12.80955,0,0,0-11.16-6c-3.48,0-7.08,1.68-10.08,2.88,7.08-8.04,18.84-17.76,37.44-24,28.8-9.48,66.36-17.64,85.2-21.36-28.56,83.04-126.48,126.72-127.56,127.08-5.76,2.52-4.8,9.96-2.28,11.52l-10.8,4.68c-7.56,3.36-4.32,14.52,3.6,13.8,103.32-8.76,179.28-44.88,232.08-110.28h21.36a7.23145,7.23145,0,0,0,3.48-.96c20.76-11.64,34.8-11.16,34.92-11.16a7.3656,7.3656,0,0,0,6.84-3.96c10.32-21,21.48-32.16,21.48-32.16a6.9124,6.9124,0,0,0,1.68-7.92Z" fill="#ffb81c"/><path d="M468.8742,104.87573a12.06571,12.06571,0,0,0,5.76-1.56c-.24-1.2-.48-2.4-.72-3.48a5.8979,5.8979,0,0,1-3.36,1.08,5.86341,5.86341,0,0,1-1.56-11.52,24.14377,24.14377,0,0,0-6.48-6.47995,12.17205,12.17205,0,0,0-5.52,10.08A11.90212,11.90212,0,0,0,468.8742,104.87573Zm-338.04,34.92a103.87271,103.87271,0,0,1,2.4-11.28c-4.56,1.32-8.52,2.64-11.88,3.72C124.5942,134.63574,127.83419,137.15573,130.83419,139.79572Zm135.96-7.08-12.6,2.88,14.52-33.96c-22.08,2.16-42.6,5.28-61.08,8.76-17.52,13.68-33.72,36.12-33.72,69.48a90.49048,90.49048,0,0,0,5.52,30.48c-4.56-19.32,6.12-38.4,6.12-38.4s24.36-15.6,63.72-22.92c2.76-3.24,6.84-5.64,12.6-7.08,28.32-7.32,57.12-23.28,72.48-43.44-14.16,0-27.84.36-41.16,1.2A87.37173,87.37173,0,0,0,266.79421,132.71573Zm169.68-25.2a577.0068,577.0068,0,0,0-72.72-8.28,53.0413,53.0413,0,0,0,16.2,25.56l-13.68,15.12c24.72-.48,50.64.48,50.64.48l-9.84,18.48,25.56-28.08Zm-260.88,9.6c-8.52,1.92-16.32,3.96-23.4,5.88a85.28554,85.28554,0,0,0-11.52,26.16c11.28,11.88,19.56,25.44,23.28,40.32,1.44-1.56,3-3.12,4.44-4.56a96.11987,96.11987,0,0,1-2.88-23.4C165.51421,145.07572,170.19421,129.47574,175.5942,117.11572Zm360.96,30.96a184.52178,184.52178,0,0,0-25.08-8.88,67.33469,67.33469,0,0,1-38.52-6c-18.12,0-30.6,2.88-41.16,8.16,117,10.32,131.76,36.24,123.96,65.04a12.601,12.601,0,0,1,1.32-.12s7.92-14.76,17.16-25.44c0,0-11.88-24.96-53.76-27.12Z" fill="#ffb81c"/><path d="M109.8342,124.67575c2.52-5.28,15-29.52,44.64-40.56a128.41663,128.41663,0,0,0-21.24,44.4c-.96,3.72-1.8,7.44-2.4,11.28-3-2.64-6.24-5.16-9.48-7.56Q115.7742,128.27573,109.8342,124.67575Zm-74.16-24.36,188.64-42.24,2.52,8.4s14.64,27.72,47.16,22.92l-5.28,12.24-14.52,33.96,12.6-2.88a87.37163,87.37163,0,0,1,26.4-33,70.44272,70.44272,0,0,1,40.44-14.52,36.8286,36.8286,0,0,0,1.8-29.52,131.25115,131.25115,0,0,0-34.92-14.52l81.12-18,82.32,33.24,14.64,13.8,21.48,10.44,3.36,17.64,3.6,5.52-5.16,8.76,9-3.96,2.27994,2.76-6.59994,9.96,10.56-5.4,3,3.36-4.92,7.32,7.92-4.2,8.16,6.84s-21.96,9.96-45.84-8.16a35.03447,35.03447,0,0,1-18.84,6c-22.08,0-30.12-19.44-30.12-19.44l-3.96,23.28-25.44,27.96c8.52-7.2,15.96-13.08,24.72-17.4,10.56-5.4,23.04-8.28,41.16-8.28a66.80091,66.80091,0,0,0,38.52,6.12,66.04277,66.04277,0,0,0,23.52-8.28l29.28,13.68c-8.64,15.48-27.72,3.36-27.72,3.36l-16.08,5.76c41.76,2.04,53.76,27,53.76,27-9.23993,10.68-17.16,25.56-17.16,25.56h-1.32c-4.68.36-20.4,2.28-38.28,12.36l-3.84.12s2.64-52.92-77.64-52.92c-28.2,0-84.48,14.04-121.32,26.28-31.44,10.32-60.84,34.56-60.84,57.96,0,14.4,12.24,21.12,12.24,26.16,0,6.48-13.56,7.68-23.88,7.68-32.64,0-47.88-22.08-47.88-22.08l-40.08-8.16s12-18.12,12-46.8a70.84338,70.84338,0,0,0-2.28-17.52c-3.72-14.88-12-28.44-23.28-40.32a82.77947,82.77947,0,0,1,11.64-26.16,92.05975,92.05975,0,0,1,38.16-32.64,139.82648,139.82648,0,0,0-14.88,26.76c-5.4,12.36-10.08,27.96-10.08,44.4a95.93922,95.93922,0,0,0,2.88,23.4c4.08,16.08,11.04,25.44,11.04,25.44a90.49,90.49,0,0,1-5.52-30.48c0-33.36,16.2-55.8,33.72-69.48,12.24-9.72,25.08-15,33.36-16.56l.24-3.36c-17.64-10.68-21.72-24-21.72-24l-103.68,23.16s-12,12.6-16.92,28.92C78.5142,108.11575,56.0742,101.63574,35.6742,100.31577Zm220.08-59.16-8.16,19.2,13.56-18.96c4.44.36,9,.72,13.44,1.32l-10.92,25.56,17.64-24.72c3.84.6,7.56,1.32,11.4,2.16l-13.08,30.48,20.52-28.68a117.12265,117.12265,0,0,1,29.88,12.36l-24.6,3.72-18,18.84-21.84,1.56c-21.12,0-33-20.16-33-20.16l-5.16-17.88-4.68-4.08A235.28944,235.28944,0,0,1,255.75419,41.15576Zm48.36,285.12c129.6-66.12,129.12-144.24,165.96-144.24,8.88,0,27.84,10.92,27.84,22.44C497.91421,235.19574,414.51421,310.31574,304.11419,326.27576Zm1.2-78.24a58.92675,58.92675,0,0,1-33.84,24.12c-.72-4.32-8.52-7.56-11.16-19.32,0,0,18.72,8.4,45-4.92Zm-160.68-41.28c0,30.6-20.64,59.76-20.64,59.76l72.36,12.96s17.88,16.43994,46.2,16.43994c32.88,0,34.92-13.79993,34.92-19.08,14.52-4.68,34.08-20.64,34.08-29.4,0-3.48-3.72-5.76-6.36-5.76-2.16,0-5.04,1.8-7.44,2.76a6.22693,6.22693,0,0,0-5.88-8.4c-4.44,0-11.76,6.24-26.16,7.56,0,0,11.04-29.28,51.36-42.72,40.68-13.44,97.92-24,97.92-24-24.24,95.04-135.24005,143.16-135.24005,143.16l41.04-9.12006c-19.08,9.96-54,25.44006-54,25.44006,103.2-8.76,178.2-44.28,230.88-112.32l3.6,1.92h19.56c23.28-12.96,38.88-12,38.88-12,11.04-22.56,22.92-34.2,22.92-34.2l-15.96-38.88-31.44006-15.24-10.68-8.28-15.36-19.08-4.92-22.08-22.44-12.72-14.28-14.28-84.6-36.84-116.16,23.16a299.88261,299.88261,0,0,0-59.52,1.56l9.84,8.4-186.48,37.32-18.24,24S144.63419,123.83576,144.63419,206.75577Z" fill="#041e42"/><path d="M468.7542,104.87573a11.87793,11.87793,0,0,1-11.76-11.88,12.1494,12.1494,0,0,1,5.64-10.08,24.92713,24.92713,0,0,1,6.36,6.48,5.90448,5.90448,0,0,0-4.32,5.64,5.73855,5.73855,0,0,0,5.88,5.88,6.55091,6.55091,0,0,0,3.36-1.08,16.27786,16.27786,0,0,1,.72,3.48A11.68194,11.68194,0,0,1,468.7542,104.87573Zm15.36.6c-.36-7.32.84-20.64-26.16-28.92l-32.16-9.96s24.84,22.2,24.84,27.24a15.95282,15.95282,0,0,0,15.96,15.96,16.3117,16.3117,0,0,0,8.52-2.4l.6,6.6c11.28.84,24.36-.96,27.72-15.6C498.8742,108.95572,488.55419,107.39572,484.11422,105.47571Z" fill="#041e42"/><path d="M196.47417,245.51575c.96-25.68,27.48-62.4,71.4-54.48a69.511,69.511,0,0,1,20.04-22.68c-3.36-7.68-3.96-16.44-1.8-25.92.12,9.24,2.52,17.04,6.36,22.8a74.04138,74.04138,0,0,1,12.36-6.12c-1.32-9.36,1.2-19.32,7.32-28.56-3.48,9.96-3.72,19.2-1.44,26.64a62.96872,62.96872,0,0,1,13.44-2.28c1.32-11.28,7.56-21.36,18.12-29.28-7.92,9.84-11.52,20.04-11.04,29.04a70.37817,70.37817,0,0,1,18.96,3l16.08-17.76,13.68-15a53.8075,53.8075,0,0,1-16.2-25.68,48.52356,48.52356,0,0,1-1.92-13.8c0-35.52,32.76-48.12,32.76-48.12l-13.8-6.84-44.64,9.96s9.24,10.56006,9.24,28.56006c0,10.43994-4.2,20.4-11.04,29.52-15.24,20.16-44.16,36.12-72.48,43.44-5.76,1.44-9.84,3.84-12.6,7.08a18.92791,18.92791,0,0,0-2.88,4.68l-11.64,27.36C199.47417,196.07575,193.71416,227.75574,196.47417,245.51575Zm294.48-142.08,3.96-15.48-31.44-15.12C483.99416,84.95575,490.95419,91.67575,490.95419,103.43573Z" fill="#041e42"/></svg>