<svg id="Layer_1" data-name="Layer 1" xmlns="http://www.w3.org/2000/svg" viewBox="0 0 594.96005 555.23999"><title>Tampa Bay Lightning Logo 2011</title><path d="M594.96005,251.16c0-60.36-37.56006-119.87994-104.04-156.48l-25.56,20.28c45.48,28.68,72.24,71.4,72.24,120,0,113.28-140.04,216-295.8,216a316.28717,316.28717,0,0,1-46.92-3.48l-52.56,39c33.24,11.28,70.32,17.16,108.96,17.16C436.32,503.64,594.96005,378.72,594.96005,251.16Z" fill="#002868"/><path d="M25.32,293.76c0-117.24,146.64-216,295.92-216h3.12L180,239.16l82.92-13.08L99.48,384.24l66.36-12-46.32,52.92C63.24,398.52,25.32,352.56,25.32,293.76Zm334.32-.48-95.16,18.6L475.56,138.36l-98.28,13.2L568.32,0,345.96,58.56c-2.88,0-5.88-.12-8.88-.12C154.8,58.44,0,182.28,0,313.08c0,64.08,34.44,115.08,88.08,148.08L5.88,555.24Z" fill="#002868"/></svg>