<svg id="Layer_1" data-name="Layer 1" xmlns="http://www.w3.org/2000/svg" viewBox="0 0 594.95996 506.87997"><title>Calgary Flames Logo</title><path d="M136.44,321.84c-27.84,0-38.4-21.48-38.4-21.48,9.24-2.04,14.76-17.16,23.64-17.16,9.6,0,10.32,13.68,49.32,26.64C167.4,311.4,154.92,321.84,136.44,321.84Zm451.68-109.8s6.84-19.56,6.84-50.28C594.96,69.36,521.52,0,419.52,0c-78,0-133.92,52.68-166.44,52.68-13.44,0-29.28-27-29.28-27s-22.2,10.92-18,37.2c0,0-17.64-10.44-46.08-10.44-34.8,0-62.52,22.2-70.68,41.64-40.8,15.72-33.72,34.32-68.64,37.56,0,0,1.44,36.84,40.44,45C40.8,196.68,0,200.52,0,200.52,0,213,28.31995,245.4,84.6,236.04,70.2,256.8,82.08,276.84,43.31995,295.44c0,0,4.92,7.8,24.96,12.96a175.77772,175.77772,0,0,0,5.64,35.28s-21.24-5.28-37.08,2.64A65.406,65.406,0,0,1,59.4,391.2c2.28,32.88,20.16,83.4,75.24,77.88-8.4,6.36-24.96,12.6-24.96,12.6s15.12,25.2,52.92,25.2c38.76,0,49.2-41.4,87.24-41.4,35.76,0,52.8,26.76,111.12,26.76,122.28,0,208.92-121.2,218.64-201.84H429s-15.96,55.08-53.64,55.08c-24.48,0-49.56-16.92-49.56-63,0-49.56,42-137.64,102.72-137.64,18,0,24,14.04,24,30.48,0,17.76-6.96,36.72-6.96,36.72Z" fill="#111"/><path d="M106.68,302.04c6.6-1.32,9.12-11.88,15.84-11.88,5.64,0,7.44,13.32,34.56,19.68,0,0-10.32,5.88-21.12,5.88C115.43994,315.72,106.68,302.04,106.68,302.04ZM583.2,205.68a190.47569,190.47569,0,0,0,5.04-43.92c0-88.44-68.88-156-168.6-156-72,0-133.08,53.4-165.84,53.4-14.04,0-31.44-24-31.44-24s-19.08,12.84-5.28,42c0,0-22.56-18.36-56.88-18.36-50.28,0-66.24,40.2-66.24,40.2-38.28,13.44-35.4,34.8-66.36,37.2,0,0,3.48,33.84,45.24005,35.16-15.96,29.52-64.56006,33.84-64.56006,33.84s13.8,25.8,56.4,25.8c27.48,0,46.68-10.56,46.68-10.56-42.72006,22.92-15.24,54.84-57.36,75.6a69.5202,69.5202,0,0,0,20.52,7.08s.84,26.52,9.36,51.84c0,0-11.76-9.72-35.04-5.64,0,0,15.72,17.76,16.92,40.32,1.92,36.24,21.36,73.56,58.68,73.56,20.64,0,32.04-9.96,32.04-9.96-5.16,18.84-37.31995,31.2-37.31995,31.2s17.15994,15.96,42.48,15.96c39.6,0,45.24-41.88,87.48-41.88,32.4,0,60.36,27.96,111.84,27.96,130.2,0,204.96-136.92,211.08-189.48h-138.48s-17.88,54.84-58.2,54.84c-36.24,0-55.92-27.24-55.92-69.36,0-53.52,43.08-144.72,109.44-144.72,24.24,0,30.96,19.8,30.96,36a102.099,102.099,0,0,1-5.4,31.92Z" fill="#f3bc52"/><path d="M571.32,191.75995s3.24-11.4,3.24-30c0-78.48-66.36-142.56-154.92-142.56C351,19.2,296.88,72.72,252.96,72.72c-16.44,0-27-15.12-27-15.12s1.2,34.08,45.6,52.32C217.68,107.4,203.64,71.4,162,71.4c-41.16,0-56.76,32.52-56.76,32.52s10.8-10.44,26.88-10.44c39.96,0,37.44,40.08,86.75995,75-28.32,0-39.24-15.24-73.8-15.24-68.88,0-53.88,45.48-107.76,58.2,0,0,10.32,7.56,26.28,7.56,37.92,0,38.16-18.48,65.28-18.48,27.72,0,23.64,19.92,56.64,43.2-7.68,2.4-30.36-14.76-53.16-14.76-22.56,0-34.8,15.72-38.4,36.72s-14.76,26.4-14.76,26.4c22.68,1.32,24.36-22.92,40.68-22.92,15.48,0,25.32,21.24,45.24,25.2,15.96,3.24,35.04,7.68,42.24,19.32-33.96,3.24-40.56,20.4-70.8,20.4a56.53613,56.53613,0,0,1-48.72-26.76c-1.8,39.96,24.48,93.48,70.8,93.48,24.24,0,41.64-8.52,59.28.96-56.76,16.08-33.96,64.44-72.72,82.56a40.52258,40.52258,0,0,0,16.44,3.24c32.76,0,38.76-43.92,87.48-43.92,36.12,0,63.48,28.2,111.72,28.2,106.08,0,183.36-108.6,192.36-160.8H443.52s-20.28,55.56-68.16,55.56c-46.56,0-70.8-35.4-70.8-84.24,0-69.6,54.48-159.36,124.2-159.36,30.48,0,46.56,26.16,46.56,49.32,0,12-3.12,19.44-3.12,19.44Z" fill="#ce1126"/><path d="M191.04,406.43994c-22.56-8.28-36.84,8.16-57.12,8.16-36,0-37.2-43.2-62.04-51.12,0,0,5.88,12.48,5.88,20.16,0,13.8,8.28,66.84,46.92,66.84C157.2,450.48,156.24,424.67993,191.04,406.43994Zm-25.44-271.08s-19.2-25.92-49.56-25.92c-38.28,0-49.92,31.56-72.84,33.96,0,0,7.68,14.16,31.68,14.16C124.92,157.55994,118.92,121.2,165.6,135.35992Z" fill="#ce1126"/><path d="M157.08,309.84s-10.32,5.88-21.12,5.88c-20.52,0-29.28-13.68-29.28-13.68,6.6-1.32,9.12-11.88,15.84-11.88C128.16,290.16,129.96,303.48,157.08,309.84Zm-59.04-9.48s10.56,21.48,38.4,21.48c18.48,0,30.96-10.44,34.56-12.12-39-12.84-39.72-26.52-49.32-26.52C112.8,283.2,107.28,298.32,98.04,300.36Z" fill="#111"/></svg>