<svg id="Layer_1" data-name="Layer 1" xmlns="http://www.w3.org/2000/svg" xmlns:xlink="http://www.w3.org/1999/xlink" viewBox="0 0 594.96002 516.95999"><defs><clipPath id="clip-path"><rect y="0.00006" width="595.32001" height="517.07994" fill="none"/></clipPath><clipPath id="clip-path-2"><rect x="403.31998" y="62.52002" width="191.99997" height="299.04001" fill="none"/></clipPath></defs><title>ChicagoBlackhawksLogo</title><g clip-path="url(#clip-path)"><path d="M591.72,337.56c0-21.72,21.24-102.24-133.44-223.92l26.04-5.88L470.88,63.72,445.2,80.88V54.24H394.56C361.44,30.36,345.6,0,293.64,0c-21.72,0-44.52,4.32-49.56,4.32-3.72,0-15.36-2.52-35.04-2.52-56.88,0-62.04,42.48-54.96,57.36C79.32,110.28,42.36,147.24,42.36,160.56c0,5.16,3,11.88,3,21.48,0,21-45.36,67.32-45.36,91.92,0,22.8,29.04,24.36,29.04,24.36,1.68,6.72-9.6,29.16.48,40.56C15.48,354.24,31.92,361.8,31.92,373.92c0,8.28-5.75995,10.8-5.75995,25.92C26.16,417.12,34.32,438,76.92,438c16.92,0,31.8-2.64,43.68005-2.64,3.36,35.76,18.6,49.8,21.12,58.8,2.04,7.2,6.72,22.8,16.2,22.8,12.36,0,80.64-22.44,132.48-53.88,25.92,9.6,59.04,6.48,71.04,6.48,13.08,0,18.48,8.04,26.28,8.04,4.56,0,39.72-39.36,37.68-125.52,22.08,37.32,35.16,61.56,36.36,75.48,28.68-10.2,52.8-77.88,42.36-121.08,0,0,36.12,58.56,90.84,49.92C594.72,356.64,591.72,345.84,591.72,337.56Z"/></g><path d="M247.8,391.08c13.2-20.4,5.76-55.32-19.44-45.6-14.64-23.76-31.08-56.04-31.08-95.76,0-42.36,8.64-53.4,8.64-90.84,0-63.72-29.52-76.32-48.36-89.16-45.12,30.48-104.88,72.24-104.88,94.56,0,6.48,2.88,12.72,2.88,19.08,0,23.04-44.76,67.8-44.76,89.4,0,8.16,6.48,14.88,16.8,14.88,10.44,0,36.96-3.72,46.92-4.92,9.96-.96,11.04-5.88,11.04-8.4,0-6.48-10.2-15.48-18-15.48-6.48,0-7.08,3.72-7.08,4.68,0,4.32,6.12,5.52,6.12,5.52,7.8-1.08,7.8,5.76.48,5.76-6.12,0-12.96-4.56-12.96-12.24,0-7.8,6.24-9.72,10.92-9.72,19.32,0,30.48,17.52,27.24,28.68,24,11.88,23.28,29.4,19.32,29.4-8.28,0-2.52-22.08-33.72-22.08-8.76,0-27.12,2.64-31.44,3.12s-5.52,1.08-6.12,4.68c-.48,3.48-5.04,16.44-5.04,24.36,0,11.76,7.8,12.48,12.84,12.48,13.2,0,35.52-3.12,35.52-8.4,0-3.36-5.64-2.4-7.8-2.4-3.96,0-5.76-2.4-5.76-3.84,0-3.48,5.76-5.16,12.48-5.16,11.16,0,12.36,7.32,11.76,10.8-1.2,7.44,10.92,5.64,10.92,21.72,0,1.8-.12,6.36-3.96,6.36s-3.84-4.8-3.84-7.44-4.44-6.84-8.16-6.84c-3.96,0-18.36,7.32-49.44,4.56-12.12,15.36,2.28,16.44,2.28,32.04,0,17.28-5.28,16.2-5.28,26.76,0,21.12,23.04,26.52,46.08,26.52,47.76,0,101.52-11.04,120.48-45.12-6.48,30.12-30.72,40.92-72.12,50.28,4.68,33.48,11.64,41.28,16.68,50.28,5.04,9.12,6.12,21.72,15,21.72,10.68,0,73.44-22.56,115.68-48.12Z" fill="#d18a00"/><path d="M148.8,161.16c-21.24,0-28.2-22.8-54.96-22.8-14.28,0-21.72,5.64-21.72,10.44,0,4.68,5.52,8.87994,5.52,8.87994,2.76,5.88007-15.84,12.24-6.12,16.2l12,4.68c-3.84,6.84-1.32,19.44-.6,22.68-24.6.12-22.2,7.8-.84,8.16,0,3.48-2.4,12.84,1.32,12.84,4.08,0,9.24-4.68,11.16-13.68,18-2.16,38.16-8.28,38.16-8.28,3.6-1.08,7.2-4.32.24-8.4l-32.88-19.44s-2.88-1.68-.96-5.87994l2.52-5.88007a3.45049,3.45049,0,0,1,3.36-2.04c9.36,0,23.4,14.04,42.12,14.04,8.04,0,17.04-4.68,17.04-9.24S153,161.16,148.8,161.16Zm6.72-29.28a3.45971,3.45971,0,0,0,4.92.48,3.63112,3.63112,0,0,0,.48-4.92,189.18217,189.18217,0,0,0-22.44-21.84c1.56-1.2,3.48-2.64,5.64-4.32,5.4,4.56,26.52,22.68,39.84,39.12a3.464,3.464,0,0,0,4.92.6,3.5731,3.5731,0,0,0,.6-4.92c-13.08-16.08-32.52-33.12-39.6-39.12,2.28-1.68,4.32-3.24,5.4-3.96,14.16,10.32,22.32,20.28,22.32,20.4a3.47627,3.47627,0,0,0,4.92.6,3.62,3.62,0,0,0,.6-5.04c-.36-.48-9.48-11.64-25.92-23.16a3.42372,3.42372,0,0,0-4.08.12L130.8,102.6c-2.16,1.56-1.68,4.2-.12,5.64A189.20506,189.20506,0,0,1,155.52,131.88Zm32.64,192.96c-9.12-9.96-22.92-38.88,4.44-63.6C171.72,255.6,143.04,311.52,188.16,324.84Z"/><path d="M152.4,221.04c-8.16,2.16-15.6,10.32-30.48,14.28-5.4,1.32-15,0-17.88,0,2.28,3,8.16,8.28,8.16,8.28a48.04592,48.04592,0,0,0-2.64,9.12c2.4-1.44,9.6-5.76,15.12-7.2,14.76-3.96,25.32-.48,33.48-2.64,3.84-1.08,10.8-3,8.04-13.92C163.32,218.28,156.24,219.96,152.4,221.04ZM65.28,359.64c-2.28,1.2,7.08,20.76,5.4,29.52,1.44,3.96,7.32,18.48,17.16,13.44,9.96-5.04,1.56-18.24-.84-21.72C78.84,377.04,67.68,358.44,65.28,359.64ZM97.8,184.08c-1.8,6.84-.48,14.64,0,16.8,21.12-1.32,29.76-5.16,29.76-5.16Z" fill="#fff"/><path d="M404.4,107.4c-75.48,56.52-116.04,140.64-128.28,169.44a8.29212,8.29212,0,0,0,.24,7.08l23.88,46.56a2.87732,2.87732,0,0,0,4.8.72l39.24-35.4a15.05755,15.05755,0,0,0,3.6-6.48C365.76,186.84,389.88,136.68,405,114a18.26947,18.26947,0,0,1-.72-5.04A7.38164,7.38164,0,0,0,404.4,107.4ZM139.68,250.32c-2.4.6-6.12,2.64-12.12,4.32-6.12,1.56-13.68,1.68-14.88-3a2.46486,2.46486,0,0,1,0-1.32c.48-3.72,5.88-8.64,5.88-8.64s-7.2-1.68-9.48-4.8a2.32009,2.32009,0,0,1-.6-1.08c-1.2-4.56,5.52-8.28,11.52-9.84,6-1.68,10.32-1.68,12.72-2.28,4.92-1.32,9-4.56,8.04-8.4-2.04-7.2-11.4-5.4-16.56-4.08-25.8,6.84-31.56,17.4-29.64,24.84,1.92,7.32,10.32,9.24,10.32,9.24s-6.36,5.76-4.44,13.08,12.12,13.68,38.04,6.96c5.16-1.44,14.16-4.44,12.36-11.64C149.76,249.72,144.48,249,139.68,250.32ZM75.84,354.84c-4.44-6.12-6.84-.6-11.52,1.92-4.68,2.28-10.68,1.08-8.16,8.16,2.76,7.8-2.88,23.52-.48,28.32,2.04,3.72,6.24,5.28,9.72,3.48a10.33438,10.33438,0,0,0,5.28-7.68c1.68-8.76-3.36-20.76-1.08-22.08,2.28-1.2,9.24,10.08,17.4,13.8a10.3965,10.3965,0,0,0,9.24.24c3.48-1.8,4.68-6.24,2.76-10.08C96.6,366.12,80.52,361.44,75.84,354.84Zm163.32-6.24c-9-2.64-19.8,6.84-23.88,21.12-4.2,14.28-.24,27.96,8.76,30.6s19.8-6.84,23.88-21.12C252.12,364.92,248.16,351.12,239.16,348.6Z" fill="#cf0a2c"/><path d="M425.04,93.24005a15.72046,15.72046,0,1,0,15.84,15.72A15.82812,15.82812,0,0,0,425.04,93.24005ZM282,279.36l21.48,46.2,38.88-36s18.84-109.56,52.32-169.92C306.24,205.32,282,279.36,282,279.36Zm129.36-154.92a18.78061,18.78061,0,0,1-3.72-4.44c-24.24,38.64-55.08,135.6-55.08,218.52,0,84.84,26.04,129.96,35.4,129.96,7.2,0,32.64-45.48,32.64-104.04,0-15.96-13.44-80.16-13.44-200.52C407.16,138.12006,409.08,131.16,411.36,124.44006ZM466.92,77.4,446.64,90.84l4.8,15.36,22.68-5.04Z" fill="#00833e"/><path d="M363.6,122.04c5.16,0,4.56-7.08-.36-7.08-75.48,0-118.68,9.6-125.4,11.16-4.2-36.96-25.44-48.84-25.44-72.72,0-9.36,6.12-11.16,11.16-11.16,17.64,0,30.84,20.64,55.32,20.64,22.8,0,27.6-16.08,40.68-16.08,19.44,0,10.8,51.72,45.36,51.72a37.7917,37.7917,0,0,0,18-4.32c4.68-2.64.24-8.16-3.72-6.12,0,0-6.96,3.6-13.68,3.6-29.16,0-16.44-51.96-46.68-51.96-14.52,0-19.44,16.08-40.32,16.08-23.4,0-32.64-21-55.8-21-13.2,0-18,8.76-18,17.64,0,26.52,26.16,46.68,26.16,83.04,0,36.96-12.6,69.48-12.6,120.84,0,59.76,56.88,77.4,56.88,133.2,0,31.56,12.12,51,25.68,51,7.44,0,14.4-4.32,17.64-15.96a13.28508,13.28508,0,0,0,5.28,1.2c3.84,0,17.88-4.08,17.88-20.64,0-47.64-81.72-72.24-81.72-146.76,0-35.88,5.76-93.12,14.52-93.12,4.68,0,10.44,20.04,21.48,20.04,13.56,0,8.88-39.6,14.88-39.6,4.92,0,12.12,18.48,20.88,18.48,6.96,0,9.24-14.4,12.24-25.68005,1.2-5.28-6.24-6.72-7.32-1.31995-1.92,8.28-5.88,19.44-5.88,19.44-4.44-4.44-11.64-18-20.28-18-13.92,0-11.88,39.47995-15,39.47995-5.76,0-9.48-20.52-22.08-20.52-16.32,0-21,56.52-21,101.04,0,78.36,81.72,104.64,81.72,145.68,0,10.32-7.56,13.8-10.56,13.8a10.73722,10.73722,0,0,1-3.72-.72,56.44876,56.44876,0,0,0,.72-9.48c0-24.12-13.32-28.68-18.72-28.68s-8.52,4.68-8.52,12.48c0,10.44,9.24,22.08,18.24,28.68-1.32,6.48-4.2,12.48-10.2,12.48-11.76,0-18.48-27.24-18.48-43.56,0-58.8-56.88-75.84-56.88-134.76,0-50.04,12.72-82.2,12.72-115.44,0-2.04-.12-4.08-.12-6C246.24,131.28009,294.96,120.36,363.6,122.04Z" fill="#ffd100"/><path d="M303.12,386.64c-1.08,0-2.16,1.56-2.16,5.52,0,4.56,5.16,14.04,11.52,20.4.24-3.24.24-6,.24-7.44C312.72,399.84,309.72,386.64,303.12,386.64Z"/><path d="M401.64,140.64s-43.08,90.6-43.08,196.08c0,69.84,21.72,123.12,27.72,123.12,4.68,0,26.76-33.24,26.76-102.6C413.04,329.28,397.92,222.72,401.64,140.64Z" fill="#ffd100"/><path d="M379.32,325.2l-17.04,11.64a323.73249,323.73249,0,0,0,3.24,46.32l15.24-9.6C379.92,363.36,379.2,347.16,379.32,325.2Zm6.6,48.36,21.84,14.64a293.29175,293.29175,0,0,0,1.68-30.84c0-3.48-.24-7.68-.48-12.6l-24.48-16.8C384.36,348.72,385.2,364.08,385.92,373.56ZM366,387.36c1.2,8.04,2.64,15.6,4.32,22.32,2.4,2.76,9.36,7.68,15.24-9.96,9.96,16.56,16.2,14.4,18.12,12.96a192.31951,192.31951,0,0,0,3.6-20.16L383.4,376.68ZM387.36,202.8c.6-4.68-3.36-3.96-4.2-1.2a535.00035,535.00035,0,0,0-16.92,78.48l15.12-11.64C382.8,246.6,384.72,224.64,387.36,202.8Zm-3,120.24,24.12,16.68c-.84-13.44-2.64-30.72-4.44-50.04l-18-13.44C385.08,291.84,384.6,307.44,384.36,323.04Zm8.28-120.36q-4.14,34.38-6.36,69l17.4,12.84c-2.28-25.56-4.8-54.12-5.88-81.48C397.68,199.2,393.36,195.48,392.64,202.68Zm-11.52,70.8-15.6,12a449.97171,449.97171,0,0,0-3.24,46.56l17.16-11.64C379.56,306.72,379.92,291.12,381.12,273.48Z" fill="#00833e"/><path d="M311.04,229.68a407.10072,407.10072,0,0,0-22.68,43.8c-1.44,3.72-2.04,5.76-2.04,5.76l18.36,39.6,33.84-31.56c.36-1.68,3.48-18.6,8.64-41.4,7.68-32.16,20.4-79.44,34.32-108.12A649.98413,649.98413,0,0,0,311.04,229.68Z" fill="#cf0a2c"/><path d="M435.12,108.96a10.08,10.08,0,1,1-10.08-10.08A10.06333,10.06333,0,0,1,435.12,108.96Z" fill="#cf0a2c"/><path d="M356.88,174.48a1.75481,1.75481,0,0,0-2.4.72c-6.6,12.96-12.72,26.04-18.36,39.36l-21.6,9.48c-1.2,1.92-2.28,3.72-3.36,5.52l22.8-10.08c-6,13.92-10.8,26.64-14.76,37.56l-28.68,11.64c-.72,1.56-1.44,3.12-2.04,4.8l29.04-11.76c-8.88,25.32-12.6,40.92-12.72,41.16a1.845,1.845,0,0,0,1.44,2.04,1.66627,1.66627,0,0,0,1.32-.24,1.52663,1.52663,0,0,0,.84-1.08c.12-.24,3.6-15.24,12.12-39.72l15.36,25.92,2.64-2.52h.12l-16.56-27.84c3.6-10.08,7.92-21.48,13.2-34.08l12,20.52c.36-1.8.72-3.48,1.2-5.28l-11.4-19.44c5.88-13.68,12.6-28.56,20.64-44.28A1.95637,1.95637,0,0,0,356.88,174.48Z" fill="#fff"/><g clip-path="url(#clip-path-2)"><path d="M559.56,227.88c-36.12-58.2-99.24-106.92-113.76-117.84-.24,3.36-3.48,8.88-5.04,11.64-1.92,2.04-4.2,4.56-5.4,5.28,2.52,9.96,6.36,24.36,11.52,40.92,7.56,18.48,16.08,41.28,23.28,65.04a401.31624,401.31624,0,0,0,28.44,56.52c44.88,72,89.52,62.04,89.52,62.04C580.44,339.24,603,297.72,559.56,227.88Zm-123-165.36H403.32l21.24,23.04h12Z" fill="#ff671b"/></g><path d="M546.12,231.96C517.68,186,456.84,131.4,443.04,119.28a20.04293,20.04293,0,0,1-3.12,4.2c8.76,24.6,42.6,117.24,73.8,167.4,30.36,48.96,60.12,46.56,60.12,46.56S583.8,292.68,546.12,231.96Z" fill="#fff"/><path d="M444.6,125.64c4.8,13.44,14.4,39.48,26.16,68.28L474,176.4l-15.48-24.84a1.964,1.964,0,0,1-.24-1.44,1.91479,1.91479,0,0,1,.84-1.08,1.86225,1.86225,0,0,1,2.52.6l14.88,23.76,22.92,5.76C477.48,155.64,455.4,135.24005,444.6,125.64Z" fill="#ff671b"/><path d="M526.68,303.24,535.92,276l-29.64-47.64-9.12,24.6c6.48,13.2,13.08,25.56,19.56,36A153.59631,153.59631,0,0,0,526.68,303.24ZM509.4,226.68l29.64,47.52L564,278.76a194.32829,194.32829,0,0,0-19.08-41.64Zm61.32,107.04c.84-6.96,2.04-25.44-5.52-51l-23.52-4.32,13.8,22.32a1.69733,1.69733,0,0,1-.6,2.52,1.80794,1.80794,0,0,1-2.52-.6l-14.04-22.68L529.44,306.6C547.92,328.56,564.36,332.76,570.72,333.72ZM473.28,200.16c6.72,15.96,14.04,32.64,21.6,48.24l8.88-24-26.88-43.32Zm5.88-22.2L506.52,222l35.52,10.44c-9.96-15.84-23.76-32.64-38.16-48.36Z" fill="#ff671b"/><path d="M94.8,156.36l-13.44,3.6c-2.76.72-2.88,2.28-.24,3.6l10.2,4.92a2.34037,2.34037,0,0,0,1.56.12,2.62687,2.62687,0,0,0,1.2-1.08l3.48-8.04C98.52,157.08,97.32,155.76,94.8,156.36Z" fill="#d18a00"/><path d="M236.4,358.08c5.04,1.44,6.96,9.96,4.32,19.08-2.64,9-8.76,15.24-13.8,13.68-5.04-1.44-6.96-9.96-4.32-18.96C225.24,362.76,231.36,356.64,236.4,358.08Z" fill="#d18a00"/><path d="M470.16,232.92c-7.2-23.64-15.72-46.44-23.28-64.92-5.16-16.68-9-31.08-11.52-41.04a21.38619,21.38619,0,0,1-14.64,2.28,22.69088,22.69088,0,0,1-5.4-2.04c-6.36,148.56,8.4,174.36,11.04,216.72,37.44,59.16,38.88,76.44,38.88,76.44s43.8-30.72,33.72-121.92c-1.44-2.04-2.88-4.2-4.2-6.48q-9.36-15.3-17.28-31.32Z" fill="#ffd100"/><path d="M482.52,285.6c-1.32-8.4-3-16.8-5.04-25.08-2.16-9.12-4.68-18.48-7.44-27.6-7.2-23.64-15.72-46.44-23.28-64.92-7.44-18.12-13.92-32.16-17.04-38.88a19.99821,19.99821,0,0,1-4.68.6,17.03953,17.03953,0,0,1-4.32-.48c-1.44,16.08-6.48,84.36,3.24,145.92,13.92,88.32,47.52,120.24,47.52,120.24S494.64,362.16,482.52,285.6Z" fill="#001970"/><path d="M482.04,324.72l-25.56-13.8c2.04,7.92,7.56,30.96,9,36.72l13.92,12A173.04228,173.04228,0,0,0,482.04,324.72Zm-3.36,39.24-14.4-12.36-8.04,14.64a143.005,143.005,0,0,0,14.52,22.44A109.67267,109.67267,0,0,0,478.68,363.96ZM449.76,270c2.76,17.16,4.92,30.72,5.76,35.88l26.52,14.4a283.64125,283.64125,0,0,0-3.24-33.72Zm-5.52-35.4c1.68,10.56,3.36,21,4.8,30.6l28.92,16.44c-1.8-10.44-4.2-21.24-7.2-32.04Zm17.52,113.76c-.36-1.2-6.96-28.32-9.12-36.96l-12.6,15.48a244.09287,244.09287,0,0,0,14.16,35.16C456.6,357.6,461.28,349.32,461.76,348.36Zm-30-192.84s6,37.92,11.64,74.28l25.92,14.52c-9.6-34.56-23.16-68.4-32.88-90.84C435.36,150.6,431.04,151.2,431.76,155.52Zm-7.2,92.88c.72,8.76,1.92,17.52,3.24,26.16.48,2.4.72,4.92,1.2,7.2l16.32-16.08L440.28,234Zm27.12,58.2-5.76-36.24-16.08,15.96c2.64,13.56,5.64,25.44,8.88,36.24Zm-12.24-77.28-11.52-73.2c-.6-3.24-4.92-2.88-5.16,1.92-.84,22.2-1.32,53.52,1.44,85.56Z" fill="#ffd100"/></svg>