<svg id="Layer_1" data-name="Layer 1" xmlns="http://www.w3.org/2000/svg" viewBox="0 0 31.2117 34.88141"><title>Toronto Maple Leafs 2016 logo</title><path d="M16.30969,21.683h-.506v.949h.506a.17327.17327,0,0,0,.174-.173v-.602a.17413.17413,0,0,0-.174-.174" fill="#003976"/><path d="M12.57018,18.17314q.258-.045.516-.085a.247.247,0,0,0,.206-.283l-.113-.701a.251.251,0,0,0-.285-.207c-.173.027-.345.056-.517.085l-.042.008.192,1.191Z" fill="#003976"/><path d="M15.49029,18.879c.124-.001.247-.001.373,0a.2469.2469,0,0,0,.247-.247V16.937a.25035.25035,0,0,0-.247-.251c-.125-.001-.249-.001-.374,0a.25055.25055,0,0,0-.248.251v1.695a.248.248,0,0,0,.249.247" fill="#003976"/><polygon points="15.54 25.489 15.236 26.681 15.844 26.681 15.54 25.489" fill="#003976"/><polygon points="13.163 22.931 13.699 22.931 13.431 21.739 13.163 22.931" fill="#003976"/><path d="M24.30587,18.82934c-.11-.057-.22-.115-.331-.171a.24748.24748,0,0,0-.113-.027.25006.25006,0,0,0-.223.135l-.778,1.507a.24581.24581,0,0,0,.107.333c.111.057.221.113.331.171a.24142.24142,0,0,0,.115.028.24386.24386,0,0,0,.219-.134l.779-1.506a.25068.25068,0,0,0-.106-.336" fill="#003976"/><path d="M31.20486,13.67225a.05567.05567,0,0,0-.029-.079,6.34872,6.34872,0,0,0-1.362-.362.05381.05381,0,0,1-.04-.077,9.7332,9.7332,0,0,0,.783-2.501.05581.05581,0,0,0-.067-.065,15.23774,15.23774,0,0,0-2.56.979.05183.05183,0,0,1-.073-.035,5.75247,5.75247,0,0,0-.536-1.583.0551.0551,0,0,0-.08-.017,13.81559,13.81559,0,0,0-2.225,1.993.05373.05373,0,0,1-.086-.009,2.463,2.463,0,0,0-.672-.729.054.054,0,0,0-.072.01,21.53178,21.53178,0,0,1-4.152,4.068.04667.04667,0,0,1-.072-.051,22.664,22.664,0,0,1,1.566-3.647.05273.05273,0,0,0-.035-.076,5.8367,5.8367,0,0,0-.875-.104.05213.05213,0,0,1-.041-.081,13.5528,13.5528,0,0,0,1.646-3.593.05026.05026,0,0,0-.051-.066,7.31942,7.31942,0,0,0-1.962.378.05067.05067,0,0,1-.067-.057,9.45494,9.45494,0,0,0-.1-3.242.05322.05322,0,0,0-.071-.04,8.7387,8.7387,0,0,0-1.376.683.0519.0519,0,0,1-.079-.048,10.019,10.019,0,0,0-.246-2.889.04984.04984,0,0,0-.065-.036,6.08156,6.08156,0,0,0-1.037.512.05305.05305,0,0,1-.078-.028,14.77779,14.77779,0,0,0-1.438-2.854.05433.05433,0,0,0-.093,0,14.728,14.728,0,0,0-1.439,2.854.053.053,0,0,1-.078.028,6.11122,6.11122,0,0,0-1.036-.512.04948.04948,0,0,0-.065.036,9.98439,9.98439,0,0,0-.247,2.889.0519.0519,0,0,1-.079.048,8.7374,8.7374,0,0,0-1.376-.683.05323.05323,0,0,0-.071.04,9.47934,9.47934,0,0,0-.1,3.242.05066.05066,0,0,1-.067.057,7.31216,7.31216,0,0,0-1.962-.378.05064.05064,0,0,0-.051.066,13.55377,13.55377,0,0,0,1.646,3.593.05175.05175,0,0,1-.04.081,5.85151,5.85151,0,0,0-.876.104.05273.05273,0,0,0-.035.076,22.47225,22.47225,0,0,1,1.569,3.653.04631.04631,0,0,1-.07.051,21.63724,21.63724,0,0,1-4.157-4.074.05288.05288,0,0,0-.071-.01,2.44974,2.44974,0,0,0-.672.729.05473.05473,0,0,1-.087.009,13.80791,13.80791,0,0,0-2.224-1.993.05621.05621,0,0,0-.081.017,5.82008,5.82008,0,0,0-.536,1.583.05156.05156,0,0,1-.073.035,15.22685,15.22685,0,0,0-2.559-.979.0552.0552,0,0,0-.067.065,9.73151,9.73151,0,0,0,.782,2.501.05335.05335,0,0,1-.04.077,6.34872,6.34872,0,0,0-1.362.362.05563.05563,0,0,0-.029.079,8.7034,8.7034,0,0,0,1.924,2.346.05294.05294,0,0,1-.007.087,4.39069,4.39069,0,0,0-.811.624.05741.05741,0,0,0,0,.079,19.67929,19.67929,0,0,0,3.045,2.449.05427.05427,0,0,1,.004.089,6.748,6.748,0,0,0-1.071,1.008.05456.05456,0,0,0,.006.075,9.60905,9.60905,0,0,0,2.772,1.712.055.055,0,0,1,.013.095,5.69629,5.69629,0,0,0-.967.936.055.055,0,0,0,.018.084,9.59447,9.59447,0,0,0,2.631.814.04153.04153,0,0,1,.005.081,17.76414,17.76414,0,0,0-3.409,1.461.05481.05481,0,0,0-.006.092,10.727,10.727,0,0,0,2.518,1.455.05428.05428,0,0,1,.015.093,17.256,17.256,0,0,0-3.225,3.533.05578.05578,0,0,0,.052.087,26.29121,26.29121,0,0,0,3.547-.653.05085.05085,0,0,1,.06.073,14.14818,14.14818,0,0,0-.606,1.416.05522.05522,0,0,0,.058.074,28.4401,28.4401,0,0,0,3.083-.468.05361.05361,0,0,1,.056.082,7.09234,7.09234,0,0,0-.818,1.79.05564.05564,0,0,0,.063.071,22.7331,22.7331,0,0,0,5.577-1.775.06986.06986,0,0,1,.099.06,5.1468,5.1468,0,0,0,1.421,3.315.07459.07459,0,0,0,.106.004l1.072-.989a.08047.08047,0,0,0,.007-.113c-.212-.243-1.188-1.35-1.016-2.192a.16308.16308,0,0,1,.226-.112,31.30388,31.30388,0,0,0,5.809,1.802.05374.05374,0,0,0,.061-.069,7.04271,7.04271,0,0,0-.819-1.792.05361.05361,0,0,1,.056-.082,28.518,28.518,0,0,0,3.083.468.05612.05612,0,0,0,.059-.074,14.381,14.381,0,0,0-.607-1.416.05086.05086,0,0,1,.06-.073,26.32079,26.32079,0,0,0,3.547.653.05555.05555,0,0,0,.052-.087,17.25084,17.25084,0,0,0-3.224-3.533.05414.05414,0,0,1,.014-.093,10.75245,10.75245,0,0,0,2.519-1.455.05531.05531,0,0,0-.007-.092,17.71,17.71,0,0,0-3.409-1.461.04187.04187,0,0,1,.005-.081,9.6013,9.6013,0,0,0,2.632-.814.05475.05475,0,0,0,.017-.084,5.68938,5.68938,0,0,0-.966-.936.05453.05453,0,0,1,.012-.095,9.60848,9.60848,0,0,0,2.772-1.712.05269.05269,0,0,0,.006-.075,6.78373,6.78373,0,0,0-1.07-1.008.05374.05374,0,0,1,.003-.089,19.68049,19.68049,0,0,0,3.045-2.449.05552.05552,0,0,0,0-.079,4.35732,4.35732,0,0,0-.811-.624.05294.05294,0,0,1-.007-.087,8.68537,8.68537,0,0,0,1.924-2.346m-9.969,3.869c-.228-.073-.459-.146-.688-.215l.175-.52c.668.203,1.339.428,1.995.67l-.174.52c-.226-.083-.454-.165-.68-.243l-.041-.015-.873,2.599c-.181-.063-.364-.124-.546-.183l.874-2.599Zm-1.021,3.605h1.652v.536h-1.091v.624h.742v.538h-.742v.624h1.091v.537h-1.652Zm-.295,5.777h.566v.121a.17435.17435,0,0,0,.175.174h.465a.17521.17521,0,0,0,.176-.174v-.177a.1915.1915,0,0,0-.093-.155c-.015-.007-1.016-.453-1.016-.453a.53246.53246,0,0,1-.273-.504v-.294a.56849.56849,0,0,1,.571-.566h.804a.56935.56935,0,0,1,.572.566v.266h-.567v-.12a.17521.17521,0,0,0-.176-.174h-.465a.17519.17519,0,0,0-.175.175v.063a.18979.18979,0,0,0,.094.154c.014.007,1.015.454,1.015.454a.52847.52847,0,0,1,.274.502v.41a.5685.5685,0,0,1-.572.565h-.804a.567.567,0,0,1-.571-.565Zm-.947-8.578.316-1.864c.19.035.379.072.565.109l-.549,3.242c-.149-.029-.299-.058-.448-.086-.21-.622-.423-1.253-.636-1.875l-.055-.16-.316,1.863c-.189-.03-.38-.057-.568-.083l.548-3.243c.151.021.302.042.452.066.213.618.427,1.246.637,1.869Zm-.15,7.712v.538h-.876v1.161h-.565v-2.861h1.793v.538h-1.228v.624Zm-.929-2.052v-2.859h.56v2.322h1.035v.537Zm-5.505-13.459a9.59143,9.59143,0,0,0,3.01,2.876.00871.00871,0,0,0,.01-.001l.003-.006c-.012-.887-.004-1.786.024-2.672a.09714.09714,0,0,0-.037-.077,5.90513,5.90513,0,0,1-1.642-1.939l.015-.009a6.4974,6.4974,0,0,0,1.654,1.753.01223.01223,0,0,0,.019-.01c.012-.324.022-.593.035-.848.046-.742.082-1.513.11-2.292a.11448.11448,0,0,0-.027-.076,11.012,11.012,0,0,1-1.325-1.943l.016-.009a11.46317,11.46317,0,0,0,1.328,1.701l.007.004a.00974.00974,0,0,0,.01-.011c.038-1.201.052-2.405.041-3.58l.018-.001c.098,1.107.145,3.467.109,5.488a.01394.01394,0,0,0,.005.01.01681.01681,0,0,0,.019.004,7.5971,7.5971,0,0,0,1.633-1.129l.012.013a6.79111,6.79111,0,0,1-1.646,1.317.0532.0532,0,0,0-.028.045c-.003.177-.007.339-.011.493-.053,1.14-.054,2.491-.001,4.129a.0135.0135,0,0,0,.021.011,10.51448,10.51448,0,0,0,2.981-3.054l.016.008a10.15621,10.15621,0,0,1-2.99,3.346.043.043,0,0,0-.017.036c.009.255.019.515.03.771a.02985.02985,0,0,1-.008.02.02737.02737,0,0,1-.019.008l-.291-.001a.02716.02716,0,0,1-.026-.026c-.013-.365-.023-.741-.03-1.149a.03031.03031,0,0,0-.016-.027,9.31707,9.31707,0,0,1-3.026-3.164Zm.956,15.511v.538h-.874v.623h1.228v.538h-1.795v-2.861h1.795v.538h-1.228v.624Zm-.303-2.589-.121.537h-.576l.704-2.859h.763l.705,2.859h-.577l-.12-.537Zm2.112,1.427h.771l.775,2.861h-.582l-.137-.538h-.882l-.137.538h-.582Zm-.504-6.076v-2.041a.63693.63693,0,0,1,.624-.638c.134-.002.268-.002.402-.002s.268,0,.402.002a.63692.63692,0,0,1,.624.638v2.041a.607.607,0,0,1-.623.609c-.441-.004-.748,0-.814,0a.60575.60575,0,0,1-.615-.609m1.828,4.35h-.674v.836h-.561v-2.859h1.235a.56506.56506,0,0,1,.566.564v.894a.56591.56591,0,0,1-.566.565m-3.475-6.843a.58214.58214,0,0,1,.092-.008.64079.64079,0,0,1,.626.537l.168,1.042a.60789.60789,0,0,1-.364.657l-.049.021.031.044c.203.289.408.578.612.87-.185.024-.373.051-.559.078q-.312-.4395-.622-.876l-.016-.022-.026.004c-.08.014-.16.027-.239.041l-.042.007.157.974c-.188.032-.378.067-.566.104l-.524-3.247c.436-.084.881-.16,1.321-.226m-1.843,10.892v.538h-1.674v-2.861h.566v2.323Zm-.101-3.213v-1.319l-.507,1.144-.506-1.144v1.319h-.56v-2.859h.446l.62,1.433.621-1.433h.446v2.859Zm-5.549-8.178a.04762.04762,0,0,0-.034-.014c-.03.001-.058.001-.086.001a4.332,4.332,0,0,1-2.325-.657l.008-.014a4.48426,4.48426,0,0,0,1.954.482c.09,0,.181-.003.272-.009-.159-.159-.302-.297-.438-.424a33.85166,33.85166,0,0,1-2.322-2.473l.012-.012c.765.8,1.43,1.457,2.032,2.012l.008-.003a2.93213,2.93213,0,0,0-.124-1.465l.015-.006a3.02556,3.02556,0,0,1,.288,1.597.06965.06965,0,0,0,.024.06c.543.48,1.059.963,1.532,1.434l.003-.001a3.20533,3.20533,0,0,0-.553-1.828l.014-.01a3.13831,3.13831,0,0,1,.765,2.034.0882.0882,0,0,0,.025.06c.075.077.148.153.219.226a.02629.02629,0,0,1,.006.021.0227.0227,0,0,1-.013.016l-.199.093-.011.003a.02791.02791,0,0,1-.02-.008c-.402-.44-.747-.804-1.052-1.115m2.693,5.489-1.26-2.433-.038.02c-.213.113-.426.228-.634.345l-.252-.487c.61-.34,1.239-.665,1.869-.968l.253.486c-.217.104-.434.212-.648.32l-.039.019,1.26,2.434c-.171.087-.342.176-.511.264m.996-4.041c.251-.089.507-.176.761-.259a.62.62,0,0,1,.191-.03.6486.6486,0,0,1,.605.434l.655,1.933a.60539.60539,0,0,1-.03.467.61845.61845,0,0,1-.364.31c-.255.084-.512.17-.763.259a.61245.61245,0,0,1-.786-.377l-.656-1.933a.63709.63709,0,0,1,.387-.804m10.543,12.755a5.71436,5.71436,0,0,1-.954-.083.005.005,0,0,0-.005.008,4.25254,4.25254,0,0,0,1.199.7l.155.06-.164-.027a4.32213,4.32213,0,0,1-1.62-.823.04245.04245,0,0,0-.017-.01,9.3472,9.3472,0,0,0-1.936-.379c-.794,0-1.373.182-1.659.973a1.24391,1.24391,0,0,1,.045-.472.01425.01425,0,0,0-.005-.016,2.69432,2.69432,0,0,0-1.329-.468c-.876,0-2.006.986-2.873,1.086a7.97573,7.97573,0,0,0,1.366-.747.00549.00549,0,0,0-.002-.01,7.00351,7.00351,0,0,0-2.876.287,6.13756,6.13756,0,0,1,3.157-.449.02492.02492,0,0,0,.017-.003,2.5694,2.5694,0,0,1,1.188-.412,2.83984,2.83984,0,0,1,1.467.478.01174.01174,0,0,0,.013-.004,1.70324,1.70324,0,0,1,1.443-.569c.947,0,2.408.703,3.571.703a7.38639,7.38639,0,0,0,2.021-.197,5.17146,5.17146,0,0,1-2.202.374m5.268-10.734-.938,1.814a.60294.60294,0,0,1-.538.329.63158.63158,0,0,1-.294-.074c-.237-.126-.479-.251-.717-.37a.61748.61748,0,0,1-.312-.361.60347.60347,0,0,1,.038-.467l.937-1.813a.64913.64913,0,0,1,.571-.346.63309.63309,0,0,1,.277.065c.238.121.479.245.714.37a.63749.63749,0,0,1,.262.853m.467-3.33c.083.005.168.008.251.008a4.2999,4.2999,0,0,0,1.778-.409l.007.016a4.21934,4.21934,0,0,1-2.222.604.09819.09819,0,0,0-.07.03c-.244.254-.455.479-.644.687a.02614.02614,0,0,1-.022.009l-.015-.002-.203-.105a.02349.02349,0,0,1-.011-.016.02115.02115,0,0,1,.006-.019c.514-.531,1.077-1.07,1.674-1.603a.086.086,0,0,0,.026-.064,4.07756,4.07756,0,0,1,.207-1.72l.016.005a4.70285,4.70285,0,0,0-.047,1.583.00661.00661,0,0,0,.007.006l.005-.002c.787-.746,1.52-1.461,2.238-2.183l.013.012c-.607.708-1.268,1.426-1.967,2.131-.343.327-.69.67-1.032,1.019l-.002.008c.001.001.003.005.007.005" fill="#003976"/><path d="M10.20129,19.81294h0a.26136.26136,0,0,0,.082-.014c.116-.04.233-.08.351-.119a.24689.24689,0,0,0,.144-.125.23846.23846,0,0,0,.012-.189l-.544-1.606a.25.25,0,0,0-.237-.17.26694.26694,0,0,0-.079.013c-.117.04-.235.079-.352.12a.25022.25022,0,0,0-.155.317l.544,1.606a.24666.24666,0,0,0,.234.167" fill="#003976"/><path d="M15.40136,13.719a.0339.0339,0,0,1,.016.027c.006.408.017.784.03,1.15a.02562.02562,0,0,0,.026.025l.29.001h.001a.02341.02341,0,0,0,.018-.008.0273.0273,0,0,0,.008-.019c-.01-.257-.021-.517-.03-.772a.041.041,0,0,1,.018-.035,10.14464,10.14464,0,0,0,2.988-3.346l-.014-.009a10.54023,10.54023,0,0,1-2.981,3.054.01506.01506,0,0,1-.023-.011c-.051-1.638-.05-2.988.001-4.129.005-.154.009-.315.013-.493a.05346.05346,0,0,1,.027-.045,6.81342,6.81342,0,0,0,1.647-1.317l-.013-.013a7.57554,7.57554,0,0,1-1.634,1.129.01417.01417,0,0,1-.017-.004l-.005-.01c.036-2.021-.012-4.38-.11-5.488l-.017.001c.01,1.175-.003,2.38-.041,3.58a.01108.01108,0,0,1-.011.011l-.007-.003a11.5201,11.5201,0,0,1-1.328-1.702l-.015.009a10.94632,10.94632,0,0,0,1.325,1.944.10823.10823,0,0,1,.025.075c-.026.78-.063,1.55-.108,2.292-.013.255-.024.524-.035.848a.01343.01343,0,0,1-.021.01,6.525,6.525,0,0,1-1.653-1.753l-.015.009a5.91716,5.91716,0,0,0,1.642,1.939.09427.09427,0,0,1,.037.077c-.027.886-.035,1.785-.024,2.672l-.002.006-.01.001a9.58072,9.58072,0,0,1-3.01-2.876l-.015.009a9.28323,9.28323,0,0,0,3.027,3.164" fill="#fff"/><path d="M6.582,16.95054l.012-.003.199-.093a.03.03,0,0,0,.012-.017.02517.02517,0,0,0-.006-.02c-.07-.074-.144-.149-.22-.226a.08926.08926,0,0,1-.024-.06,3.134,3.134,0,0,0-.766-2.034l-.014.01a3.19992,3.19992,0,0,1,.555,1.828l-.003.001c-.474-.471-.989-.955-1.534-1.434a.07605.07605,0,0,1-.023-.06,3.03566,3.03566,0,0,0-.288-1.597l-.015.006a2.91948,2.91948,0,0,1,.124,1.465l-.009.002c-.601-.554-1.265-1.211-2.03-2.011l-.013.012c.643.767,1.403,1.575,2.322,2.473.136.126.279.265.437.423-.09.007-.181.01-.271.01a4.4841,4.4841,0,0,1-1.954-.482l-.008.014a4.32865,4.32865,0,0,0,2.325.656c.028,0,.056,0,.085-.001a.04908.04908,0,0,1,.035.015c.305.311.65.675,1.052,1.114a.02518.02518,0,0,0,.02.009" fill="#fff"/><path d="M26.50427,14.93455c.698-.706,1.36-1.423,1.967-2.132l-.013-.011c-.719.722-1.451,1.436-2.238,2.183l-.005.002a.0084.0084,0,0,1-.008-.006,4.73146,4.73146,0,0,1,.048-1.583l-.016-.005a4.05973,4.05973,0,0,0-.208,1.72.07721.07721,0,0,1-.026.064c-.597.533-1.16,1.072-1.673,1.603a.01723.01723,0,0,0-.006.018.02106.02106,0,0,0,.011.017l.202.104.015.003a.03646.03646,0,0,0,.023-.009c.189-.209.4-.433.643-.687a.096.096,0,0,1,.07-.03,4.2352,4.2352,0,0,0,2.223-.605l-.007-.015a4.30048,4.30048,0,0,1-1.779.409c-.082,0-.167-.003-.25-.008a.00686.00686,0,0,1-.007-.005l.001-.008c.342-.349.689-.693,1.033-1.019" fill="#fff"/><path d="M16.35147,29.15024a1.7,1.7,0,0,0-1.442.569c-.004.005-.009.007-.014.003a2.85077,2.85077,0,0,0-1.467-.477,2.5793,2.5793,0,0,0-1.188.413.02221.02221,0,0,1-.016.003,6.14019,6.14019,0,0,0-3.158.447,7.01994,7.01994,0,0,1,2.876-.286.00549.00549,0,0,1,.002.01,7.93837,7.93837,0,0,1-1.366.747c.867-.1,1.997-1.085,2.874-1.085a2.68387,2.68387,0,0,1,1.328.468.01075.01075,0,0,1,.005.014,1.25235,1.25235,0,0,0-.044.473c.285-.79.865-.973,1.659-.973a9.33237,9.33237,0,0,1,1.935.38.06076.06076,0,0,1,.018.009,4.32241,4.32241,0,0,0,1.62.823l.164.028-.156-.061a4.24819,4.24819,0,0,1-1.198-.7c-.003-.003,0-.009.004-.008a5.82491,5.82491,0,0,0,.955.083,5.16927,5.16927,0,0,0,2.201-.374,7.41712,7.41712,0,0,1-2.021.197c-1.163,0-2.624-.703-3.571-.703" fill="#fff"/><path d="M7.49288,18.59884c.214-.108.431-.215.647-.319l-.252-.487c-.63.303-1.259.628-1.869.968l.252.486c.209-.115.421-.231.634-.343l.039-.021,1.26,2.434c.167-.089.339-.178.51-.264l-1.26-2.435Z" fill="#fff"/><path d="M10.04385,20.42585a.60767.60767,0,0,0,.21-.037c.252-.088.508-.175.763-.258a.6081.6081,0,0,0,.395-.777l-.657-1.933a.64488.64488,0,0,0-.604-.435.66329.66329,0,0,0-.192.03c-.253.084-.509.17-.761.259a.63643.63643,0,0,0-.386.805l.655,1.933a.6116.6116,0,0,0,.577.413m-.466-2.703c.117-.041.235-.081.353-.119a.23645.23645,0,0,1,.078-.013.25085.25085,0,0,1,.238.17l.544,1.605a.24608.24608,0,0,1-.012.19.24857.24857,0,0,1-.144.124c-.118.039-.235.079-.352.119a.2304.2304,0,0,1-.081.014h-.001a.24541.24541,0,0,1-.233-.167l-.544-1.607a.249.249,0,0,1,.154-.316" fill="#fff"/><path d="M16.07955,19.42935a.60847.60847,0,0,0,.623-.61v-2.041a.6376.6376,0,0,0-.624-.638q-.201-.003-.402-.003t-.402.003a.63626.63626,0,0,0-.624.638v2.041a.60594.60594,0,0,0,.615.61c.066-.001.373-.006.814,0m-.838-2.493a.251.251,0,0,1,.248-.25h.373a.25032.25032,0,0,1,.248.25v1.696a.2469.2469,0,0,1-.248.246h-.373a.24689.24689,0,0,1-.248-.246Z" fill="#fff"/><path d="M15.09878,27.21945h.882l.137.537h.582l-.775-2.86h-.77l-.775,2.86h.582Zm.441-1.73.304,1.192h-.608Z" fill="#fff"/><path d="M17.04348,22.60445v-.894a.56443.56443,0,0,0-.565-.565h-1.236v2.86h.561v-.835h.675a.56592.56592,0,0,0,.565-.566m-.56-.146a.17413.17413,0,0,1-.174.174h-.506v-.95h.506a.17413.17413,0,0,1,.174.174Z" fill="#fff"/><polygon points="9.486 24.896 9.486 27.757 11.16 27.757 11.16 27.219 10.052 27.219 10.052 24.896 9.486 24.896" fill="#fff"/><polygon points="11.619 21.145 11.173 21.145 10.552 22.579 9.931 21.145 9.485 21.145 9.485 24.006 10.046 24.006 10.046 22.685 10.552 23.831 11.058 22.685 11.058 24.006 11.619 24.006 11.619 21.145" fill="#fff"/><path d="M12.77188,19.69534l-.157-.974.042-.007c.079-.014.159-.027.239-.04l.027-.005.015.022q.3105.43649.622.877c.187-.028.374-.054.559-.079q-.306-.43649-.612-.87l-.031-.044.049-.02a.60916.60916,0,0,0,.364-.658l-.168-1.042a.63992.63992,0,0,0-.626-.536.56153.56153,0,0,0-.092.007c-.441.066-.884.143-1.321.226l.524,3.247c.188-.036.378-.071.566-.104m-.395-2.713c.173-.03.345-.058.517-.085a.251.251,0,0,1,.285.207l.113.701a.24533.24533,0,0,1-.205.283c-.173.027-.345.055-.517.085l-.043.007-.192-1.19Z" fill="#fff"/><path d="M13.93984,24.00675h.577l-.705-2.861h-.763l-.704,2.861h.576l.121-.538h.778Zm-.777-1.076.268-1.192.268,1.192Z" fill="#fff"/><polygon points="19.175 25.434 19.175 24.896 17.381 24.896 17.381 27.757 17.947 27.757 17.947 26.595 18.823 26.595 18.823 26.058 17.947 26.058 17.947 25.434 19.175 25.434" fill="#fff"/><path d="M17.83007,16.248l-.548,3.242c.188.026.379.054.568.085l.316-1.863.054.16c.214.621.427,1.252.637,1.874.149.028.299.057.447.087l.55-3.242c-.186-.037-.376-.074-.565-.109l-.316,1.864-.055-.163c-.21-.623-.423-1.252-.636-1.869-.15-.023-.301-.045-.452-.066" fill="#fff"/><path d="M20.49056,27.75635h.805a.56826.56826,0,0,0,.571-.565v-.41a.53191.53191,0,0,0-.273-.503s-1.002-.446-1.016-.454a.1889.1889,0,0,1-.094-.153v-.063a.17541.17541,0,0,1,.176-.175h.465a.17521.17521,0,0,1,.176.174v.119h.566v-.265a.56911.56911,0,0,0-.571-.566h-.805a.56914.56914,0,0,0-.571.566v.294a.53421.53421,0,0,0,.273.504s1.002.446,1.016.454a.18568.18568,0,0,1,.093.153v.179a.17349.17349,0,0,1-.175.173h-.465a.17434.17434,0,0,1-.176-.173v-.122h-.566v.268a.56829.56829,0,0,0,.571.565" fill="#fff"/><polygon points="21.867 23.468 20.776 23.468 20.776 22.844 21.518 22.844 21.518 22.307 20.776 22.307 20.776 21.683 21.867 21.683 21.867 21.145 20.215 21.145 20.215 24.006 21.867 24.006 21.867 23.468" fill="#fff"/><polygon points="19.489 23.468 18.454 23.468 18.454 21.145 17.893 21.145 17.893 24.006 19.489 24.006 19.489 23.468" fill="#fff"/><path d="M20.95,20.33674l.874-2.598.04.014c.226.079.455.16.68.244l.175-.52c-.657-.242-1.327-.467-1.996-.67l-.175.519c.228.069.46.142.688.216l.042.014-.874,2.598c.182.059.364.121.546.183" fill="#fff"/><polygon points="13.698 25.434 13.698 24.896 11.904 24.896 11.904 27.757 13.698 27.757 13.698 27.219 12.47 27.219 12.47 26.595 13.346 26.595 13.346 26.058 12.47 26.058 12.47 25.434 13.698 25.434" fill="#fff"/><path d="M24.74844,18.44345c-.236-.125-.476-.25-.715-.369a.60447.60447,0,0,0-.277-.066.64752.64752,0,0,0-.57.346l-.937,1.814a.60952.60952,0,0,0-.04.466.62413.62413,0,0,0,.314.361c.238.119.479.243.715.37a.63947.63947,0,0,0,.294.073.60488.60488,0,0,0,.54-.329l.937-1.813a.63594.63594,0,0,0-.261-.853m-.337.722-.779,1.507a.24473.24473,0,0,1-.219.133.22763.22763,0,0,1-.114-.029c-.11-.057-.221-.114-.331-.17a.25.25,0,0,1-.124-.145.24653.24653,0,0,1,.017-.188l.778-1.507a.25056.25056,0,0,1,.223-.136.26006.26006,0,0,1,.112.027c.111.058.221.114.331.172a.2495.2495,0,0,1,.106.336" fill="#fff"/></svg>