<svg id="Layer_1" data-name="Layer 1" xmlns="http://www.w3.org/2000/svg" viewBox="0 0 594.96002 710.16003"><title>Los Angeles Kings Logo (2011)</title><polygon points="594.96 0 0 0 0 495.12 4.68 498.6 290.64 705.24 297.48 710.16 304.2 705.24 590.16 498.6 594.84 495.24 594.84 0 594.96 0" fill="#111"/><polygon points="11.4 490.56 297.48 697.32 583.44 490.56 583.44 12.72 11.4 12.72 11.4 490.56" fill="#fff"/><path d="M30.24,346.92H564.48V31.68H30.24Zm0,134.04L297.48,674.04l267-193.08V363.36H30.24Z" fill="#acaea9"/><path d="M47.16,322.08H547.67993V48.48H47.16Zm0,150.24L297.48,653.28l250.2-180.96V392.64H47.16Z" fill="#111"/><path d="M300.6,91.8s16.08,24.6,16.08,93.48-16.08,93.48-16.08,93.48h46.32v-69.6H486.48v69.6h46.2s-16.08-24.6-16.08-93.48,16.08-93.48,16.08-93.48ZM108.48,244.68v-59.4c0-68.88,16.08-93.48,16.08-93.48H62.16s16.08,24.6,16.08,93.48-16.08,93.48-16.08,93.48H265.8s17.04-23.04,17.04-58.32c0,0-23.28,24.24-77.88,24.24Z" fill="#acaea9"/><path d="M104.16,249V185.28c0-50.64,8.52-77.76,13.44-89.16H69.12c4.92,11.4,13.44,38.52,13.44,89.16s-8.52,77.76-13.44,89.16h194.4a106.382,106.382,0,0,0,14.4-44.75995C266.76,237.36,243.6,249,204.96,249ZM307.56,96.12c4.92,11.4,13.44,38.64,13.44,89.28,0,50.52-8.52,77.64-13.44,89.04H342.6v-69.6H490.8v69.6h34.92c-4.8-11.4-13.32-38.52-13.32-89.16s8.52-77.76,13.32-89.16Z" fill="#fff"/><rect x="342.59998" y="121.56" width="148.08002" height="57.71997" fill="#acaea9"/><rect x="346.91998" y="125.88" width="139.56003" height="49.20001"/><path d="M372.6,566.52l18.6-106.44-3.84-1.68s-15.12,20.16-18,24c-6.24-7.68-18.12-17.04-34.08-22.32l7.08-17.28s-9,3.6-12.84,5.16c.36-.72.84-1.56.84-1.56s-13.68.72-15.84.84c-1.08-1.92-8.52-15.12-9.6-16.92.96-1.56,3.72-6.48,4.08-7.08.48-.36,3.96-3.36,3.96-3.36l-4.56-8.64-9.72.6s-.12,4.56-.12,5.4l-1.08,1.8-1.08-1.8c-.12-.84-.24-5.4-.24-5.4l-9.72-.6-4.56,8.52s3.48,3.12,3.96,3.48c.36.48,3.12,5.52,4.08,6.96-.96,1.8-8.52,15.12-9.6,16.92-2.16,0-15.84-.84-15.84-.84a11.18311,11.18311,0,0,0,.84,1.56c-3.84-1.56-12.84-5.16-12.84-5.16s5.76,14.28,7.08,17.28c-15.96,5.28-27.84,14.76-34.08,22.44-2.88-3.84-18-24.12-18-24.12l-3.84,1.68,18.6,106.44s26.28,6.72,75.12,6.72C346.2,573.24,372.6,566.52,372.6,566.52Z" fill="#fff"/><path d="M282,568.32s-24.12-2.16-38.52-7.68a297.52951,297.52951,0,0,0,40.2,3.24s-19.68-1.92-32.64-6.84c9.84,1.2,23.76,2.76,36.72,2.76,0,0-19.2-1.92-32.16-6.72a199.16909,199.16909,0,0,1,83.64,0c-12.96,4.8-32.16,6.72-32.16,6.72a292.55511,292.55511,0,0,0,36.72-2.76c-12.96,4.92-32.64,6.84-32.64,6.84a295.84506,295.84506,0,0,0,40.2-3.24c-14.28,5.52-38.52,7.8-38.52,7.8,35.64-.96,56.64-6.36,56.64-6.36l16.32-94.92-16.56,22.08c-7.2-11.88-21.36-21.36-39.48-26.64l5.04-12.12-25.56,11.4v-6.24l-11.76-20.28L285.6,455.64V462l-25.68-11.52,5.04,12.24c-18.12,5.16-32.16,14.76-39.48,26.64l-16.44-22.08,16.32,94.92c0-.12,21.12,5.16,56.64,6.24Z" fill="#111"/><path d="M307.08,463.32l-9.6-12.48-9.72,12.48,9.72,11.52Zm2.16.96v42.84l21.6-52.44Zm-23.64,0-21.6-9.6,21.6,52.44Z" fill="#acaea9"/><path d="M373.08,528.96a9.30817,9.30817,0,0,1-7.56-9.24,9.12524,9.12524,0,0,1,8.88-9.36,4.66463,4.66463,0,0,1,1.8.24l6-35.04L356.04,510.6c.6,16.68-3.48,23.52-3.48,23.52a111.62183,111.62183,0,0,0-18.6-5.52l-3.36-16.92a6.81781,6.81781,0,0,1-3.96-1.32h-.12l-8.64,15.6s-10.8-.96-16.2-.96l4.8-15-9-23.4-9,23.28,4.8,15c-5.52,0-16.32,1.08-16.32,1.08l-7.92-14.4h-1.56a6.1621,6.1621,0,0,1-3-.72l-3.6,17.64A127.89331,127.89331,0,0,0,242.4,534s-4.08-6.72-3.6-23.52l-26.16-34.92,6.12,34.92a7.94644,7.94644,0,0,1,1.8-.12,9.20405,9.20405,0,0,1,8.88,9.36,9.42409,9.42409,0,0,1-7.56,9.24l5.16,30.24a203.76533,203.76533,0,0,1,70.44-12.72c34.44,0,62.16,9.48,70.44,12.72Z" fill="#acaea9"/><path d="M280.2,467.16a4.02046,4.02046,0,0,0-7.2,2.52,4.25178,4.25178,0,0,0,3,3.96,4.49132,4.49132,0,0,0,2.16.6A3.79089,3.79089,0,0,0,282,470.4,3.66724,3.66724,0,0,0,280.2,467.16Zm39.12,0a4.2176,4.2176,0,0,0-3.24-1.56,4.02171,4.02171,0,0,0-3.96,4.08,4.10465,4.10465,0,0,0,3,3.96,4.4912,4.4912,0,0,0,2.16.6,3.79092,3.79092,0,0,0,3.84-3.84A3.93807,3.93807,0,0,0,319.32,467.16Zm-17.76-4.2a4.20573,4.20573,0,0,0-4.08-4.08,4.12312,4.12312,0,0,0-4.08,4.08,4.04631,4.04631,0,0,0,4.08,4.08A4.12314,4.12314,0,0,0,301.56,462.96Z" fill="#111"/><path d="M324.48,509.4a7.60773,7.60773,0,0,1-3.72-6.6,7.42877,7.42877,0,0,1,2.28-5.52,7.63408,7.63408,0,0,1,5.4-2.28,8.0336,8.0336,0,0,1,6.24,3,7.5048,7.5048,0,0,1,3.48,6.24,7.37426,7.37426,0,0,1-5.4,7.08l3.12,15.48c2.28.48,4.2.96,6.12,1.44,4.56-13.56,6.6-34.2-15.84-45.84,0,0,31.8,7.44,22.08,47.88a17.11515,17.11515,0,0,1,3.24,1.08c2.88-6.48,2.4-21.6,2.4-21.6l4.32-5.52c-2.64-10.8-10.44-21.84-29.28-28.92,0,0,21.96,2.4,32.88,23.88l4.56-6c-6.36-11.52-20.4-21.12-38.28-26.4l-22.92,56.04c3.84.24,7.8.48,11.52.84Zm-96-16.08,4.56,6c10.92-21.6,32.88-23.88,32.88-23.88-18.84,6.96-26.64,18-29.28,28.8l4.32,5.52s-.6,15.24,2.52,21.6a33.9817,33.9817,0,0,1,3.24-1.08c-9.84-40.44,21.96-47.76,21.96-47.76-22.44,11.52-20.4,32.28-15.84,45.72,1.92-.36,3.96-.84,6.24-1.44l3.36-16.8a7.68571,7.68571,0,0,1,2.76-14.88,7.29373,7.29373,0,0,1,6.12,3,7.20089,7.20089,0,0,1,3.48,6.24,6.967,6.967,0,0,1-3.84,6.36l7.2,13.08c3.84-.36,7.68-.6,11.64-.84l-23.04-56.04C248.88,472.08,234.96,481.68,228.48,493.32Z" fill="#fff"/><path d="M223.2,519.72a2.8503,2.8503,0,0,0-2.76-3c-.24,0-.6,0-.72.12l.96,5.76A2.86566,2.86566,0,0,0,223.2,519.72Zm111.84-17.04a6.53264,6.53264,0,0,0-1.92-4.68,6.70363,6.70363,0,1,0,1.92,4.8ZM265.2,496.2a6.58081,6.58081,0,0,0-6.6,6.6,6.50642,6.50642,0,0,0,6.6,6.6,6.68437,6.68437,0,0,0,6.72-6.6A6.60781,6.60781,0,0,0,265.2,496.2Z" fill="#fff"/><path d="M371.64,519.72a2.74972,2.74972,0,0,0,2.52,2.76l.96-5.64a1.52213,1.52213,0,0,0-.72-.12A2.85029,2.85029,0,0,0,371.64,519.72Zm-151.2-8.4a8.10349,8.10349,0,0,0-1.68.24l.12,1.08a7.02351,7.02351,0,0,1,1.56-.24c3.72,0,6.6,3.24,6.6,7.32a6.93291,6.93291,0,0,1-5.64,7.08l.12,1.08a8.29335,8.29335,0,0,0,6.72-8.28A8.051,8.051,0,0,0,220.44,511.32Z" fill="#fff"/><path d="M276.96,473.03995a3.31133,3.31133,0,0,0,3.48-3.36,3.408,3.408,0,0,0-3.48-3.48,3.4594,3.4594,0,0,0-3.36,3.48A3.35411,3.35411,0,0,0,276.96,473.03995Zm39.12,0a3.382,3.382,0,0,0,3.48-3.36,3.48,3.48,0,1,0-6.96,0A3.382,3.382,0,0,0,316.08,473.03995Zm-15.24-10.08a3.45742,3.45742,0,0,0-3.36-3.48,3.56215,3.56215,0,0,0-3.48,3.48,3.408,3.408,0,0,0,3.48,3.48A3.31133,3.31133,0,0,0,300.84,462.96Zm72.36,64.92.24-1.08a7.031,7.031,0,0,1-5.76-7.08c0-4.08,3-7.32,6.72-7.32a6.02348,6.02348,0,0,1,1.44.24l.24-.96a4.71088,4.71088,0,0,0-1.68-.36c-4.32,0-7.8,3.84-7.8,8.4A8.08143,8.08143,0,0,0,373.2,527.87994Z" fill="#fff"/><path d="M271.08,502.79993a5.8812,5.8812,0,1,1-5.88-6A5.88955,5.88955,0,0,1,271.08,502.79993Z" fill="#111"/><path d="M334.32,502.79993a5.8812,5.8812,0,1,1-5.88-6A5.88955,5.88955,0,0,1,334.32,502.79993Z" fill="#111"/><path d="M297.24,512.52a3.19482,3.19482,0,0,0,1.44.36,3.45267,3.45267,0,0,0,1.56-6.6,3.84222,3.84222,0,0,1-3,6.24Z" fill="#111"/><path d="M300.36,508.68a3.07418,3.07418,0,0,1-3.12,3,3.06059,3.06059,0,1,1,0-6.12A3.09828,3.09828,0,0,1,300.36,508.68Z" fill="#111"/><path d="M300.48,462.96a3.0742,3.0742,0,0,1-3,3.12,3.17694,3.17694,0,0,1-3.12-3.12,3.0742,3.0742,0,0,1,3.12-3A2.97087,2.97087,0,0,1,300.48,462.96Z" fill="#111"/><path d="M319.08,469.68a2.97085,2.97085,0,0,1-3,3,3.07418,3.07418,0,0,1-3.12-3,3.17694,3.17694,0,0,1,3.12-3.12A3.0742,3.0742,0,0,1,319.08,469.68Z" fill="#111"/><path d="M280.08,469.68a3.07418,3.07418,0,0,1-3.12,3,2.97085,2.97085,0,0,1-3-3,3.0742,3.0742,0,0,1,3-3.12A3.17694,3.17694,0,0,1,280.08,469.68Z" fill="#111"/><path d="M343.8,544.8a2.41176,2.41176,0,0,0,1.56.48,3.48249,3.48249,0,0,0,3.48-3.48,3.31267,3.31267,0,0,0-2.04-3.12,3.35055,3.35055,0,0,1,.96,2.4A3.87253,3.87253,0,0,1,343.8,544.8Zm-30.12-5.28h0a2.85037,2.85037,0,0,0,1.44.36,3.408,3.408,0,0,0,3.48-3.48,3.69175,3.69175,0,0,0-1.92-3.12,4.147,4.147,0,0,1,.84,2.4A3.79089,3.79089,0,0,1,313.68,539.52ZM249,544.8h-.12a2.41178,2.41178,0,0,0,1.56.48,3.4825,3.4825,0,0,0,3.48-3.48,3.40373,3.40373,0,0,0-1.92-3.12,3.8651,3.8651,0,0,1,.84,2.4A3.9266,3.9266,0,0,1,249,544.8Zm30.12-5.28H279a3.32178,3.32178,0,0,0,1.56.36,3.4825,3.4825,0,0,0,3.48-3.48,3.69175,3.69175,0,0,0-1.92-3.12,4.147,4.147,0,0,1,.84,2.4A3.79089,3.79089,0,0,1,279.12,539.52Z" fill="#111"/><path d="M282.24,535.68a3.09828,3.09828,0,0,1-3.12,3.12,3.02666,3.02666,0,0,1-3.12-3.12,3.09827,3.09827,0,0,1,3.12-3.12A3.17694,3.17694,0,0,1,282.24,535.68Z" fill="#111"/><path d="M252.12,540.96a3.18057,3.18057,0,0,1-6.36,0,3.18057,3.18057,0,0,1,6.36,0Z" fill="#111"/><path d="M316.8,535.68a3.18057,3.18057,0,0,1-6.36,0,3.18057,3.18057,0,0,1,6.36,0Z" fill="#111"/><path d="M346.92,540.96a3.09828,3.09828,0,0,1-3.12,3.12,3.17693,3.17693,0,0,1-3.12-3.12,3.09827,3.09827,0,0,1,3.12-3.12A3.02667,3.02667,0,0,1,346.92,540.96Z" fill="#111"/><path d="M284.76,454.92l12.72-21.84,12.6,21.84H320.4l1.08-2.4h-9.96L298.8,430.68l6.24-10.8,1.44-1.44-.96-1.56-2.4.24-.24,1.92-5.4,9.24-5.4-9.24-.36-2.04-2.4-.12-.96,1.56,1.56,1.44,6.12,10.68-12.6,21.96H273.36l1.2,2.4Zm83.76,73.56-.24,5.16,3.72-3.6Zm-6.96-.36,5.16-1.08-2.16-3.24Zm2.28-9.36-4.68,2.28,4.92,1.44Zm1.92-5.4L360.6,513l3.48,3.72Zm4.44-3.48-4.2-3,.96,5.04Zm3.48-5.52L372,509.28l3.84-.24ZM222.84,530.04l3.72,3.6-.24-5.16Zm7.44-6.24-2.04,3.24,5.04,1.08Zm.48-1.32,4.92-1.44-4.56-2.28Zm3.48-9.48-5.16.36,1.68,3.36Zm-6.36-1.08,1.08-5.04-4.32,3ZM219,509.04l3.84.24-1.68-4.92Z" fill="#111"/></svg>