<svg id="Layer_1" data-name="Layer 1" xmlns="http://www.w3.org/2000/svg" viewBox="0 0 594.96002 475.56003"><title>StLouis Blues</title><path d="M594.96,0H103.32c32.52,50.76,43.44,67.56006,15.72,66.72L78.12,0H0L177.6,290.28c-2.4-.12-4.8-.24-7.2-.24-72.84,0-129.84,40.68-129.84,92.76s57,92.76,129.84,92.76,129.84-40.68,129.84-92.76a72.06311,72.06311,0,0,0-10.8-37.8L249.6,279.96s32.04,6.48,56.04-4.68L294.12,260.4s48.84,4.56,93.84-8.88l-15.24-16.2s68.4-1.68,115.92-62.64h-4.68s35.4-17.04,50.28-54.84h-4.68s22.68-16.8,30.36-51.48h-6.6S589.32,40.92,594.96,0Z" fill="#002654"/><path d="M582.84,8.52h-463.56c37.92,57.6,26.76,66.84-5.04,66.84L73.32,8.52h-58.08l178.44,291.6a184.97429,184.97429,0,0,0-23.28-1.56c-68.04,0-121.32,36.96-121.32,84.24,0,47.16,53.28,84.24,121.32,84.24s121.32-37.08,121.32-84.24A62.90073,62.90073,0,0,0,282,349.44L231.48,267s35.16,11.52,59.76,3.84l-15.48-20.04s58.08,4.8,96.84-3l-18.48-19.68s86.52-.84,118.68-54.24h-14.76s40.8-5.64,61.32-49.68h-15s35.04-16.2,44.52-52.92h-16.32S569.03992,47.16,582.84,8.52Z" fill="#fff"/><path d="M573.12,14.64H129.96c26.28,39.96,31.2,69.36-19.2,66.6l-40.8-66.6H25.92L205.8,308.4a167.44656,167.44656,0,0,0-35.4-3.84C106.8,304.56,55.08,339.72,55.08,382.8S106.8,461.04,170.4,461.04s115.32-35.16,115.32-78.24a57.63214,57.63214,0,0,0-8.76-30.12l-58.68-95.76s36.96,12.96,62.52,10.2c0,0-11.64-14.28-16.8-23.28,0,0,42,5.16,96.96.36l-20.64-21.84h5.4c89.04,0,115.8-45.6,115.8-45.6H437.28s60.12-15.24,72.96-49.68H487.92s47.64-23.4,52.32-49.8H512.99994C513.12,77.28,560.52,50.52,573.12,14.64Z" fill="#fcb514"/><path d="M562.8,21H141.36c34.92,57-.12,69.96-34.32,66.36L66.36,21H37.32L219.6,318.72a156.04978,156.04978,0,0,0-49.2-7.8c-60.12,0-108.84,32.16-108.84,71.88s48.72,71.88,108.84,71.88c60.24,0,108.96-32.16,108.96-71.88a50.07826,50.07826,0,0,0-7.92-26.76l-67.56-110.4s43.68,15.12,63.84,15.12c0,0-9.24-11.64-14.76-24.24,0,0,52.32,5.64,94.2,2.28l-22.8-24s6.72,1.2,21.36,1.2c73.68,0,101.88-32.76,101.88-32.76h-219l-3.24-5.28h181.8s74.04-14.16,91.92-44.52h-300.96L195,128.28H471.96s51.6-24.84,58.92-44.52H167.64l-3.12-5.16H498.36C498.36,78.48,546.96,53.16,562.8,21Z" fill="#002f87"/></svg>