<svg id="Layer_1" data-name="Layer 1" xmlns="http://www.w3.org/2000/svg" viewBox="0 0 594.95996 497.51999"><title>SanJoseSharksLogo</title><path d="M558.36,194.04l-8.04,14.4,1.32,8.28c-21.48,41.88-44.76,80.76-53.16,94.44-3.24-7.32-7.44-11.64-15.72-16.08,0,0,37.92-68.88,48.24-123.48-28.8,14.28-58.8,28.32-58.8,28.32l51.36-83.28s-98.88,21.72-177.12,29.52C262.2,21.84,185.52,0,185.52,0s53.16,86.88,63,147.72C141,137.64,53.28,116.64,53.28,116.64l93.6,151.56C92.16,271.44,0,274.32,0,274.32c23.4,23.52,99,53.28,198.96,78l17.88,28.92c-58.8,44.28-94.32,105.36-94.32,105.36l6,10.92s29.16-1.8,64.92-3.12c0,0,9.72-31.44,49.8-70.32l45.24,73.08,56.64-91.68,6.12-.72,3.48,2.04c-.96.96-1.56,2.76-3,4.92,4.68,3.24,4.92,3.72,5.16,9.48a23.62187,23.62187,0,0,0,13.92-.36l2.16-3.84,2.64,1.2c.36,2.64,1.08,5.76,1.08,5.76,7.2,3.36,13.32-1.2,13.32-1.2,19.2,3.96,32.28,1.8,36.6.72,18.96,5.16,31.32,1.68,36.36-.6,8.76,3.6,17.88,6,42.96,6,11.64,0,24-.72,24-9.36,0-12.24-11.64-56.76-23.4-81.36,0,0,8.64,6,16.44,7.56l10.8-7.8c-4.92-5.76-3.96-7.32-3.36-11.88a20.18425,20.18425,0,0,0-9.12-3.96c10.44-12.12,32.4-40.2,58.68-90.6,5.52-.84,12.6-4.08,13.44-12.84.96-9.48,1.56-13.56,1.56-22.56C578.28,188.52,558.36,194.04,558.36,194.04Z" fill="#fff"/><path d="M493.32,137.99994,445.8,213.84c5.16-2.4,10.68-4.92,16.08-7.32l50.64-81.96S426.48,143.4,348,151.31995c1.8,2.88,3.6,5.88,5.52,8.76C407.4,154.43994,463.56,143.99994,493.32,137.99994Z"/><path d="M500.88,338.4c-6.6-27.24-7.56-32.16-22.2-39.48l-2.28-3.12c26.64-47.76,45.96-104.88,45.96-111.6,0-1.68-.72-2.16-1.8-1.68C478.08,204,431.52,223.2,421.2,230.4l-2.76,3.84a561.61782,561.61782,0,0,0-50.04-39.96C321,101.16,248.28,35.64,201.36,12.24c0,9.72,46.32,81.24,53.52,141.24-84-5.76-190.56-28.92-190.56-28.92l91.8,148.32c-75.36,4.68-141.48,6.24-141.48,6.24,0,5.16,84.12,45.36,208.32,73.56,27.12,6.12,47.4,5.16,60.6,5.16-2.52-2.76-4.92-5.4-7.44-8.04,18,11.04,34.44,21.96,49.2,31.8-3.72,0-7.8.12-12.24.12-29.76,0-52.32-1.56-66.6-2.64L233.4,358.44c-3.24-.6-6.48-1.2-9.72-1.92-1.32-.24-2.52-.48-3.84-.72-5.64-1.32-11.04-2.64-14.76-3.48l18.84,30.36c-17.64,12.6-62.64,50.76-95.28,104.04l2.88,5.28s31.56-1.92,58.08-2.76c0,0,12-34.08,54.72-73.44l44.04,71.28,53.52-86.52c3.48-.36,6.96-.72,10.56-1.2,3.72,2.28,7.2,4.56,10.68,6.48a11.89206,11.89206,0,0,0-4.56,4.56,8.30975,8.30975,0,0,1,3.24,6.24,12.8206,12.8206,0,0,0,5.4-.36,52.81224,52.81224,0,0,0,3.48-6.24,106.09218,106.09218,0,0,0,9.96,4.56,26.27109,26.27109,0,0,0,.48,5.16s3.36,1.08,7.56-2.52c23.64,5.4,37.8.72,37.8.72,24.12,7.2,36.36-.84,36.36-.84,9.36,4.2,17.28,6.48,43.08,6.48,14.04,0,18.6-1.68,18.6-4.08C524.64,408.24,512.75995,362.16,500.88,338.4Z"/><path d="M561.84,198.6l-6,10.8,1.32,8.16c-27.12,53.28-57.24,101.52-57.24,101.52l3.72,9.12,4.32-3.12,3.12.24s28.8-27.6,65.64-98.88c0,0,10.68.36,11.52-8.28.84-8.76,1.44-14.76,1.44-18.36C576.36,195,561.84,198.6,561.84,198.6Zm-54,131.4.84,3.24s7.68,5.16,13.31995,6.84l4.44-3.24a10.97767,10.97767,0,0,1-1.8-8.16C518.75995,324.96,507.84,330,507.84,330Z"/><path d="M399.96,409.56A115.55762,115.55762,0,0,0,411.24,402c-21.6.96-29.64-1.68-29.64-1.68,3.84-3.84,8.64-7.2,11.64-10.2-2.28.36-4.68.6-6.96.84,0,.96-1.2,2.16-4.44,4.2-6.48.96-12.84,1.92-19.08,2.76a49.88535,49.88535,0,0,0,5.76,5.52q2.16-.72,4.68-1.44a16.026,16.026,0,0,1-.84,4.32A48.86507,48.86507,0,0,0,381,411a15.63587,15.63587,0,0,1,2.28-6.36c1.08.36,1.68,3.48,2.28,4.44,1.56,2.28,3.72,2.64,4.08,4.56,9.12,2.16,20.52,2.64,35.64.72l4.2-3.36C407.4,411.48,399.96,409.56,399.96,409.56Zm-35.88-32.4c-9.6,3.12-13.8.96-13.8.96a16.91567,16.91567,0,0,0,3.12-5.64c-8.52,2.4-11.16,0-11.16,0,1.32-.84,2.76-4.08,2.76-4.08-11.16,0-17.28,1.8-17.28,1.8a33.0855,33.0855,0,0,1,20.4,10.44A124.35888,124.35888,0,0,0,363,378.96Z" fill="#fff"/><path d="M154.68,456.72l-10.56,13.56s31.2-4.8,50.04-2.04l5.16-8.88C189.12,454.08,154.68,456.72,154.68,456.72Zm190.68-85.2a27.10112,27.10112,0,0,0,10.08-1.56,10.438,10.438,0,0,1-2.16,6.84s4.68,0,14.04-2.16c0,0-.84,1.92-1.92,3.96a19.76719,19.76719,0,0,1,4.32-.48c3,0,3.36.6,6,.6,5.04,0,5.64,1.08,6.36,6.96a29.90761,29.90761,0,0,0,3.12,3.36c3.72-.36,7.92-.72,12.24-1.32a54.89741,54.89741,0,0,1-12,11.52s20.04,1.92,30.48.6a36.52753,36.52753,0,0,1-10.68,8.64s13.8.84,28.8.6a74.63237,74.63237,0,0,1-5.88,5.64s18.36,4.08,31.44.96c-47.28-18.72-73.2-47.28-112.8-47.28A14.72577,14.72577,0,0,1,345.36,371.52Z" fill="#fff"/><path d="M195,411.84,180.12,426.6s27.36-3.72,45.48-1.32l7.08-7.92C225.96,411.6,195,411.84,195,411.84Zm-16.8,16.92L166.92,441.6s31.32-3.24,44.16.36l12.96-15C210.96,424.8,178.2,428.76,178.2,428.76Zm-13.08,15-3.72,4.56s38.64-6,47.76-3.84l.72-.96C200.28,440.4,165.12,443.76,165.12,443.76Zm-5.52,6.84-3.36,4.08s32.28-2.4,44.04,3l7.68-11.52C197.52,444.48,159.6,450.6,159.6,450.6Z" fill="#fff"/><path d="M197.76,409.31995l-.72.6s26.76-.36,36.96,6l1.56-1.56C227.28,409.68,197.76,409.31995,197.76,409.31995Z" fill="#fff"/><path d="M237.72,414.83992l.48,4.2,9.72-9.48-.12-4.92Zm-3.48,3.72.96,3.6,1.44-1.44-.6-4.2Zm-8.4,9.24.48,3.84,7.32-7.92-.84-3.6Zm-13.92,16.2.6,3.12,12.12-13.8-.48-3.72-12.36,14.4Zm-2.16,2.76.48,3.12.72-.96-.6-3Zm-8.52,12.96.36,2.52,7.2-10.44-.48-2.88Zm-5.76,9.72.36,2.76,4.32-7.56-.48-2.52Zm17.16-72.96-12.84,11.04s29.76.48,37.08,5.4l10.92-10.8C238.2,396.59995,212.64,396.47992,212.64,396.47992Z" fill="#fff"/><path d="M563.64,203.15991l-3.72,6a81.15911,81.15911,0,0,1,21-.72l4.32-6.12C572.04,199.79993,563.64,203.15991,563.64,203.15991Zm-1.92,12.48c-17.88,32.28-37.44,74.88-58.68,101.28l6.12-3.84,1.32-1.44-1.08,3.72,2.52-1.32-3.84,6.96,3.6-3s18.24-20.4,64.44-103.8C565.8,212.63992,561.72,215.63992,561.72,215.63992Zm-368.52,254.28c-16.68-3.12-50.88,2.52-50.88,2.52l-9.12,13.32,53.52-2.52Zm56.16-69.12,4.44-2.52s18.48,3,128.76-8.4c-2.64-1.92-3.96-1.56-3.96-5.88,0-1.44.24-1.68-2.16-1.68s-3.36-.72-6.24-.72c-3.6,0-8.76,3.6-62.88,3.6-42.96,0-73.08-3.6-75.12-3.6-1.92,0-5.88,3.72-17.4,12.96C214.8,394.55994,237.48,394.31995,249.36,400.79993Zm121.92-69.24c1.92,15.48,5.64,22.08,5.64,22.08s5.88,4.68,17.04,9.12C382.68,341.99994,371.28,331.55994,371.28,331.55994Zm11.28,86.28a8.25579,8.25579,0,0,0,4.56-2.4,46.76036,46.76036,0,0,1-3.6-6.72A20.13381,20.13381,0,0,0,382.56,417.83992Zm-18.84-3.36c3.72-4.92,6.12-8.04,6.72-9.96-3.24,1.32-7.32,2.16-9.6,5.52A13.65876,13.65876,0,0,1,363.72,414.47992Z" fill="#ea7200"/><path d="M233.4,358.44c-3.24-.6-6.48-1.2-9.72-1.92-1.2-.24-2.52-.6-3.72-.84L234,378.12c.96.12,2.04.12,3.24.24,2.52.12,5.64.48,9.12.72ZM441.12,216c1.56-.6,3.12-1.44,4.68-2.16L493.32,138c-29.76,6-85.92,16.44-139.8,22.08a19.10289,19.10289,0,0,0,1.56,2.64q1.8,3.06,3.6,6.12c41.64-4.68,84.36-11.88,115.56-17.75995L429.84,221.52C433.2,219.84,437.04,217.92,441.12,216ZM324.6,402.24c-3.24.36-6.24.6-9.24.84-17.4,1.44-34.8,2.28-52.08,2.64-4.92.12-7.56.12-7.56.12-.36.12-.48.36-.84.6-.72.6-1.32,1.2-2.04,1.92l35.64,56.88L328.08,402A33.90361,33.90361,0,0,0,324.6,402.24Zm198.12-72.36c-3.72-2.04-11.04.84-11.04.84a83.81814,83.81814,0,0,1,11.52,3.72A10.33245,10.33245,0,0,1,522.72,329.88Zm-15.96-12.36a14.83466,14.83466,0,0,1-4.44,2.04l2.28,4.8,1.44-1.08-.6-1.68,2.28-4.44Z" fill="#ea7200"/><path d="M271.32,249.84s-45.12-37.44-101.16-46.8c-2.04,0-6.12,8.52-6.12,8.52s6-5.4,7.8-5.4C219.72,215.4,271.32,249.84,271.32,249.84Zm26.4,40.44a111.47384,111.47384,0,0,0,2.16,44.16c-1.2-11.16,2.64-37.2,2.64-37.2Zm11.64,10.32a104.58271,104.58271,0,0,0,1.56,41.4c-1.08-8.52,3.24-33.36,3.24-33.36Zm11.76,11.52a95.99366,95.99366,0,0,0,.12,36.12c-.6-6.72,4.68-29.16,4.68-29.16ZM183.36,271.08s9.24,5.52,24.24,16.8c-3.72-6.48-13.44-13.44-24.12-19.8l-23.4,1.68,1.8,2.76C168.96,272.04,176.16,271.68,183.36,271.08ZM475.08,301.2s-35.16-49.2-102.6-98.88c5.76,11.76,11.04,24.12,15.84,36.72.72,1.8.6,3.36-.84,3.36-14.88,0-67.08-28.8-118.32-23.64,26.64,25.44,53.16,60.96,27.48,48,0,0,26.76,16.44,58.2,49.68,23.52,0,28.2,3.96,29.52,7.2,2.64,6.36,6.6,17.64,21.96,35.76,7.08,0,8.28-.48,10.92-6.84,0,0,1.92,8.04-1.68,14.04,32.04,25.32,94.2,50.64,103.68,50.64,3.84,0-4.08-34.68-22.08-76.56C491.28,314.28,488.04,306.84,475.08,301.2ZM255.84,168.24a92.24047,92.24047,0,0,0-.48-9.96c-28.92,3-46.08,9.84-52.68,12.96C212.76,168.36,230.76,167.52005,255.84,168.24Zm218.4-17.16-44.4,70.44c3.36-1.68,7.2-3.6,11.28-5.52l46.32-73.92c-29.28,5.76-81.72,15.24005-132.36,20.64q1.8,3.06,3.6,6.12C400.32,164.28,443.04,156.96,474.24,151.08ZM237.36,378.36c2.52.12,5.52.48,9.12.72L233.4,358.44c-3.24-.48-6.48-1.2-9.72-1.92Zm78,24.72c-23.64,1.92-42.36,2.4-52.08,2.64-4.92.12-7.68.12-7.68.12-.24.12-.36.36-.72.6l33.6,53.64,36.12-57.84C321.48,402.6,318.36,402.84,315.36,403.08Z" fill="#006d75"/><path d="M288.48,445.68l26.88-42.6c-23.64,1.92-42.36,2.4-52.08,2.64Z" fill="#fff"/></svg>