<svg id="Layer_1" data-name="Layer 1" xmlns="http://www.w3.org/2000/svg" xmlns:xlink="http://www.w3.org/1999/xlink" viewBox="0 0 594.96973 540.84321"><defs><clipPath id="clip-path" transform="translate(0 -0.11678)"><rect width="595.32001" height="531.71999" fill="none"/></clipPath></defs><title>Vancouver Canucks logo</title><path d="M292.56,385.8l89.88-44.88c61.68,17.28,79.92,40.68,79.92,40.68l35.28-39.84c1.92-2.04,7.68-9.24,7.68-22.44,0-14.04-14.76-24.96-25.08-32.4-17.52-46.08-114.72-59.52-121.92-75.48-2.28-5.64-16.56-53.52-16.56-53.52-8.4-24.84-33.36-24.84-42.72-24.84-9.48,0-29.76,3.24-29.76,3.24,0,34.56-4.8,76.68-9.6,84.48a350.25115,350.25115,0,0,1-38.16,16.56l-49.08-33.24,12.84,44.76C102.48,294.36,82.32,373.8,82.32,373.8s21.24,167.16,231,167.16c110.88,0,174.84-53.52,174.84-53.52l-35.76-79.8s-54.6,28.32-124.32,28.32c-64.2,0-89.28-30-98.52-47.4C283.92,390.12,292.56,385.8,292.56,385.8Z" transform="translate(0 -0.11678)" fill="#99999a"/><g clip-path="url(#clip-path)"><path d="M45,67.08,32.4,75.24l28.92,66.6-48.6-54L0,96.12l.12.24,70.8,74.16,12.6-8.28-38.4-94.92Zm43.08,4.56,26.4,37.8-13.32,6.48ZM105,128.52l16.92-8.28,11.04,15.84,13.44-6.48L85.2,47.04,70.92,53.88l26.04,99.36v.12l13.56-6.48Zm375.96-94.8v-.24L466.68,28.8,433.44,93.36,444.48,21.6l-14.52-4.68v.24L417.12,118.8l14.4,4.68Zm79.92,92.76-15.96-10.44,17.64-26.64L578.4,99.84Zm29.64-34.2L557.04,70.2,501.48,154.44l12.48,8.28,24.96-37.68,4.08,2.64L531.36,174.24l13.20007,8.64.36-.36L555.84,135.6l4.44006,2.88c4.8,3,9.12,2.16,12.36-2.76L593.04,105C596.28,100.08,595.44,95.64,590.52,92.28ZM473.76,126.12l13.56-28.68,20.52,9.72L513.48,95.4l-20.52-9.72009,12.6-26.64,23.88,11.4,5.76-12.12006-37.56-17.76-43.2,91.08,37.8,18,5.64-12ZM354.12,104.76l31.56,5.64c5.88,1.08,9.72-1.56006,10.8-7.44006l16.08-90.24-14.88-2.64L382.32,96.6l-20.04-3.48L377.64,6.48,362.88,3.84,346.8,94.08C345.72,99.96,348.24,103.67993,354.12,104.76ZM297,13.2l20.88.36-1.44,75-20.76-.36Zm-7.56,87.84,32.76.6c5.76.12006,9.12-3.11993,9.24-9.11993L332.88,10.2c.12-6-3.12-9.36-9-9.48L291.12.12c-5.76-.12-9,3.12-9,9.12l-1.56,82.31995C280.56,97.55994,283.56,100.92,289.44,101.04Zm-72.24-1.8c.84,5.88,4.32,8.64,10.08,7.92l31.2-4.32c5.88-.72,8.64-4.43994,7.92-10.31995L263.04,67.8l-15,2.04,3,21L231.6,93.48,221.4,19.2l19.32-2.64,2.76,19.8,14.88-2.16-3.12-23.4c-.84-5.88-4.56-8.64-10.44-7.92L213.6,7.2c-5.64.72-8.4,4.44-7.56,10.44Zm-46.56,22.31995L153.12,63.12l39.72,51.84,12.72-3.84L176.52,14.4,162.48,18.72l17.16,57.24-39.36-50.64-12.6,3.84,28.92,96.72ZM487.56,327.72a12.52941,12.52941,0,0,0,.48-5.52,14.60121,14.60121,0,0,1-.48,5.52,13.542,13.542,0,0,0,1.56-6.48A13.542,13.542,0,0,1,487.56,327.72ZM289.2,377.04l92.28-46.2c62.64,17.64,80.64,36.72,80.64,36.72l28.56-32.16s5.28-5.04,5.28-16.08c0-10.32-15.48-20.76-23.64-26.64-17.04-46.32-111.6-54.72-122.04-76.56-4.2-8.76-9.6-29.64-17.4-55.08-6.36-18.48-24.72-18.48-33.84-18.48a157.85724,157.85724,0,0,0-20.4,1.8c0,18.84-3.6,73.56-12.36,83.04-2.16,2.88-18.24,9.36-35.76,16.08l5.16,3.48-5.28,5.28-10.08,10.2L209.28,297l-14.52-7.44,5.28,12.84-25.8,4.2,14.52,5.16-41.88,32.16,11.28.84-14.88,27c21.6-9.84,28.08-11.64,28.08-11.64l-6.24-6.36,43.56-17.64s-3.36,8.76-3.36,25.68a54.32887,54.32887,0,0,0,1.2,10.08c5.4,26.28,31.08,80.52,121.56,80.52,65.52,0,116.04-22.92,116.04-22.92l23.52,52.44s-61.44,42.6-154.32,42.6c-190.08,0-214.2-149.4-214.2-149.4,26.16-70.08,70.32-100.8,98.28-113.76l-8.76-.84-.72-2.64C113.76,298.68,91.8,374.4,91.8,374.4s22.56,157.2,221.4,157.2c101.76,0,163.2-47.16,163.2-47.16l-28.68-64.32s-53.76,25.2-119.64,25.2c-98.16,0-112.56-66.84-112.56-66.84S271.44,381.84,289.2,377.04Z" transform="translate(0 -0.11678)" fill="#001f5b"/></g><path d="M466.44,297.12C450.6,251.88,363.96,248.64,344.4,220.2c-5.4-7.92-14.28-58.56-23.4-65.52-9.84-7.68005-35.28-4.2-35.28-4.2,0,7.08-1.68,69.24-14.64,82.08-8.64,7.32-23.28,10.56-40.68,19.68l-10.08,10.2L209.28,297l-14.4-7.44,5.16,12.84-25.8,4.2,14.64,5.16-42,32.16,11.4.84-15,27c21.6-9.84,28.08-11.64,28.08-11.64l-6.24-6.36,43.56-17.64s-3.24,8.88-3.24,25.68a45.61646,45.61646,0,0,0,1.2,10.08c1.68-1.8,39.24-39.12,78.6-47.16L224.4,371.76s50.04,2.16,62.4-1.44c38.64-17.88,69.72-34.8,93.96-46.92,56.4,15,80.64,34.44,80.64,34.44l6-6.6c-2.88-2.16-23.64-16.44-64.44-29.88,12.12-4.8,26.88-10.44,30.72-10.44,9,0,27.48,11.76,47.52,24.6l4.44-5.04a7.42923,7.42923,0,0,0,1.92-2.76,13.542,13.542,0,0,0,1.56-6.48C489.12,311.76,476.88,305.64,466.44,297.12Z" transform="translate(0 -0.11678)" fill="#071c2c"/><path d="M263.28,246.72l-39.24,21.96,10.2,24.48Zm-45.72,80.52,3.96-29.16L167.28,334.8ZM247.8,290.4l-23.4,13.08,46.8,6.36Z" transform="translate(0 -0.11678)" fill="#99999a"/><path d="M233.4,285.12l21.48-29.16L229.92,270ZM262.92,306l-17.88-10.44-12.72,6.72Zm-82.44,23.76,33.36-5.28,3.48-19.8Z" transform="translate(0 -0.11678)" fill="#001f5b"/><path d="M180.12,216l13.8,40.32,24.24,6L227.88,249ZM328.08,460.08c-104.16,0-130.32-71.4-130.32-98.28,0-6,.48-10.92.84-15l-23.88,7.8,3,6.84-18.6,6.84-16.2,10.56,32.76,6-6.72,23.4,13.92-4.08,13.56,34.2,16.08-2.04,5.4,24s30.36,21,81.72,25.68c68.04,6,128.76-17.04,128.76-17.04s-72.48,28.32-138.36,21.36c-50.4-5.4-83.16-25.8-83.16-25.8l-.48-21.72-19.92.24-9.24-33.24-17.64,8.28,7.68-29.76-33.84-4.2,6.84-20.76,8.16-16.2-10.92.24L183,313.68l-19.8-7.8,32.28-6.24L184.2,276.96l19.92,11.4,7.8-24.72c-23.76,8.28-75.24,34.68-104.88,112.2,3.6,17.76,34.68,141,206.16,141,74.04,0,128.04-27.96,144.72-37.8l-17.88-39.6A323.08311,323.08311,0,0,1,328.08,460.08Z" transform="translate(0 -0.11678)" fill="#001f5b"/><path d="M463.08,338.4a43.09738,43.09738,0,0,0-4.08,3l10.44,6.48,3.84-4.32c-3.12-2.16-7.8-5.4-8.04-5.4A3.38851,3.38851,0,0,0,463.08,338.4Zm-2.04-1.56a.95507.95507,0,0,0-.24-1.08,86.19051,86.19051,0,0,0-8.64-4.68,8.16491,8.16491,0,0,0-2.4.24c-.36,0-2.52,1.68-4.68,3.12l11.64,5.4C458.76,338.52,460.8,337.08,461.04,336.84Zm5.4-1.68c-.24.6-.36.84-.12.96.24.36,5.16,3.6,8.52,5.76l3.72-3.72-8.64-5.76A42.22732,42.22732,0,0,0,466.44,335.16Zm-3.84-.96a4.12405,4.12405,0,0,0,1.92-.48,32.64715,32.64715,0,0,0,3.48-2.64l-9.48-6a41.99141,41.99141,0,0,0-4.92,3.36c0,.12.12.36.6,1.08Zm-15.12-4.32c.24-.36.36-.72.12-.96-.36-.6-8.28-4.68-9.12-4.8a2.255,2.255,0,0,0-2.16.24c-.72.36-4.68,2.52-6.12,3.36l12.24,5.64A47.46182,47.46182,0,0,0,447.48,329.88Zm-7.44-8.28c-.12.24,0,.48.48.84.6.48,8.52,4.56,9.12,4.68a9.08266,9.08266,0,0,0,1.8-.12c.36-.12,3.24-1.92,5.04-3.12l-10.56-5.76A40.11364,40.11364,0,0,0,440.04,321.6Zm-15.12-5.28c4.08,1.56,9.72,3.84,10.2,3.96a7.26529,7.26529,0,0,0,2.28,0c.48-.12,3.84-1.92,6.36-3.12-2.52-1.2-7.2-3.36-10.44-3.36C430.32,313.8,424.92,316.32,424.92,316.32Zm-12.84,4.8,15.24,5.4c2.76-1.2,5.88-2.64,6.12-3.12.24-.36.24-.72-.48-1.32-.48-.36-7.2-2.88-11.52-4.44Zm54.36-24c-41.16-4.56-52.32-14.4-52.32-20.76,0-2.4,2.16-3.12,4.08-3.12,9.36,0,21.6,6.72,28.68,14.28C442.68,276.72,418.08,264,402,264c-3,0-7.44.96-7.44,5.88,0,10.08,15.36,22.8,54.48,26.04,21,4.92,42.72,16.68,38.52,31.8a13.54192,13.54192,0,0,0,1.56-6.48C489.12,311.76,476.88,305.64,466.44,297.12Zm-150.6,3.96c-73.32,4.32-107.4,67.32-109.2,70.92,1.68-1.8,39.24-39.12,78.6-47.16Zm-1.32-82.2c-3.48-4.44-7.8-49.68-7.8-49.68s-.72,46.08-3.36,50.16-15.84,11.76-15.84,11.76,14.64-4.8,21.84-5.28c5.28-.24,22.08,3.24,22.08,3.24S318.12,223.44,314.52,218.88Z" transform="translate(0 -0.11678)" fill="#fff"/><path d="M380.76,323.4c56.4,15,80.64,34.44,80.64,34.44l5.88-6.6c-2.76-2.16-23.52-16.44-64.32-29.88,12.12-4.8,26.88-10.44,30.72-10.44,9,0,27.48,11.76,47.52,24.6l4.44-4.92c-17.4-12.12-37.8-26.28-52.44-26.28C421.2,304.32,404.04,311.76,380.76,323.4Z" transform="translate(0 -0.11678)" fill="#fff"/></svg>