<svg id="Layer_1" data-name="Layer 1" xmlns="http://www.w3.org/2000/svg" viewBox="0 0 544.60455 350.04001"><title>Washington Capitals</title><path d="M283.48458,239.4c-6.72,16.08-5.76,36.96,1.08,48l39.12,62.64,30.36-43.92h49.56l27.12-33.36h-62.88l-18.96,23.28-37.68-31.32c-.84-.72-1.8-4.92-.24-8.64l17.16-41.52s3.6,17.64,26.52,17.64h136.32c6.48,0,26.16,0,33.72-18.24,6.96-16.8-3.36-25.92-3.36-25.92h10.8l12.48-29.88h-66.72a43.219,43.219,0,0,0-22.32,5.88l31.44-75.96h-34.32l-34.56,83.4s-6.24-13.32-26.4-13.32h-40.32L416.92455,0h-34.32l-65.52,158.16h-84a76.72333,76.72333,0,0,0-56.52,24.72s-.12-24.72-29.52-24.72h-74.76c-30,0-60.72,17.88-70.2,40.68-6.6,16.08,2.76,33.48,24,33.48h29.16c12.12,0,25.08-8.16,30.6-12,0,0,6.24,12,24.12,12h41.04l-14.04,33.72h34.44l13.92-33.72h101.04Z" fill="#fff"/><path d="M308.20458,143.52l-4.32-13.32h-5.52l-7.08,17.4h3.48l5.64-13.56,4.44,13.56h5.28l7.2-17.4h-3.48Zm-33.96-4.68c1.68-4.08,4.92-6.24,8.76-6.24,3.72,0,5.16,2.16,3.48,6.24-1.68,4.2-4.92,6.36-8.76,6.36C274.00457,145.2,272.56457,143.04,274.24459,138.84Zm2.28,9.24c6.48,0,11.4-3.12,13.92-9.24,2.64-6,.12-9.12-6.36-9.12-6.36,0-11.4,3.12-13.92,9.12C267.64459,144.96,270.16458,148.08,276.52459,148.08Zm-22.68-.48h3.84l6-14.52h6.72l1.2-2.88h-17.16l-1.2,2.88h6.6Zm-4.8-11.76c1.68-4.08-1.44-6.12-6.72-6.12a15.19112,15.19112,0,0,0-14.28,9.12c-2.64,6.36.6,9.24,7.08,9.24a30.68422,30.68422,0,0,0,9.48-1.56l3.36-8.04h-9.36l-1.08,2.64h5.52l-1.32,3.36a23.84086,23.84086,0,0,1-5.16.72c-5.4,0-5.76-3.12-4.44-6.36a10.12856,10.12856,0,0,1,9.72-6.36c1.92,0,4.08.96,3.12,3.36Zm-44.4,11.76,5.64-13.56h.12l4.44,13.56h5.28l7.2-17.4h-3.6l-5.52,13.32-4.32-13.32h-5.52l-7.2,17.4Zm-8.76,0,7.2-17.4h-3.96l-7.2,17.4Zm-22.56,0,3-7.44h9.48l-3.12,7.44h3.96l7.2-17.4h-3.84l-3,7.08h-9.48l2.88-7.08h-3.84l-7.2,17.4Zm-3.72-12.24c1.32-3.48-.6-5.64-5.64-5.64-4.08,0-8.4,1.68-10.08,5.64-3,7.08,11.04,3.6,9.36,7.44-.48,1.32-2.28,2.64-5.52,2.64-3,0-4.08-1.2-3.36-3.24h-3.96c-1.56,3.72.72,5.88,5.76,5.88,5.88,0,9.84-2.16,11.4-5.76,3.12-7.56-11.28-3.12-9.36-7.56.6-1.56,2.76-2.4,4.32-2.4,2.76,0,3.96.84,3.12,3Zm-28.92,5.52h-7.2l6.72-7.56Zm-17.4,6.72h4.2l3.48-3.84h9.96l.36,3.84h4.68l-1.68-17.4h-4.92Zm-9.96-13.92h.12l-.96,13.92h4.8l13.32-17.4h-3.84l-10.2,13.56.96-13.56h-4.92l-10.2,13.56.96-13.56h-4.2l-.96,17.4h4.68Zm183.48-18.48,11.88-8.64,11.88,8.64-4.56-13.92,11.88-8.64h-14.64l-4.56-14.04-4.56,14.04h-14.76l12,8.64Zm-77.16,0,11.88-8.64,12,8.64-4.56-13.92,11.88-8.64h-14.76l-4.56-14.04-4.44,14.04h-14.76l11.88,8.64Zm-77.04,0,11.88-8.64,11.88,8.64-4.56-13.92,12-8.64h-14.76l-4.56-14.04-4.56,14.04h-14.64l11.88,8.64Z" fill="#cf0a2c"/><polygon points="413.325 281.04 371.805 281.04 358.245 297.84 399.645 297.84 413.325 281.04" fill="#cf0a2c"/><path d="M254.20458,209.04l17.64-42.6h-38.76a68.28971,68.28971,0,0,0-63.48,42.48l-20.16,48.72h16.44l19.08-45.96c7.32-17.64,23.28-31.92,48.72-31.92h16.32l-10.32,24.96c-1.44,3.24-5.16,6-8.52,6h-37.92l-5.52,13.2h45.48C241.36459,223.92,249.64459,220.2,254.20458,209.04Zm197.64-29.28c-5.04,12.24,1.56,22.08,14.76,22.08h33.36c2.4,0,3.6,2.04,2.52,4.44a7.37135,7.37135,0,0,1-6.24,4.44h-60.96l-5.52,13.2h61.2c11.4,0,21.72-2.52,26.16-13.2,5.04-12.12-1.56-22.08-14.76-22.08h-33.36c-2.4,0-3.6-2.04-2.64-4.44,1.08-2.4,3.84-4.44,6.24-4.44h54l5.52-13.32h-54.24C466.60458,166.44,455.32461,171.36,451.8446,179.76Zm-178.68,44.16,15.24-36.84h-16.32l-15.36,36.84Zm23.76-57.48h-16.32l-5.52,13.32h16.32Zm124.8,57.48,52.92-127.56h-16.44l-52.8,127.56Zm-78.24-57.48-5.52,13.32h51.84c9.84,0,6.84,7.32,6.84,7.32h-33.36c-13.2,0-22.92,6-26.04,13.56-5.4,12.96,2.4,23.28,17.4,23.28h16.92a23.20773,23.20773,0,0,0,11.28-3.48l-1.44,3.48h16.32l13.56-32.4c5.64-13.8-3-25.08-19.56-25.08Zm-190.44,57.48,13.44-32.4c5.76-13.8-3-25.08-19.44-25.08h-42.72l-5.52,13.32h46.32c9.84,0,6.84,7.32,6.84,7.32h-33.36c-13.2,0-22.92,6-26.04,13.56-5.4,12.96,2.4,23.28,17.4,23.28h16.92a23.20755,23.20755,0,0,0,11.28-3.48l-1.56,3.48Zm-85.68-44.16h21.84l5.4-13.32h-22.32c-26.4,0-54.36,15.96-62.52,35.52-4.92,11.88,2.28,21.96,16.32,21.96h29.16c12.72,0,28.08-12.12,28.08-12.12l-13.56-5.76s-6.24,4.68-12.96,4.68h-27.84c-3.48,0-5.04-3.48-3.12-7.92C31.1246,190.08,49.7246,179.76,67.3646,179.76Z" fill="#041e41"/><path d="M291.16461,242.52c-5.4,13.2-5.28,31.32.48,40.44l32.4,51.96,21.36-30.96-39.48-32.88c-4.2-3.36-5.4-11.64-2.64-18.12L404.5646,8.4h-16.44l-65.52,158.16h-19.44l-5.52,13.32h19.56Z" fill="#041e41"/><path d="M114.2846,200.4a8.76447,8.76447,0,0,0-7.32,5.04c-1.2,2.88.12,5.28,3,5.28h25.08c3.6,0,8.16-2.64,9.48-5.88l2.76-6.48a28.052,28.052,0,0,1-9.96,2.04Zm244.68,0a8.76445,8.76445,0,0,0-7.32,5.04c-1.2,2.88.24,5.28,3,5.28h25.08c3.6,0,8.28-2.64,9.6-5.88l2.64-6.48a28.052,28.052,0,0,1-9.96,2.04Z" fill="#fff"/></svg>