<svg id="Layer_1" data-name="Layer 1" xmlns="http://www.w3.org/2000/svg" viewBox="0 0 594.96002 594.96002"><title>Winnipeg Jets Logo 2011</title><path d="M594.96,297.48c0,164.28-133.2,297.48-297.48,297.48S0,461.76,0,297.48,133.2,0,297.48,0,594.96,133.20007,594.96,297.48Z" fill="#8e9090"/><path d="M574.92,297.48c0,153.24-124.2,277.44-277.44,277.44S19.92,450.72,19.92,297.48s124.2-277.56,277.56-277.56C450.72,19.92,574.92,144.24005,574.92,297.48Z" fill="#041e41"/><path d="M324.36,94.56,297.48,27,269.04,94.56C168.84,108.12006,91.56,193.92,91.56,297.72,91.56,411,184.2,502.8,297.48,502.8c113.16,0,204.24-91.8,204.24-205.08C501.72,193.92,424.44,108.12006,324.36,94.56Z" fill="#fff"/><path d="M280.32,409.2l2.16,4.8Zm-52.92,3.36v30.96l48.84-24.12,3.72-9.24,17.52,84.72,17.64-85.44,3.96,9.96,48.96,24.12V412.56L349.8,386.4l.36.36,28.68-4.68-13.08-16.32,22.32-19.44,22.68-1.56L423,350.88V315.72l33.48-29.16-32.76-.24,22.2-61.56L385.08,247.8,384,215.04l-41.64,41.52c1.08-6.48,15.84-93.12,15.84-93.12l-39.48,25.8Zm91.32-223.32-21.24,9.48L276.6,189l-39-25.56s15.72,93,15.72,93.12L211.8,215.04l-1.2,32.76-60.84-23.04,22.2,61.56-32.76.24,33.24,28.92v35.4l12.24-6.12,23.04,1.44,22.32,19.44-13.2,16.32,21.96,3.6Z" fill="#7b303e"/><path d="M441.24,229.68l-58.08,21.96-17.04,29.4,11.64,5.52Zm-87.12-60.36-34.8,22.92,3.84,18ZM146.52,289.2l25.8,22.56V289.08ZM284.88,419.52l12.6,63.84V448.32ZM253.32,260.4l-.12-.12-38.88-38.76-1.2,30.12-58.2-21.96,56.88,59.64,47.76-22.8ZM276,191.88,241.44,169.2v.36l27.6,67.32,1.8-21.24ZM262.8,349.92l-50.64-3.36,21.48,18.72c-.36.84-11.64,14.76-11.64,14.76l24.96,4.08,15.84-22.68Z" fill="#ac162c"/><polygon points="422.76 258.6 406.2 300.12 328.68 263.16 324.48 215.64 297.48 92.16 270.96 215.64 266.76 263.16 189.24 300.12 172.2 259.2 172.32 279.36 172.32 350.88 184.68 344.76 262.8 349.92 262.8 361.56 227.4 412.56 227.4 443.52 276.36 419.4 280.32 409.2 297.48 448.32 315.12 409.2 319.08 419.4 368.04 443.52 368.04 412.56 332.64 361.56 332.64 349.92 410.76 344.76 423.12 350.88 423.12 279.36 422.76 258.6" fill="#55565a"/><polygon points="276.24 216.36 271.8 266.64 269.4 295.08 264.36 270.24 186.48 307.44 177.72 286.44 177.72 342.24 183.6 339.24 268.2 344.88 268.2 363.24 232.68 414.24 232.68 434.88 272.04 415.56 278.16 400.2 274.8 383.16 280.56 396.48 297.48 435 297.48 113.88 276.24 216.36" fill="#8e9090"/></svg>